<?xml version="1.0" standalone="no"?>
<!DOCTYPE svg PUBLIC "-//W3C//DTD SVG 1.1//EN" "http://www.w3.org/Graphics/SVG/1.1/DTD/svg11.dtd" >
<svg xmlns="http://www.w3.org/2000/svg" xmlns:xlink="http://www.w3.org/1999/xlink" version="1.1">
<metadata>
Created by FontForge 20170924 at Tue Oct 11 19:34:04 2016
 By www-data
C 2016 Sharp Type Corporation
</metadata>
<defs>
<font id="SharpGrotesk-Book25" horiz-adv-x="825" >
  <font-face 
    font-family="SharpGrotesk-Book25"
    font-weight="400"
    font-stretch="expanded"
    units-per-em="1000"
    panose-1="0 0 5 5 0 0 0 0 0 0"
    ascent="800"
    descent="-200"
    x-height="571"
    cap-height="711"
    bbox="-113 -328 2057 1228"
    underline-thickness="50"
    underline-position="-125"
    unicode-range="U+0020-3009"
  />
<missing-glyph horiz-adv-x="60" 
 />
    <glyph glyph-name=".notdef" horiz-adv-x="60" 
 />
    <glyph glyph-name=".null" horiz-adv-x="0" 
 />
    <glyph glyph-name="nonmarkingreturn" horiz-adv-x="333" 
 />
    <glyph glyph-name="space" unicode=" " horiz-adv-x="289" 
 />
    <glyph glyph-name="exclam" unicode="!" horiz-adv-x="389" 
d="M262 717v-115q0 -93 -6 -171q-11 -148 -24 -196q-18 2 -42 2q-27 0 -43 -2q-5 16 -11 66q-20 127 -20 300v116h146zM188 -14q-50 0 -71 19t-21 65q0 45 23 65t69 20t68.5 -20t22.5 -65q0 -84 -91 -84z" />
    <glyph glyph-name="quotedbl" unicode="&#x22;" horiz-adv-x="450" 
d="M75 457q-5 11 -9 42q-10 84 -10 166v46h123v-46q0 -4 -3 -91q-6 -95 -15 -117h-86zM289 457q-3 7 -8 42q-11 66 -11 166v46h124v-46q0 -4 -3 -91q-6 -92 -16 -117h-86z" />
    <glyph glyph-name="numbersign" unicode="#" horiz-adv-x="1109" 
d="M622 139h-248l-32 -139h-123l32 139h-206v104h230l53 227h-230v103h254l32 138h123l-32 -138h248l32 138h119l-32 -138h219v-103h-243l-52 -227h243v-104h-267l-32 -139h-120zM699 470h-248l-53 -227h248z" />
    <glyph glyph-name="dollar" unicode="$" horiz-adv-x="854" 
d="M371 -126v109q-163 12 -244 76.5t-102 191.5h133q17 -88 88.5 -126t206.5 -38q124 0 177.5 28.5t53.5 84.5q0 42 -27 63q-27 20 -87 29.5t-179 15.5q-117 8 -184 28q-75 21 -111 62.5t-36 110.5q0 62 33 108q71 102 278 109v117h118v-120q270 -25 312 -238h-129
q-14 74 -82 106t-189 32q-116 0 -166 -28t-50 -82q0 -34 22 -53q42 -37 239 -48q117 -6 206 -27q81 -21 118.5 -63t37.5 -114q2 -100 -76 -160t-241 -67v-107h-120z" />
    <glyph glyph-name="percent" unicode="%" horiz-adv-x="884" 
d="M211 389q-86 0 -133.5 43.5t-47.5 121.5q0 50 24 86q49 80 160 80q82 0 131.5 -45.5t49.5 -120.5q0 -76 -49 -120.5t-135 -44.5zM716 711h146l-691 -711h-154zM211 469q42 0 67 22.5t25 62.5q0 39 -24.5 61t-66.5 22q-43 0 -66.5 -21t-23.5 -62t23.5 -63t65.5 -22z
M664 -13q-87 0 -134 43t-47 122q0 49 23 86q50 80 161 80q81 0 130.5 -45.5t49.5 -120.5q0 -76 -48.5 -120.5t-134.5 -44.5zM664 67q42 0 66.5 22.5t24.5 62.5q0 39 -24.5 61t-66.5 22t-66 -21.5t-24 -61.5q0 -41 23.5 -63t66.5 -22z" />
    <glyph glyph-name="ampersand" unicode="&#x26;" horiz-adv-x="1020" 
d="M860 -13q-159 0 -275 76q-154 -80 -290 -80q-129 0 -202.5 48.5t-73.5 143.5q0 94 64.5 149.5t208.5 79.5q-17 54 -17 98q0 70 32 120q65 103 204 103q59 0 107 -23q92 -48 92 -151q0 -59 -28 -96q-51 -73 -249 -113q32 -44 79 -91q38 -38 86 -76q97 63 174.5 154.5
t122.5 196.5h118q-111 -247 -330 -402q86 -39 173 -39q81 0 134 45v-108q-45 -35 -130 -35zM375 508q0 -47 16 -88q89 14 131 30q47 17 67.5 41t20.5 61q0 38 -27.5 60.5t-75.5 22.5q-61 0 -96.5 -34.5t-35.5 -92.5zM301 79q101 0 203 45q-42 38 -68 64q-66 67 -107 137
q-73 -12 -118 -31q-79 -34 -81 -107q0 -54 45 -81t126 -27z" />
    <glyph glyph-name="quotesingle" unicode="'" horiz-adv-x="235" 
d="M74 457q-3 7 -8 42q-10 86 -10 168v44h123v-44q0 -62 -3 -91q-6 -97 -15 -119h-87z" />
    <glyph glyph-name="parenleft" unicode="(" horiz-adv-x="534" 
d="M485 -206q-194 20 -290 116q-115 112 -115 366q0 241 112 359q101 109 293 130v-116q-81 -11 -148 -51q-127 -78 -127 -325q0 -127 34 -201q59 -136 241 -157v-121z" />
    <glyph glyph-name="parenright" unicode=")" horiz-adv-x="534" 
d="M49 -86q84 10 146 46q128 75 128 313q0 130 -32 209q-32 76 -91.5 115.5t-150.5 51.5v116q192 -21 292 -130q112 -118 112 -359q0 -252 -114 -366q-101 -97 -290 -116v120z" />
    <glyph glyph-name="asterisk" unicode="*" horiz-adv-x="547" 
d="M294 517l29 -183h-99l29 180l-141 -115l-49 85l171 66l-171 64l49 84l142 -114l-30 181h99l-30 -181l142 115l50 -85l-173 -65l173 -65l-49 -85z" />
    <glyph glyph-name="plus" unicode="+" horiz-adv-x="682" 
d="M397 304v-214h-109v214h-219v110h219v212h109v-212h224v-110h-224z" />
    <glyph glyph-name="comma" unicode="," horiz-adv-x="357" 
d="M92 -107q93 21 105 104q-14 -5 -31 -5q-43 0 -60.5 15t-17.5 59q0 79 93 79q50 0 71 -26.5t21 -86.5q0 -81 -44.5 -135.5t-128.5 -69.5z" />
    <glyph glyph-name="hyphen" unicode="-" horiz-adv-x="719" 
d="M644 263h-570v123h570v-123z" />
    <glyph glyph-name="period" unicode="." horiz-adv-x="356" 
d="M177 -14q-50 0 -71.5 19t-21.5 66q0 85 93 85q46 0 69 -20.5t23 -65.5q0 -84 -92 -84z" />
    <glyph glyph-name="slash" unicode="/" horiz-adv-x="409" 
d="M7 0l255 711h141l-255 -711h-141z" />
    <glyph glyph-name="zero" unicode="0" horiz-adv-x="955" 
d="M476 -19q-118 0 -218 39q-203 86 -203 328v3q0 123 55 204q55 84 149.5 128t216.5 44q118 0 216 -43q208 -94 208 -332v-5q0 -124 -56 -205q-109 -161 -368 -161zM475 93q88 0 155 26q143 54 143 229q0 94 -37 152q-73 115 -260 115q-140 0 -217 -66t-77 -200v-1
q0 -87 37 -143q74 -112 256 -112z" />
    <glyph glyph-name="one" unicode="1" horiz-adv-x="654" 
d="M42 0v118h230v363h-140v98q75 3 113 35t50 96h103v-592h221v-118h-577z" />
    <glyph glyph-name="two" unicode="2" horiz-adv-x="848" 
d="M53 0v83q0 127 106 189q76 45 249 79q73 15 139 33q63 18 94.5 44.5t31.5 68.5q0 124 -218 124q-264 0 -264 -193h-127q0 147 100.5 223t292.5 76q116 0 194 -29q147 -57 147 -201q0 -72 -40 -115q-38 -41 -109 -68.5t-185 -50.5q-87 -18 -147 -36q-62 -18 -93.5 -44.5
t-34.5 -70.5h605v-112h-741z" />
    <glyph glyph-name="three" unicode="3" horiz-adv-x="858" 
d="M423 -19q-144 0 -225 29q-83 28 -120.5 88t-37.5 157h127q0 -62 26 -99q49 -67 232 -67q253 0 253 118q0 61 -49 83.5t-168 22.5h-134v97h131q113 0 160 23t47 76q0 112 -230 112q-133 0 -196.5 -40.5t-64.5 -124.5h-124q0 135 100 203t286 68q107 0 190 -23
q169 -50 169 -181q0 -71 -44 -107.5t-129 -48.5q95 -10 142 -48.5t47 -117.5q0 -106 -101.5 -163t-286.5 -57z" />
    <glyph glyph-name="four" unicode="4" horiz-adv-x="841" 
d="M836 169h-164v-169h-127v169h-534v86l553 456h108v-439h164v-103zM545 272v303l-371 -303h371z" />
    <glyph glyph-name="five" unicode="5" horiz-adv-x="866" 
d="M436 -19q-185 0 -275.5 59.5t-97.5 177.5h134q12 -129 246 -129q247 0 247 149q0 56 -29 85q-53 58 -187 58q-174 0 -278 -89l-18 -12l-104 38l64 393h635v-4q0 -47 -11 -68t-39.5 -28.5t-89.5 -7.5h-402q-5 -28 -12 -73q-19 -119 -26 -156q47 47 126 76t179 29
q95 0 167 -24q151 -49 151 -218q0 -87 -46 -143q-92 -113 -334 -113z" />
    <glyph glyph-name="six" unicode="6" horiz-adv-x="896" 
d="M845 223q0 -69 -44 -127q-94 -116 -331 -115q-213 0 -314 91t-101 275q0 190 108.5 285t314.5 95q294 0 362 -198h-142q-14 29 -40 49q-53 45 -181 45q-303 0 -303 -270q0 -44 5 -70q23 49 70 86q108 85 272 85q100 0 172 -24q152 -50 152 -207zM468 91q249 0 249 132
q0 71 -56.5 100.5t-176.5 29.5q-101 0 -178 -37t-109 -101q28 -67 92.5 -95.5t178.5 -28.5z" />
    <glyph glyph-name="seven" unicode="7" horiz-adv-x="777" 
d="M169 0q50 178 191 357q123 155 248 243h-589v111h750v-93q-143 -102 -265 -264q-132 -175 -176 -354h-159z" />
    <glyph glyph-name="eight" unicode="8" horiz-adv-x="880" 
d="M436 -19q-130 0 -214 17q-91 18 -136 62t-45 124q0 136 178 176q-145 32 -145 158q0 102 95.5 155t272.5 53q373 0 373 -209q0 -121 -152 -156q52 -11 89 -30q85 -43 85 -142q0 -75 -48 -121q-88 -87 -353 -87zM467 403q112 0 168.5 24.5t56.5 81.5q0 115 -249 115
q-246 0 -246 -116q0 -55 52 -80t160 -25h58zM438 88q142 0 208 28t66 86q0 62 -58 87t-181 26h-69q-233 0 -233 -114q0 -60 62 -86.5t205 -26.5z" />
    <glyph glyph-name="nine" unicode="9" horiz-adv-x="899" 
d="M418 -19q-312 0 -364 199h136q42 -94 231 -94q153 0 228.5 65t75.5 202q0 38 -4 63q-25 -49 -77 -87q-108 -77 -273 -77q-103 0 -170 21q-148 44 -148 200q0 73 44 132q95 122 333 122q204 0 309 -89.5t105 -279.5q0 -377 -426 -377zM412 353q107 0 183 33.5t111 95.5
q-27 71 -93 103t-181 32q-248 0 -248 -141q0 -70 54 -96.5t174 -26.5z" />
    <glyph glyph-name="colon" unicode=":" horiz-adv-x="367" 
d="M183 408q-52 0 -71.5 16.5t-19.5 65.5q0 47 20.5 65t70.5 18q49 0 69.5 -18.5t20.5 -64.5t-21 -64t-69 -18zM183 41q-51 0 -71 17t-20 65q0 47 20.5 65t70.5 18t70.5 -18t20.5 -65q0 -46 -21 -64t-70 -18z" />
    <glyph glyph-name="semicolon" unicode=";" horiz-adv-x="368" 
d="M183 408q-52 0 -71.5 16.5t-19.5 65.5q0 47 20.5 65t70.5 18q49 0 69.5 -18.5t20.5 -64.5t-21 -64t-69 -18zM97 -107q89 20 100 103q-11 -4 -27 -4q-43 0 -60.5 15t-17.5 59q0 79 93 79q50 0 71.5 -26.5t21.5 -86.5q0 -80 -44 -131.5t-129 -66.5z" />
    <glyph glyph-name="less" unicode="&#x3c;" horiz-adv-x="714" 
d="M88 310v108l527 214v-119l-394 -148l394 -148v-126z" />
    <glyph glyph-name="equal" unicode="=" horiz-adv-x="714" 
d="M81 481v103h554v-103h-554zM81 147v104h554v-104h-554z" />
    <glyph glyph-name="greater" unicode="&#x3e;" horiz-adv-x="714" 
d="M101 217l394 148l-394 148v119l527 -214v-108l-527 -219v126z" />
    <glyph glyph-name="question" unicode="?" horiz-adv-x="887" 
d="M483 200q-13 11 -59 11q-49 0 -62 -11q0 2 -0.5 16.5t-0.5 23.5v21q0 45 25 75q40 43 145 74q11 4 22.5 8t25 8.5t21.5 7.5q73 27 73 80q0 33 -19 58q-38 49 -198 49q-127 0 -187 -38.5t-60 -127.5h-124q0 271 371 271q124 0 200 -26q142 -49 142 -182q0 -87 -56 -128
q-35 -29 -119 -54q-52 -16 -65 -21q-34 -12 -52.5 -29.5t-20.5 -47.5zM426 -14q-50 0 -71 19t-21 66q0 85 92 85q46 0 69 -20.5t23 -65.5q0 -84 -92 -84z" />
    <glyph glyph-name="at" unicode="@" horiz-adv-x="1021" 
d="M520 -123q-204 0 -327 98q-131 106 -131 303q0 187 127 305q128 119 338 119q213 0 329 -111q104 -100 104 -246q0 -104 -49.5 -161.5t-131.5 -57.5q-112 0 -144 77q-38 -83 -160 -83q-64 0 -103 23q-79 45 -79 145q0 47 21 87q48 86 166 86q105 0 148 -68l15 63h67v-150
q0 -51 15.5 -71.5t53.5 -20.5q85 0 85 131q0 114 -76 186q-84 82 -262 82q-114 0 -196 -42q-172 -90 -172 -293q0 -94 43 -166q90 -146 319 -146q164 0 251 93l93 -50q-118 -132 -344 -132zM499 207q57 0 87 23t30 60q0 40 -29.5 62.5t-80.5 22.5q-115 0 -115 -87
q0 -38 27.5 -59.5t80.5 -21.5z" />
    <glyph glyph-name="A" unicode="A" horiz-adv-x="895" 
d="M660 178h-426l-89 -178h-134l369 711h129l375 -711h-132zM444 598l-159 -318h323z" />
    <glyph glyph-name="B" unicode="B" horiz-adv-x="869" 
d="M96 0v711h377q180 0 261 -41.5t81 -143.5v-4q0 -70 -37.5 -106.5t-117.5 -51.5q91 -12 132.5 -48.5t41.5 -112.5v-3q0 -76 -42 -119q-76 -81 -320 -81h-376zM216 612v-201h267q55 0 111 7q100 14 100 93v3q0 59 -47.5 78.5t-166.5 19.5h-264zM216 314v-209h242
q90 0 148 8q55 9 79 31t24 63v3q0 45 -25 68q-41 36 -213 36h-255z" />
    <glyph glyph-name="C" unicode="C" horiz-adv-x="937" 
d="M900 282q-16 -90 -67 -158q-107 -143 -357 -143q-131 0 -224 40q-196 81 -196 326v3q0 119 56 202q55 85 152.5 130t224.5 45q100 0 190 -31q181 -67 217 -251h-132q-39 170 -274 170q-145 0 -225.5 -67t-80.5 -199v-1q0 -127 76.5 -191t222.5 -64q249 0 284 189h133z
" />
    <glyph glyph-name="D" unicode="D" horiz-adv-x="908" 
d="M96 711h322q131 0 230 -36q206 -75 206 -319v-3q0 -127 -52 -204q-99 -149 -372 -149h-334v711zM218 603v-494h206q101 0 167 23q137 47 137 223v2q0 132 -78.5 189t-236.5 57h-195z" />
    <glyph glyph-name="E" unicode="E" 
d="M786 0h-690v711h670v-105h-551v-202h466v-104h-466v-191h571v-109z" />
    <glyph glyph-name="F" unicode="F" horiz-adv-x="790" 
d="M218 272v-272h-122v711h652v-110h-530v-219h507v-110h-507z" />
    <glyph glyph-name="G" unicode="G" horiz-adv-x="971" 
d="M786 194q-11 -59 -51 -110q-84 -103 -280 -103q-116 0 -210 39q-189 86 -189 325v4q0 124 55 205q55 84 151 128.5t221 44.5q104 0 196 -27q179 -56 214 -237h-140q-18 79 -84 115.5t-183 36.5q-145 0 -223.5 -66.5t-78.5 -201.5v-1q0 -129 74.5 -193.5t217.5 -64.5
q100 0 165 24q123 46 136 151h-312v103h431v-366h-103z" />
    <glyph glyph-name="H" unicode="H" horiz-adv-x="925" 
d="M707 296h-487v-296h-124v711h124v-297h487v297h122v-711h-122v296z" />
    <glyph glyph-name="I" unicode="I" horiz-adv-x="614" 
d="M56 0v115h192v485h-192v111h502v-111h-192v-485h192v-115h-502z" />
    <glyph glyph-name="J" unicode="J" horiz-adv-x="735" 
d="M335 -20q-154 0 -229.5 73t-80.5 216v12h128v-10q6 -90 47.5 -134.5t135.5 -44.5q98 0 144 50.5t46 171.5v397h128v-399q0 -332 -319 -332z" />
    <glyph glyph-name="K" unicode="K" horiz-adv-x="879" 
d="M440 379l-220 -175v-204h-124v711h124v-380l466 380h168l-323 -266l342 -445h-150z" />
    <glyph glyph-name="L" unicode="L" horiz-adv-x="746" 
d="M96 0v711h125v-594h499v-117h-624z" />
    <glyph glyph-name="M" unicode="M" horiz-adv-x="1051" 
d="M216 541v-541h-120v711h118l311 -330l319 330h111v-711h-120v542l-307 -313h-13z" />
    <glyph glyph-name="N" unicode="N" horiz-adv-x="938" 
d="M216 557v-557h-120v711h126l473 -514l28 -35v549h119v-711h-117l-482 524z" />
    <glyph glyph-name="O" unicode="O" horiz-adv-x="955" 
d="M476 -19q-118 0 -218 39q-203 86 -203 328v3q0 123 55 204q55 84 149.5 128t216.5 44q118 0 216 -43q208 -94 208 -332v-5q0 -124 -56 -205q-109 -161 -368 -161zM475 93q88 0 155 26q143 54 143 229q0 94 -37 152q-73 115 -260 115q-140 0 -217 -66t-77 -200v-1
q0 -87 37 -143q74 -112 256 -112z" />
    <glyph glyph-name="P" unicode="P" horiz-adv-x="853" 
d="M218 224v-224h-122v711h358q190 0 274 -59t84 -187q0 -242 -344 -241h-250zM218 606v-277h244q121 0 173.5 31t52.5 106q0 55 -25 86q-45 54 -209 54h-236z" />
    <glyph glyph-name="Q" unicode="Q" horiz-adv-x="955" 
d="M642 -138l-87 124q-42 -5 -79 -5q-118 0 -218 39q-203 86 -203 328v3q0 123 55 204q55 84 149.5 128t216.5 44q118 0 216 -43q208 -94 208 -332v-5q0 -125 -58.5 -208.5t-163.5 -123.5l117 -153h-153zM475 93q88 0 155 26q143 54 143 229q0 94 -37 152q-73 115 -260 115
q-140 0 -217 -66t-77 -200v-1q0 -87 37 -143q74 -112 256 -112z" />
    <glyph glyph-name="R" unicode="R" horiz-adv-x="886" 
d="M219 252v-252h-123v711h376q183 0 264 -52t81 -166q0 -81 -40.5 -126.5t-126.5 -63.5q83 -17 118.5 -66t35.5 -147v-45q0 -35 17 -45h-131q-16 9 -16 46v44q0 62 -18 97t-61.5 50t-122.5 15h-253zM466 358q64 0 117 8q107 19 107 112v8q0 69 -50.5 94t-168.5 25h-252
v-247h247z" />
    <glyph glyph-name="S" unicode="S" horiz-adv-x="854" 
d="M449 -20q-142 0 -228 29q-87 29 -134 88t-62 154h133q17 -90 86.5 -126.5t207.5 -36.5q120 0 176 28t56 84q0 43 -28 65q-27 19 -87 27.5t-182 15.5q-107 7 -183 27q-144 37 -144 174q0 102 87.5 160t256.5 58q181 0 280 -59.5t121 -182.5h-131q-12 74 -80 105.5
t-192 31.5q-218 0 -218 -110q0 -35 22 -54q20 -20 74.5 -30t161.5 -16q118 -6 207 -27q83 -20 121 -61.5t38 -114.5q0 -229 -359 -229z" />
    <glyph glyph-name="T" unicode="T" horiz-adv-x="765" 
d="M439 604v-604h-126v604h-276v107h691v-107h-289z" />
    <glyph glyph-name="U" unicode="U" horiz-adv-x="910" 
d="M456 -20q-192 0 -283.5 95.5t-91.5 306.5v329h129v-326q0 -152 59 -219t188 -67q128 0 185.5 66t57.5 221v325h129v-328q0 -140 -43 -232q-85 -171 -330 -171z" />
    <glyph glyph-name="V" unicode="V" horiz-adv-x="848" 
d="M352 0l-339 711h135l271 -581l285 581h134l-359 -711h-127z" />
    <glyph glyph-name="W" unicode="W" horiz-adv-x="1292" 
d="M638 560l-270 -560h-123l-229 711h128l178 -564l269 564h100l238 -566l220 566h127l-286 -711h-118z" />
    <glyph glyph-name="X" unicode="X" horiz-adv-x="861" 
d="M434 299l-273 -299h-160l353 377l-306 334h155l233 -263l235 263h156l-313 -334l339 -377h-156z" />
    <glyph glyph-name="Y" unicode="Y" horiz-adv-x="811" 
d="M329 0v295l-326 416h152l241 -315l261 315h151l-350 -418v-293h-129z" />
    <glyph glyph-name="Z" unicode="Z" horiz-adv-x="795" 
d="M40 0v104l554 501h-527v106h688v-114l-539 -486h536v-111h-712z" />
    <glyph glyph-name="bracketleft" unicode="[" horiz-adv-x="503" 
d="M453 -202h-344v967h344v-99h-220v-770h220v-98z" />
    <glyph glyph-name="backslash" unicode="\" horiz-adv-x="409" 
d="M142 711l261 -711h-138l-261 711h138z" />
    <glyph glyph-name="bracketright" unicode="]" horiz-adv-x="503" 
d="M50 -202v98h220v770h-220v97h344v-965h-344z" />
    <glyph glyph-name="asciicircum" unicode="^" horiz-adv-x="673" 
d="M337 612l-117 -212h-112l182 311h92l182 -311h-111z" />
    <glyph glyph-name="uni005F" unicode="_" horiz-adv-x="832" 
d="M796 -209h-760v126h760v-126z" />
    <glyph glyph-name="grave" unicode="`" horiz-adv-x="691" 
d="M165 884h141l181 -209h-104z" />
    <glyph glyph-name="a" unicode="a" horiz-adv-x="831" 
d="M637 157q-24 -49 -70 -89q-101 -87 -279 -87q-237 0 -237 159v1q0 92 81 136q29 17 64 27q71 22 243 32q67 4 116 11q42 6 59.5 19t17.5 37v1q0 24 -18 46q-40 51 -178 51q-124 0 -179.5 -31.5t-64.5 -101.5h-128q14 115 104 170t258 55q167 0 246 -51.5t79 -165.5v-376
h-102zM322 71q138 0 227 68q85 65 85 143v24q-29 -38 -184 -47q-179 -10 -227 -41q-40 -24 -40 -67v-1q0 -79 139 -79z" />
    <glyph glyph-name="b" unicode="b" horiz-adv-x="883" 
d="M489 -17q-216 0 -288 129l-8 -112h-108v758h121v-308q40 70 115.5 106t174.5 36q98 0 176 -35q159 -76 159 -274q0 -99 -46 -167q-91 -133 -296 -133zM452 84q253 0 253 199q0 102 -65.5 155.5t-185.5 53.5q-76 0 -132 -25q-122 -51 -122 -184q0 -97 65 -148t187 -51z
" />
    <glyph glyph-name="c" unicode="c" horiz-adv-x="853" 
d="M807 243q-16 -126 -113 -194t-265 -68q-377 0 -377 302q0 99 49 167q48 70 133 106.5t198 36.5q162 0 259 -66.5t116 -192.5h-134q-31 158 -240 158q-119 0 -186.5 -53t-67.5 -156q0 -198 254 -198q106 0 165 38.5t76 119.5h133z" />
    <glyph glyph-name="d" unicode="d" horiz-adv-x="886" 
d="M681 123q-72 -140 -286 -140q-97 0 -178 31q-165 69 -165 268q0 97 43 168q89 142 303 142q199 0 278 -132v298h122v-758h-107zM429 84q123 0 188.5 51.5t65.5 148.5q0 99 -69 153.5t-186 54.5q-120 0 -185 -54.5t-65 -155.5q0 -198 251 -198z" />
    <glyph glyph-name="e" unicode="e" horiz-adv-x="853" 
d="M793 162q-45 -97 -136.5 -139t-234.5 -42q-128 0 -211 36q-159 72 -159 261q0 89 45 163q46 72 131.5 112t203.5 40q117 0 200 -37q171 -77 171 -266v-50h-633q24 -161 262 -161q171 0 223 83h138zM435 496q-112 0 -179.5 -42t-83.5 -123h509q-24 165 -246 165z" />
    <glyph glyph-name="f" unicode="f" horiz-adv-x="523" 
d="M286 466l-1 -466h-118v466h-157v105h157v23q0 95 22 143q21 50 71.5 70t142.5 20h100v-99h-89q-44 0 -78 -9q-28 -10 -39 -38t-11 -86v-24h217v-105h-217z" />
    <glyph glyph-name="g" unicode="g" horiz-adv-x="785" 
d="M367 -262q-129 0 -200 17q-140 29 -140 126q0 58 46 89t142 41q-89 3 -131 26.5t-42 75.5t49 84.5t149 36.5q-92 12 -137 49.5t-45 109.5q0 85 74 134.5t216 53.5q13 3 85 5t106 11q38 10 53 35.5t15 76.5v7h135v-6q0 -49 -9 -76t-32 -41q-39 -24 -184 -26
q116 -8 172 -50.5t56 -124.5q0 -95 -82 -138.5t-249 -43.5h-70q-71 0 -120 -7q-41 -8 -57.5 -20.5t-16.5 -32.5q0 -47 163 -46h190q146 0 212.5 -38.5t66.5 -126.5v-3q0 -57 -37 -105q-79 -93 -340 -93h-38zM402 294q116 0 169.5 22.5t53.5 76.5q0 55 -50.5 80.5
t-163.5 25.5q-42 0 -62 -4q-88 -4 -128 -28.5t-40 -74.5q0 -56 53.5 -77t167.5 -21zM418 -163q98 0 152 12q96 21 96 82v3q0 28 -15 43q-30 34 -162 34h-155q-181 -2 -181 -89q0 -45 54.5 -65t178.5 -20h32z" />
    <glyph glyph-name="h" unicode="h" horiz-adv-x="855" 
d="M204 0h-119v758h120v-327q34 76 104 119t170 43q97 0 163 -36q133 -73 133 -252v-305h-125v272q0 63 -20 114q-43 106 -189 106q-114 0 -175.5 -61t-61.5 -177v-254z" />
    <glyph glyph-name="i" unicode="i" horiz-adv-x="300" 
d="M153 667q-44 0 -63.5 18.5t-19.5 61.5q0 42 20 60.5t62 18.5t62.5 -18.5t20.5 -60.5q0 -80 -82 -80zM86 0v571h128v-571h-128z" />
    <glyph glyph-name="j" unicode="j" horiz-adv-x="295" 
d="M150 667q-44 0 -63.5 18.5t-19.5 61.5q0 42 20.5 60.5t62.5 18.5t62 -18t20 -61q0 -80 -82 -80zM-87 -273v111h32q92 0 118 27q26 30 26 140v566h121v-580q0 -164 -50 -214t-206 -50h-41z" />
    <glyph glyph-name="k" unicode="k" horiz-adv-x="798" 
d="M411 281l-205 -162v-119h-121v758h121v-522l408 335h170l-278 -226l294 -345h-151z" />
    <glyph glyph-name="l" unicode="l" horiz-adv-x="296" 
d="M86 0v758h125v-758h-125z" />
    <glyph glyph-name="m" unicode="m" horiz-adv-x="1299" 
d="M209 0h-125v571h107l11 -137q30 74 93 116.5t154 42.5q194 0 245 -167q30 78 95.5 122.5t157.5 44.5q135 0 204 -76.5t69 -212.5v-304h-125v285q0 62 -18 110q-38 97 -171 97q-91 0 -140 -58.5t-49 -157.5v-276h-125v291q0 56 -16 101q-33 100 -166 100q-97 0 -149 -60
t-52 -168v-264z" />
    <glyph glyph-name="n" unicode="n" horiz-adv-x="860" 
d="M210 0h-126v571h109l11 -144q34 78 105.5 122t173.5 44q97 0 163 -36q134 -73 134 -252v-305h-125v278q0 68 -21 113q-43 101 -189 101q-115 0 -175 -62t-60 -178v-252z" />
    <glyph glyph-name="o" unicode="o" horiz-adv-x="863" 
d="M427 -19q-375 0 -375 302q0 98 48 167q100 143 331 143q112 0 199 -36q182 -76 182 -274q0 -143 -97.5 -222.5t-287.5 -79.5zM430 85q255 0 255 198q0 102 -66 155.5t-186 53.5q-119 0 -186.5 -53t-67.5 -156q0 -198 251 -198z" />
    <glyph glyph-name="p" unicode="p" horiz-adv-x="884" 
d="M487 -17q-207 0 -281 122v-309h-122v775h107l10 -120q40 68 115.5 104.5t176.5 36.5q103 0 179 -36q160 -75 160 -273q0 -99 -47 -167q-47 -65 -124 -99t-174 -34zM451 84q255 0 255 199q0 101 -65.5 155t-185.5 54q-118 0 -186 -56t-68 -153q0 -98 64 -148.5t186 -50.5z
" />
    <glyph glyph-name="q" unicode="q" horiz-adv-x="884" 
d="M678 -204v312q-76 -125 -284 -125q-96 0 -175 32q-167 68 -167 268q0 97 43 167q90 142 299 142q101 0 175 -36.5t113 -102.5l11 118h107v-775h-122zM430 84q123 0 188 51t65 148t-68 153t-187 56t-184.5 -54.5t-65.5 -154.5q0 -101 61.5 -150t190.5 -49z" />
    <glyph glyph-name="r" unicode="r" horiz-adv-x="567" 
d="M84 0v571h108l15 -178q52 182 261 182h62v-122h-66q-96 0 -152 -28q-54 -26 -78 -82.5t-24 -150.5v-192h-126z" />
    <glyph glyph-name="s" unicode="s" horiz-adv-x="776" 
d="M404 -19q-336 0 -380 212h142q17 -64 76.5 -89t167.5 -25q78 0 121 12q81 22 81 79q0 27 -20 41q-37 27 -225 33q-117 5 -183 20q-70 17 -102 51t-32 90q0 85 78.5 136.5t228.5 51.5q157 0 247.5 -48t122.5 -151h-134q-34 107 -236 107q-69 0 -111 -12q-75 -22 -75 -75
q0 -24 18 -41q32 -27 219 -34q125 -5 195 -22q71 -17 101.5 -51t30.5 -94q0 -55 -36 -97q-76 -94 -295 -94z" />
    <glyph glyph-name="t" unicode="t" horiz-adv-x="568" 
d="M533 0h-109q-96 0 -155 25q-56 26 -80.5 84.5t-24.5 161.5v194h-155v100h32q56 2 68 3q34 4 45 14t17 39q8 35 8 109h103v-159h251v-106h-251v-175q0 -75 14 -117q14 -37 50 -50.5t108 -13.5h79v-109z" />
    <glyph glyph-name="u" unicode="u" horiz-adv-x="840" 
d="M638 150q-29 -80 -98.5 -124.5t-172.5 -44.5q-142 0 -215 74t-73 211v305h125v-282q0 -102 50 -153t160 -51q103 0 159.5 59t56.5 165v262h126v-571h-107z" />
    <glyph glyph-name="v" unicode="v" horiz-adv-x="783" 
d="M326 0l-313 571h138l238 -445l247 445h139l-331 -571h-118z" />
    <glyph glyph-name="w" unicode="w" horiz-adv-x="1133" 
d="M560 439l-227 -439h-109l-208 571h129l149 -428l219 428h101l202 -432l175 432h125l-241 -571h-108z" />
    <glyph glyph-name="x" unicode="x" horiz-adv-x="760" 
d="M384 227l-226 -227h-159l309 299l-277 272h156l200 -206l203 206h154l-279 -273l295 -298h-157z" />
    <glyph glyph-name="y" unicode="y" horiz-adv-x="792" 
d="M41 -255l-1 109h62q87 0 126 27q40 27 89 111l19 32l-324 547h137l250 -429l2 -6l3 6l247 429h135l-354 -603q-85 -145 -144 -185q-34 -22 -77 -30t-115 -8h-55z" />
    <glyph glyph-name="z" unicode="z" horiz-adv-x="747" 
d="M33 94l511 383h-484v94h652v-92l-506 -381h511v-98l-684 -1v95z" />
    <glyph glyph-name="braceleft" unicode="{" horiz-adv-x="524" 
d="M314 -202q-98 0 -140.5 36.5t-42.5 105.5q0 34 39 120q39 84 39 109q0 71 -87 71h-98v108h93q82 0 82 69q0 29 -30 97q-31 69 -31 108q0 142 183 142h154v-98h-90q-64 0 -90.5 -21.5t-26.5 -62.5q0 -21 31 -83q30 -62 30 -101q0 -50 -33 -75.5t-112 -24.5v-6q60 0 89 -15
q62 -27 62 -89q0 -39 -35 -113t-35 -102q0 -78 115 -78h95v-97h-161z" />
    <glyph glyph-name="bar" unicode="|" horiz-adv-x="337" 
d="M107 -103v879h123v-879h-123z" />
    <glyph glyph-name="braceright" unicode="}" horiz-adv-x="524" 
d="M48 -105h94q117 0 117 84q0 15 -33 97q-34 72 -34 114q0 25 13 51q31 50 134 50v5q-143 0 -143 104q0 35 15 66q4 9 15 33t15.5 35t9 27t4.5 27q0 38 -25.5 58t-89.5 20h-92v98h158q184 0 184 -143q0 -38 -36 -106q-37 -67 -37 -96q0 -71 81 -71h102v-108h-93
q-43 0 -66.5 -18t-23.5 -51q0 -27 36 -110t36 -122q0 -69 -42.5 -105t-139.5 -36h-159v97z" />
    <glyph glyph-name="asciitilde" unicode="~" horiz-adv-x="676" 
d="M76 412q0 53 15 87q31 85 134 85q57 0 120 -44q64 -45 101 -45q61 0 63 86h85q0 -84 -34.5 -129t-113.5 -45q-61 0 -121 45q-63 44 -101 44q-62 0 -64 -84h-84z" />
    <glyph glyph-name="uni00A0" unicode="&#xa0;" horiz-adv-x="289" 
 />
    <glyph glyph-name="exclamdown" unicode="&#xa1;" horiz-adv-x="389" 
d="M190 591q50 0 71 -19t21 -66q0 -84 -92 -84q-91 0 -91 84q0 85 91 85zM116 -139v114q0 92 6 170q10 130 24 197q27 -3 42 -3q22 0 43 3q5 -15 11 -67q20 -127 20 -300v-114h-146z" />
    <glyph glyph-name="cent" unicode="&#xa2;" horiz-adv-x="844" 
d="M804 243q-18 -120 -100 -184t-216 -76v-131h-119v131q-324 24 -324 300q0 91 41 154q84 134 283 153v122h119v-121q83 -6 149 -36q143 -60 166 -221h-129q-34 156 -241 156q-123 0 -192 -51t-69 -154q0 -199 260 -199q104 0 163 36.5t80 120.5h129z" />
    <glyph glyph-name="sterling" unicode="&#xa3;" horiz-adv-x="859" 
d="M628 -13q-49 0 -94 14q-48 15 -170 81q-63 -96 -179 -96q-159 0 -159 120q0 50 38.5 83t107.5 33q67 0 137 -31q-1 55 -61 125h-191v90h135q-48 61 -48 128q0 56 32 103q71 100 247 100q135 0 217 -57.5t105 -167.5l-138 -1q-24 119 -180 119q-75 0 -114.5 -31.5
t-39.5 -82.5q0 -54 42 -110h237v-90h-194q38 -63 38 -124q0 -23 -4 -40q46 -23 68 -33t59 -21t69 -11q65 0 89 26.5t24 96.5v17h128v-26q0 -115 -47 -164.5t-154 -49.5zM187 57q81 0 109 62q-70 35 -118 35q-31 0 -47 -14t-16 -34t18.5 -34.5t53.5 -14.5z" />
    <glyph glyph-name="currency" unicode="&#xa4;" horiz-adv-x="934" 
d="M472 55q-98 0 -176 43l-140 -141l-95 90l140 141q-45 73 -45 169v2q0 95 44 167l-142 136l89 94l145 -139q76 46 180 46q102 0 178 -46l141 140l93 -89l-141 -142q45 -73 45 -168v-1q0 -91 -44 -165l133 -130l-88 -93l-136 133q-81 -47 -181 -47zM472 168q56 0 104 23
q97 50 97 165v3q0 57 -26 100q-55 92 -175 92q-60 0 -103 -24q-96 -50 -96 -168v-3q0 -56 25 -100q55 -88 174 -88z" />
    <glyph glyph-name="yen" unicode="&#xa5;" horiz-adv-x="840" 
d="M473 119v-119h-128v119h-216v88h216v89h-214v92h214v3l-326 320h161l233 -235l248 235h161l-349 -321v-2h232v-92h-232v-89h230v-88h-230z" />
    <glyph glyph-name="brokenbar" unicode="&#xa6;" horiz-adv-x="337" 
d="M107 776h123v-376h-123v376zM230 296v-399h-123v399h123z" />
    <glyph glyph-name="section" unicode="&#xa7;" horiz-adv-x="925" 
d="M477 -147q-344 0 -379 233h137q14 -74 77 -105t171 -31q76 0 121 14q81 26 81 86q0 55 -100 79q-35 8 -221 34q-147 20 -220 52q-101 43 -101 132q0 112 164 140q-89 46 -89 132q0 59 35 108q76 103 280 103q159 0 249 -52.5t121 -164.5h-133q-36 124 -237 124
q-76 0 -114 -15q-78 -26 -78 -93q0 -54 98 -80q22 -6 216 -35q145 -20 215 -53q98 -44 98 -136q0 -54 -39 -87t-117 -48q96 -46 96 -136q0 -57 -35 -102q-75 -99 -296 -99zM485 247q90 -12 150 -29q56 11 84.5 37.5t28.5 59.5q0 58 -99 82q-21 6 -49.5 11t-50 8t-59 7.5
t-57.5 7.5q-98 13 -160 31q-110 -18 -110 -89q0 -62 101 -88q39 -11 221 -38z" />
    <glyph glyph-name="dieresis" unicode="&#xa8;" horiz-adv-x="694" 
d="M224 671q-44 0 -62.5 17t-18.5 58q0 40 20 58t61 18t60.5 -18t19.5 -58t-19.5 -57.5t-60.5 -17.5zM464 671q-44 0 -62 17t-18 58q0 40 20 58t61 18t60.5 -18t19.5 -58t-19.5 -57.5t-61.5 -17.5z" />
    <glyph glyph-name="copyright" unicode="&#xa9;" horiz-adv-x="982" 
d="M491 -19q-124 0 -229 39q-216 86 -216 334q0 174 127 280q124 104 317 104q192 0 317 -102q129 -104 129 -282q0 -129 -58 -211q-114 -162 -387 -162zM491 64q102 0 186 31q170 68 170 259q0 97 -46 165q-91 136 -311 136q-103 0 -185 -35q-170 -75 -170 -266
q0 -98 44 -163q89 -127 312 -127zM721 333q-24 -148 -234 -148q-221 0 -221 172q0 55 28 95q60 83 195 83q208 0 231 -148h-90q-14 69 -139 69q-66 0 -103 -25.5t-37 -72.5q0 -95 137 -95q131 0 143 70h90z" />
    <glyph glyph-name="ordfeminine" unicode="&#xaa;" horiz-adv-x="570" 
d="M436 406q-68 -105 -242 -105q-169 0 -169 109v1q0 67 57 98q20 12 46 19q61 16 173 21q64 6 80 8q50 9 50 40q0 60 -130 60q-84 0 -121.5 -21t-44.5 -64h-101q19 158 263 158q118 0 173 -37t55 -115l-1 -264h-81zM218 373q59 0 111 21q49 21 76 52.5t27 65.5v15
q-21 -30 -125 -37q-120 -7 -154 -28q-25 -16 -25 -42q0 -47 90 -47z" />
    <glyph glyph-name="guillemotleft" unicode="&#xab;" horiz-adv-x="783" 
d="M301 79l-207 221v20l197 223h116l-198 -226l217 -238h-125zM608 79l-215 224v21l196 219h117l-197 -223l224 -241h-125z" />
    <glyph glyph-name="logicalnot" unicode="&#xac;" horiz-adv-x="764" 
d="M588 435l-5 6h-552v111h676v-426h-119v309z" />
    <glyph glyph-name="uni00AD" unicode="&#xad;" horiz-adv-x="719" 
d="M644 263h-570v123h570v-123z" />
    <glyph glyph-name="registered" unicode="&#xae;" horiz-adv-x="560" 
d="M281 273q-60 0 -113 25q-109 55 -109 192v11q0 69 30 118q61 104 190 104q62 0 112 -26q108 -58 108 -193v-12q0 -68 -29 -117q-62 -102 -189 -102zM281 326q78 0 121.5 44t43.5 126v3q0 82 -45 127.5t-122 45.5t-121.5 -46.5t-44.5 -128.5v-3q0 -81 45 -124.5t123 -43.5
zM244 462v-73h-50v226h94q91 0 91 -71q0 -47 -48 -61q40 -7 40 -57v-22q0 -10 6 -15h-51q-5 4 -5 15v22q0 21 -7.5 28.5t-32.5 7.5h-37zM281 506q48 -2 48 36q0 17 -10.5 23.5t-36.5 6.5h-38v-66h37z" />
    <glyph glyph-name="macron" unicode="&#xaf;" horiz-adv-x="691" 
d="M148 771h397v-92h-397v92z" />
    <glyph glyph-name="degree" unicode="&#xb0;" horiz-adv-x="425" 
d="M211 389q-86 0 -133.5 43.5t-47.5 121.5q0 50 24 86q49 80 160 80q82 0 131.5 -45.5t49.5 -120.5q0 -76 -49 -120.5t-135 -44.5zM211 469q42 0 67 22.5t25 62.5q0 39 -24.5 61t-66.5 22q-43 0 -66.5 -21t-23.5 -62t23.5 -63t65.5 -22z" />
    <glyph glyph-name="plusminus" unicode="&#xb1;" horiz-adv-x="682" 
d="M397 414v-181h-109v181h-188v110h188v179h109v-179h194v-110h-194zM102 40v109h490v-109h-490z" />
    <glyph glyph-name="uni00B2" unicode="&#xb2;" horiz-adv-x="411" 
d="M23 350v35q0 80 70 115q32 16 130 43q70 20 70 54q0 48 -80 48q-95 0 -95 -76h-89q4 148 185 148q84 0 125.5 -32.5t41.5 -85.5q0 -40 -22 -63q-34 -36 -128 -59q-94 -24 -115 -52h266v-75h-359z" />
    <glyph glyph-name="uni00B3" unicode="&#xb3;" horiz-adv-x="427" 
d="M210 342q-97 0 -141.5 33.5t-46.5 107.5h91q1 -38 25 -54.5t80 -16.5q88 0 88 47q0 21 -16 30t-54 9h-73v66h70q64 0 64 38q0 42 -78 42q-98 0 -98 -66h-90q0 66 48.5 102.5t140.5 36.5q83 0 125 -27.5t42 -73.5q0 -36 -20.5 -53.5t-60.5 -23.5q90 -13 90 -85
q0 -112 -186 -112z" />
    <glyph glyph-name="acute" unicode="&#xb4;" horiz-adv-x="691" 
d="M444 899h138l-218 -223h-103z" />
    <glyph glyph-name="paragraph" unicode="&#xb6;" horiz-adv-x="874" 
d="M433 0v208h-54q-173 -1 -255.5 60.5t-82.5 186.5q0 77 35 136q74 120 317 120h384v-711h-115v610h-114v-610h-115zM433 309v301h-40q-124 0 -179 -36.5t-55 -116.5q0 -78 53 -113t174 -35h47z" />
    <glyph glyph-name="periodcentered" unicode="&#xb7;" horiz-adv-x="355" 
d="M177 235q-50 0 -71.5 19t-21.5 66q0 86 93 86q92 0 92 -86q0 -85 -92 -85z" />
    <glyph glyph-name="cedilla" unicode="&#xb8;" horiz-adv-x="691" 
d="M341 -291q-98 0 -146.5 36t-61.5 103h104q5 -32 32 -50t71 -18q93 0 93 61q0 26 -22 39t-76 13h-55v124h91v-59q151 -4 151 -114q0 -62 -47 -98.5t-134 -36.5z" />
    <glyph glyph-name="uni00B9" unicode="&#xb9;" horiz-adv-x="304" 
d="M19 350v80h94v137h-75v67q72 4 87 76h70v-280h91v-80h-267z" />
    <glyph glyph-name="ordmasculine" unicode="&#xba;" horiz-adv-x="605" 
d="M300 305q-266 0 -266 209q0 70 35 117q70 100 233 100q82 0 141 -25q127 -52 127 -190q0 -100 -68 -155.5t-202 -55.5zM302 391q168 0 168 125q0 62 -44 96t-122 34q-77 0 -123 -33.5t-46 -96.5q0 -125 167 -125z" />
    <glyph glyph-name="guillemotright" unicode="&#xbb;" horiz-adv-x="783" 
d="M60 79l224 240l-197 224h116l197 -219v-21l-215 -224h-125zM367 79l217 238l-197 226h114l199 -223v-20l-207 -221h-126z" />
    <glyph glyph-name="onequarter" unicode="&#xbc;" horiz-adv-x="1129" 
d="M619 435l286 320l127 -107l-374 -248zM144 350v80h94v137h-75v67q72 4 87 76h70v-280h91v-80h-267zM916 76v-76h-79v76h-246v61l250 223h75v-216h76v-68h-76zM546 313l-301 -345l-129 116l394 263zM690 144h147v119l1 13l-3 -4z" />
    <glyph glyph-name="onehalf" unicode="&#xbd;" horiz-adv-x="1129" 
d="M619 435l286 320l127 -107l-374 -248zM144 350v80h94v137h-75v67q72 4 87 76h70v-280h91v-80h-267zM653 0v35q0 80 70 115q32 16 130 43q70 20 70 54q0 48 -80 48q-95 0 -95 -76h-89q4 148 185 148q84 0 125.5 -32.5t41.5 -85.5q0 -40 -22 -63q-34 -36 -128 -59
q-94 -24 -115 -52h266v-75h-359zM546 313l-301 -345l-129 116l394 263z" />
    <glyph glyph-name="threequarters" unicode="&#xbe;" horiz-adv-x="1129" 
d="M619 435l286 320l127 -107l-374 -248zM277 342q-97 0 -141.5 33.5t-46.5 107.5h91q1 -38 25 -54.5t80 -16.5q88 0 88 47q0 21 -16 30t-54 9h-73v66h70q64 0 64 38q0 42 -78 42q-98 0 -98 -66h-90q0 66 48.5 102.5t140.5 36.5q83 0 125 -27.5t42 -73.5q0 -36 -20.5 -53.5
t-60.5 -23.5q90 -13 90 -85q0 -112 -186 -112zM917 76v-76h-79v76h-246v61l250 223h75v-216h76v-68h-76zM546 313l-301 -345l-129 116l394 263zM691 144h147v119l1 13l-3 -4z" />
    <glyph glyph-name="questiondown" unicode="&#xbf;" horiz-adv-x="887" 
d="M495 532q50 0 71 -19t21 -66q0 -85 -92 -85q-46 0 -69 20.5t-23 65.5q0 84 92 84zM438 318q13 -11 59 -11q49 0 62 11q0 -2 0.5 -16.5t0.5 -23.5v-21q0 -45 -25 -75q-38 -41 -145 -74q-40 -13 -68 -24q-74 -27 -74 -80q0 -33 19 -58q38 -49 198 -49q127 0 187 38.5
t60 127.5h124q0 -271 -371 -271q-124 0 -200 26q-142 50 -142 182q0 86 56 128q35 28 119 54q52 16 65 21q69 25 73 77z" />
    <glyph glyph-name="Agrave" unicode="&#xc0;" horiz-adv-x="895" 
d="M179 1013h141l181 -209h-104zM660 178h-426l-89 -178h-134l369 711h129l375 -711h-132zM444 598l-159 -318h323z" />
    <glyph glyph-name="Aacute" unicode="&#xc1;" horiz-adv-x="895" 
d="M574 1028h138l-218 -223h-103zM660 178h-426l-89 -178h-134l369 711h129l375 -711h-132zM444 598l-159 -318h323z" />
    <glyph glyph-name="Acircumflex" unicode="&#xc2;" horiz-adv-x="895" 
d="M441 929l-112 -134h-114l178 209h95l179 -209h-113zM660 178h-426l-89 -178h-134l369 711h129l375 -711h-132zM444 598l-159 -318h323z" />
    <glyph glyph-name="Atilde" unicode="&#xc3;" horiz-adv-x="895" 
d="M210 793q-1 70 32 111t103 41q53 0 112 -35q58 -36 92 -36q57 0 58 68h77q0 -74 -31 -113t-104 -39q-53 0 -112 35t-93 35q-29 0 -42.5 -16.5t-15.5 -50.5h-76zM660 178h-426l-89 -178h-134l369 711h129l375 -711h-132zM444 598l-159 -318h323z" />
    <glyph glyph-name="Adieresis" unicode="&#xc4;" horiz-adv-x="895" 
d="M323 797q-44 0 -62.5 17t-18.5 58q0 40 20 58t61 18t60.5 -18t19.5 -58t-19.5 -57.5t-60.5 -17.5zM563 797q-44 0 -62 17t-18 58q0 40 20 58t61 18t60.5 -18t19.5 -58t-19.5 -57.5t-61.5 -17.5zM660 178h-426l-89 -178h-134l369 711h129l375 -711h-132zM444 598
l-159 -318h323z" />
    <glyph glyph-name="Aring" unicode="&#xc5;" horiz-adv-x="895" 
d="M449 786q-65 0 -102.5 37t-37.5 101q0 65 38.5 103t101.5 38q66 0 104.5 -37t38.5 -104q0 -62 -39 -100t-104 -38zM449 863q26 0 45.5 15.5t19.5 45.5q0 32 -17.5 49t-47.5 17q-29 0 -46 -17t-17 -49q0 -61 63 -61zM660 178h-426l-89 -178h-134l369 711h129l375 -711
h-132zM444 598l-159 -318h323z" />
    <glyph glyph-name="AE" unicode="&#xc6;" horiz-adv-x="1324" 
d="M649 214h-371l-155 -214h-138l529 711h750v-106h-589l43 -195h461v-105h-437l43 -196h501v-109h-590zM562 606l-208 -287h272z" />
    <glyph glyph-name="Ccedilla" unicode="&#xc7;" horiz-adv-x="937" 
d="M491 -309q-98 0 -146.5 36t-61.5 103h104q5 -32 32 -50t71 -18q93 0 93 61q0 26 -22 39t-76 13h-55v107q-179 10 -276.5 101.5t-97.5 263.5v3q0 119 56 202q55 85 152.5 130t224.5 45q100 0 190 -31q181 -67 217 -251h-132q-39 170 -274 170q-145 0 -225.5 -67
t-80.5 -199v-1q0 -127 76.5 -191t222.5 -64q249 0 284 189h133q-23 -132 -117.5 -211.5t-261.5 -88.5v-42q151 -4 151 -114q0 -62 -47 -98.5t-134 -36.5z" />
    <glyph glyph-name="Egrave" unicode="&#xc8;" 
d="M174 1013h141l181 -209h-104zM786 0h-690v711h670v-105h-551v-202h466v-104h-466v-191h571v-109z" />
    <glyph glyph-name="Eacute" unicode="&#xc9;" 
d="M570 1028h138l-218 -223h-103zM786 0h-690v711h670v-105h-551v-202h466v-104h-466v-191h571v-109z" />
    <glyph glyph-name="Ecircumflex" unicode="&#xca;" 
d="M436 938l-112 -134h-114l178 209h95l179 -209h-113zM786 0h-690v711h670v-105h-551v-202h466v-104h-466v-191h571v-109z" />
    <glyph glyph-name="Edieresis" unicode="&#xcb;" 
d="M319 800q-44 0 -62.5 17t-18.5 58q0 40 20 58t61 18t60.5 -18t19.5 -58t-19.5 -57.5t-60.5 -17.5zM559 800q-44 0 -62 17t-18 58q0 40 20 58t61 18t60.5 -18t19.5 -58t-19.5 -57.5t-61.5 -17.5zM786 0h-690v711h670v-105h-551v-202h466v-104h-466v-191h571v-109z" />
    <glyph glyph-name="Igrave" unicode="&#xcc;" horiz-adv-x="614" 
d="M47 1013h141l181 -209h-104zM56 0v115h192v485h-192v111h502v-111h-192v-485h192v-115h-502z" />
    <glyph glyph-name="Iacute" unicode="&#xcd;" horiz-adv-x="614" 
d="M442 1028h138l-218 -223h-103zM56 0v115h192v485h-192v111h502v-111h-192v-485h192v-115h-502z" />
    <glyph glyph-name="Icircumflex" unicode="&#xce;" horiz-adv-x="614" 
d="M309 938l-112 -134h-114l178 209h95l179 -209h-113zM56 0v115h192v485h-192v111h502v-111h-192v-485h192v-115h-502z" />
    <glyph glyph-name="Idieresis" unicode="&#xcf;" horiz-adv-x="614" 
d="M191 800q-44 0 -62.5 17t-18.5 58q0 40 20 58t61 18t60.5 -18t19.5 -58t-19.5 -57.5t-60.5 -17.5zM431 800q-44 0 -62 17t-18 58q0 40 20 58t61 18t60.5 -18t19.5 -58t-19.5 -57.5t-61.5 -17.5zM56 0v115h192v485h-192v111h502v-111h-192v-485h192v-115h-502z" />
    <glyph glyph-name="Eth" unicode="&#xd0;" horiz-adv-x="937" 
d="M121 0v295h-133v109h133v307h321q131 0 230 -36q206 -75 206 -319v-3q0 -127 -52 -204q-96 -149 -371 -149h-334zM243 295v-187h206q96 0 167 23q136 47 136 224v2q0 132 -78 189t-236 57h-195v-199h193v-109h-193z" />
    <glyph glyph-name="Ntilde" unicode="&#xd1;" horiz-adv-x="936" 
d="M242 802q-1 70 32 111t103 41q53 0 112 -35q58 -36 92 -36q57 0 58 68h77q0 -74 -31 -113t-104 -39q-53 0 -112 35t-93 35q-29 0 -42.5 -16.5t-15.5 -50.5h-76zM216 557v-557h-120v711h126l473 -514l28 -35v549h119v-711h-117l-482 524z" />
    <glyph glyph-name="Ograve" unicode="&#xd2;" horiz-adv-x="955" 
d="M212 1027h141l181 -209h-104zM476 -19q-118 0 -218 39q-203 86 -203 328v3q0 123 55 204q55 84 149.5 128t216.5 44q118 0 216 -43q208 -94 208 -332v-5q0 -124 -56 -205q-109 -161 -368 -161zM475 93q88 0 155 26q143 54 143 229q0 94 -37 152q-73 115 -260 115
q-140 0 -217 -66t-77 -200v-1q0 -87 37 -143q74 -112 256 -112z" />
    <glyph glyph-name="Oacute" unicode="&#xd3;" horiz-adv-x="955" 
d="M606 1039h138l-218 -223h-103zM476 -19q-118 0 -218 39q-203 86 -203 328v3q0 123 55 204q55 84 149.5 128t216.5 44q118 0 216 -43q208 -94 208 -332v-5q0 -124 -56 -205q-109 -161 -368 -161zM475 93q88 0 155 26q143 54 143 229q0 94 -37 152q-73 115 -260 115
q-140 0 -217 -66t-77 -200v-1q0 -87 37 -143q74 -112 256 -112z" />
    <glyph glyph-name="Ocircumflex" unicode="&#xd4;" horiz-adv-x="955" 
d="M474 950l-112 -134h-114l178 209h95l179 -209h-113zM476 -19q-118 0 -218 39q-203 86 -203 328v3q0 123 55 204q55 84 149.5 128t216.5 44q118 0 216 -43q208 -94 208 -332v-5q0 -124 -56 -205q-109 -161 -368 -161zM475 93q88 0 155 26q143 54 143 229q0 94 -37 152
q-73 115 -260 115q-140 0 -217 -66t-77 -200v-1q0 -87 37 -143q74 -112 256 -112z" />
    <glyph glyph-name="Otilde" unicode="&#xd5;" horiz-adv-x="955" 
d="M230 812q-1 70 32 111t103 41q53 0 112 -35q58 -36 92 -36q57 0 58 68h77q0 -74 -31 -113t-104 -39q-53 0 -112 35t-93 35q-29 0 -42.5 -16.5t-15.5 -50.5h-76zM476 -19q-118 0 -218 39q-203 86 -203 328v3q0 123 55 204q55 84 149.5 128t216.5 44q118 0 216 -43
q208 -94 208 -332v-5q0 -124 -56 -205q-109 -161 -368 -161zM475 93q88 0 155 26q143 54 143 229q0 94 -37 152q-73 115 -260 115q-140 0 -217 -66t-77 -200v-1q0 -87 37 -143q74 -112 256 -112z" />
    <glyph glyph-name="Odieresis" unicode="&#xd6;" horiz-adv-x="955" 
d="M357 815q-44 0 -62.5 17t-18.5 58q0 40 20 58t61 18t60.5 -18t19.5 -58t-19.5 -57.5t-60.5 -17.5zM597 815q-44 0 -62 17t-18 58q0 40 20 58t61 18t60.5 -18t19.5 -58t-19.5 -57.5t-61.5 -17.5zM476 -19q-118 0 -218 39q-203 86 -203 328v3q0 123 55 204q55 84 149.5 128
t216.5 44q118 0 216 -43q208 -94 208 -332v-5q0 -124 -56 -205q-109 -161 -368 -161zM475 93q88 0 155 26q143 54 143 229q0 94 -37 152q-73 115 -260 115q-140 0 -217 -66t-77 -200v-1q0 -87 37 -143q74 -112 256 -112z" />
    <glyph glyph-name="multiply" unicode="&#xd7;" horiz-adv-x="672" 
d="M333 298l-199 -199l-70 75l198 198l-176 181l72 76l177 -184l186 186l72 -73l-187 -187l190 -197l-71 -73z" />
    <glyph glyph-name="Oslash" unicode="&#xd8;" horiz-adv-x="955" 
d="M476 -19q-96 0 -175 23l-63 -94h-108l88 130q-163 93 -163 308v3q0 123 55 204q55 84 149.5 128t216.5 44q90 0 171 -25l59 90h108l-83 -128q169 -100 169 -312v-5q0 -124 -56 -205q-109 -161 -368 -161zM182 348q0 -143 104 -209l299 464q-50 12 -109 12
q-140 0 -217 -66t-77 -200v-1zM475 93q88 0 155 26q143 54 143 229q0 155 -106 221l-300 -464q51 -12 108 -12z" />
    <glyph glyph-name="Ugrave" unicode="&#xd9;" horiz-adv-x="910" 
d="M201 984h141l181 -209h-104zM456 -20q-192 0 -283.5 95.5t-91.5 306.5v329h129v-326q0 -152 59 -219t188 -67q128 0 185.5 66t57.5 221v325h129v-328q0 -140 -43 -232q-85 -171 -330 -171z" />
    <glyph glyph-name="Uacute" unicode="&#xda;" horiz-adv-x="910" 
d="M580 1011h138l-218 -223h-103zM456 -20q-192 0 -283.5 95.5t-91.5 306.5v329h129v-326q0 -152 59 -219t188 -67q128 0 185.5 66t57.5 221v325h129v-328q0 -140 -43 -232q-85 -171 -330 -171z" />
    <glyph glyph-name="Ucircumflex" unicode="&#xdb;" horiz-adv-x="910" 
d="M459 921l-112 -134h-114l178 209h95l179 -209h-113zM456 -20q-192 0 -283.5 95.5t-91.5 306.5v329h129v-326q0 -152 59 -219t188 -67q128 0 185.5 66t57.5 221v325h129v-328q0 -140 -43 -232q-85 -171 -330 -171z" />
    <glyph glyph-name="Udieresis" unicode="&#xdc;" horiz-adv-x="910" 
d="M341 783q-44 0 -62.5 17t-18.5 58q0 40 20 58t61 18t60.5 -18t19.5 -58t-19.5 -57.5t-60.5 -17.5zM581 783q-44 0 -62 17t-18 58q0 40 20 58t61 18t60.5 -18t19.5 -58t-19.5 -57.5t-61.5 -17.5zM456 -20q-192 0 -283.5 95.5t-91.5 306.5v329h129v-326q0 -152 59 -219
t188 -67q128 0 185.5 66t57.5 221v325h129v-328q0 -140 -43 -232q-85 -171 -330 -171z" />
    <glyph glyph-name="Yacute" unicode="&#xdd;" horiz-adv-x="811" 
d="M533 999h138l-218 -223h-103zM322 0v295l-326 416h152l241 -315l261 315h151l-350 -418v-293h-129z" />
    <glyph glyph-name="Thorn" unicode="&#xde;" horiz-adv-x="836" 
d="M218 128v-128h-122v711h122v-117h219q128 0 207 -25q79 -24 115 -75.5t36 -135.5q0 -231 -343 -230h-234zM218 489v-256h227q122 0 174 27t52 99q0 52 -25 82q-24 27 -73.5 37.5t-134.5 10.5h-220z" />
    <glyph glyph-name="germandbls" unicode="&#xdf;" horiz-adv-x="883" 
d="M526 -7q-98 0 -160 15v102q81 -15 139 -15q113 0 160 30t47 94q0 62 -52 88t-173 26h-99v95h72q110 0 164 21t54 77q0 61 -50 89.5t-168 28.5q-132 0 -190 -38t-58 -125v-481h-126v487q0 258 373 258q346 0 346 -203q0 -73 -43 -109.5t-128 -49.5q104 -10 155.5 -52
t51.5 -128q0 -110 -74.5 -160t-240.5 -50z" />
    <glyph glyph-name="agrave" unicode="&#xe0;" horiz-adv-x="831" 
d="M163 895h141l181 -209h-104zM637 157q-24 -49 -70 -89q-101 -87 -279 -87q-237 0 -237 159v1q0 92 81 136q29 17 64 27q71 22 243 32q67 4 116 11q42 6 59.5 19t17.5 37v1q0 24 -18 46q-40 51 -178 51q-124 0 -179.5 -31.5t-64.5 -101.5h-128q14 115 104 170t258 55
q167 0 246 -51.5t79 -165.5v-376h-102zM322 71q138 0 227 68q85 65 85 143v24q-29 -38 -184 -47q-179 -10 -227 -41q-40 -24 -40 -67v-1q0 -79 139 -79z" />
    <glyph glyph-name="aacute" unicode="&#xe1;" horiz-adv-x="831" 
d="M559 911h138l-218 -223h-103zM637 157q-24 -49 -70 -89q-101 -87 -279 -87q-237 0 -237 159v1q0 92 81 136q29 17 64 27q71 22 243 32q67 4 116 11q42 6 59.5 19t17.5 37v1q0 24 -18 46q-40 51 -178 51q-124 0 -179.5 -31.5t-64.5 -101.5h-128q14 115 104 170t258 55
q167 0 246 -51.5t79 -165.5v-376h-102zM322 71q138 0 227 68q85 65 85 143v24q-29 -38 -184 -47q-179 -10 -227 -41q-40 -24 -40 -67v-1q0 -79 139 -79z" />
    <glyph glyph-name="acircumflex" unicode="&#xe2;" horiz-adv-x="831" 
d="M425 821l-112 -134h-114l178 209h95l179 -209h-113zM637 157q-24 -49 -70 -89q-101 -87 -279 -87q-237 0 -237 159v1q0 92 81 136q29 17 64 27q71 22 243 32q67 4 116 11q42 6 59.5 19t17.5 37v1q0 24 -18 46q-40 51 -178 51q-124 0 -179.5 -31.5t-64.5 -101.5h-128
q14 115 104 170t258 55q167 0 246 -51.5t79 -165.5v-376h-102zM322 71q138 0 227 68q85 65 85 143v24q-29 -38 -184 -47q-179 -10 -227 -41q-40 -24 -40 -67v-1q0 -79 139 -79z" />
    <glyph glyph-name="atilde" unicode="&#xe3;" horiz-adv-x="831" 
d="M182 680q-1 70 32 111t103 41q53 0 112 -35q58 -36 92 -36q57 0 58 68h77q0 -74 -31 -113t-104 -39q-53 0 -112 35t-93 35q-29 0 -42.5 -16.5t-15.5 -50.5h-76zM637 157q-24 -49 -70 -89q-101 -87 -279 -87q-237 0 -237 159v1q0 92 81 136q29 17 64 27q71 22 243 32
q67 4 116 11q42 6 59.5 19t17.5 37v1q0 24 -18 46q-40 51 -178 51q-124 0 -179.5 -31.5t-64.5 -101.5h-128q14 115 104 170t258 55q167 0 246 -51.5t79 -165.5v-376h-102zM322 71q138 0 227 68q85 65 85 143v24q-29 -38 -184 -47q-179 -10 -227 -41q-40 -24 -40 -67v-1
q0 -79 139 -79z" />
    <glyph glyph-name="adieresis" unicode="&#xe4;" horiz-adv-x="831" 
d="M308 683q-44 0 -62.5 17t-18.5 58q0 40 20 58t61 18t60.5 -18t19.5 -58t-19.5 -57.5t-60.5 -17.5zM548 683q-44 0 -62 17t-18 58q0 40 20 58t61 18t60.5 -18t19.5 -58t-19.5 -57.5t-61.5 -17.5zM637 157q-24 -49 -70 -89q-101 -87 -279 -87q-237 0 -237 159v1
q0 92 81 136q29 17 64 27q71 22 243 32q67 4 116 11q42 6 59.5 19t17.5 37v1q0 24 -18 46q-40 51 -178 51q-124 0 -179.5 -31.5t-64.5 -101.5h-128q14 115 104 170t258 55q167 0 246 -51.5t79 -165.5v-376h-102zM322 71q138 0 227 68q85 65 85 143v24q-29 -38 -184 -47
q-179 -10 -227 -41q-40 -24 -40 -67v-1q0 -79 139 -79z" />
    <glyph glyph-name="aring" unicode="&#xe5;" horiz-adv-x="831" 
d="M424 682q-66 0 -103 37t-37 101q0 65 38.5 103t101.5 38q66 0 104.5 -37t38.5 -104q0 -62 -39 -100t-104 -38zM424 759q26 0 45.5 15.5t19.5 45.5q0 32 -17.5 49t-47.5 17q-29 0 -46 -17t-17 -49q0 -61 63 -61zM637 157q-24 -49 -70 -89q-101 -87 -279 -87
q-237 0 -237 159v1q0 92 81 136q29 17 64 27q71 22 243 32q67 4 116 11q42 6 59.5 19t17.5 37v1q0 24 -18 46q-40 51 -178 51q-124 0 -179.5 -31.5t-64.5 -101.5h-128q14 115 104 170t258 55q167 0 246 -51.5t79 -165.5v-376h-102zM322 71q138 0 227 68q85 65 85 143v24
q-29 -38 -184 -47q-179 -10 -227 -41q-40 -24 -40 -67v-1q0 -79 139 -79z" />
    <glyph glyph-name="ae" unicode="&#xe6;" horiz-adv-x="1431" 
d="M1372 163q-29 -67 -84 -110q-100 -72 -287 -72q-273 0 -340 171q-43 -77 -137.5 -124t-229.5 -47q-239 0 -239 159v1q0 94 80 136q29 17 64 27q71 22 243 32q67 4 116 11q43 6 61 19t18 37v1q0 24 -18 46q-40 51 -178 51q-82 0 -136 -14q-97 -26 -110 -119h-127
q28 225 363 225q216 0 286 -102q99 102 294 102q117 0 200 -37q171 -77 171 -266v-50h-635q12 -81 75.5 -120t188.5 -39q89 0 140.5 19t80.5 63h140zM1014 495q-236 0 -266 -163h512q-12 84 -72 123.5t-174 39.5zM325 72q138 0 227 68q83 64 85 142q0 12 1 21
q-30 -34 -185 -44q-182 -11 -227 -41q-39 -25 -39 -67v-1q0 -39 32 -58.5t106 -19.5z" />
    <glyph glyph-name="ccedilla" unicode="&#xe7;" horiz-adv-x="853" 
d="M447 -325q-98 0 -146.5 36t-61.5 103h104q5 -32 32 -50t71 -18q93 0 93 61q0 26 -22 39t-76 13h-55v123q-334 17 -334 301q0 99 49 167q48 70 133 106.5t198 36.5q162 0 259 -66.5t116 -192.5h-134q-31 158 -240 158q-119 0 -186.5 -53t-67.5 -156q0 -198 254 -198
q106 0 165 38.5t76 119.5h133q-15 -117 -99.5 -184t-230.5 -76v-59q151 -4 151 -114q0 -62 -47 -98.5t-134 -36.5z" />
    <glyph glyph-name="egrave" unicode="&#xe8;" horiz-adv-x="853" 
d="M178 895h141l181 -209h-104zM793 162q-45 -97 -136.5 -139t-234.5 -42q-128 0 -211 36q-159 72 -159 261q0 89 45 163q46 72 131.5 112t203.5 40q117 0 200 -37q171 -77 171 -266v-50h-633q24 -161 262 -161q171 0 223 83h138zM435 496q-112 0 -179.5 -42t-83.5 -123h509
q-24 165 -246 165z" />
    <glyph glyph-name="eacute" unicode="&#xe9;" horiz-adv-x="853" 
d="M574 911h138l-218 -223h-103zM793 162q-45 -97 -136.5 -139t-234.5 -42q-128 0 -211 36q-159 72 -159 261q0 89 45 163q46 72 131.5 112t203.5 40q117 0 200 -37q171 -77 171 -266v-50h-633q24 -161 262 -161q171 0 223 83h138zM435 496q-112 0 -179.5 -42t-83.5 -123
h509q-24 165 -246 165z" />
    <glyph glyph-name="ecircumflex" unicode="&#xea;" horiz-adv-x="853" 
d="M440 820l-112 -134h-114l178 209h95l179 -209h-113zM793 162q-45 -97 -136.5 -139t-234.5 -42q-128 0 -211 36q-159 72 -159 261q0 89 45 163q46 72 131.5 112t203.5 40q117 0 200 -37q171 -77 171 -266v-50h-633q24 -161 262 -161q171 0 223 83h138zM435 496
q-112 0 -179.5 -42t-83.5 -123h509q-24 165 -246 165z" />
    <glyph glyph-name="edieresis" unicode="&#xeb;" horiz-adv-x="853" 
d="M323 682q-44 0 -62.5 17t-18.5 58q0 40 20 58t61 18t60.5 -18t19.5 -58t-19.5 -57.5t-60.5 -17.5zM563 682q-44 0 -62 17t-18 58q0 40 20 58t61 18t60.5 -18t19.5 -58t-19.5 -57.5t-61.5 -17.5zM793 162q-45 -97 -136.5 -139t-234.5 -42q-128 0 -211 36q-159 72 -159 261
q0 89 45 163q46 72 131.5 112t203.5 40q117 0 200 -37q171 -77 171 -266v-50h-633q24 -161 262 -161q171 0 223 83h138zM435 496q-112 0 -179.5 -42t-83.5 -123h509q-24 165 -246 165z" />
    <glyph glyph-name="igrave" unicode="&#xec;" horiz-adv-x="304" 
d="M-113 873h141l181 -209h-104zM88 0v571h128v-571h-128z" />
    <glyph glyph-name="iacute" unicode="&#xed;" horiz-adv-x="304" 
d="M286 888h138l-218 -223h-103zM88 0v571h128v-571h-128z" />
    <glyph glyph-name="icircumflex" unicode="&#xee;" horiz-adv-x="304" 
d="M153 798l-112 -134h-114l178 209h95l179 -209h-113zM88 0v571h128v-571h-128z" />
    <glyph glyph-name="idieresis" unicode="&#xef;" horiz-adv-x="304" 
d="M36 660q-44 0 -62.5 17t-18.5 58q0 40 20 58t61 18t60.5 -18t19.5 -58t-19.5 -57.5t-60.5 -17.5zM276 660q-44 0 -62 17t-18 58q0 40 20 58t61 18t60.5 -18t19.5 -58t-19.5 -57.5t-61.5 -17.5zM88 0v571h128v-571h-128z" />
    <glyph glyph-name="eth" unicode="&#xf0;" horiz-adv-x="883" 
d="M439 -19q-387 0 -387 271q0 89 43 151q89 129 308 129q224 0 295 -141q-47 134 -233 252l-115 -64h-138l187 104q-77 46 -203 103h193q60 -27 100 -52l93 52h138l-165 -93q135 -91 205.5 -200.5t70.5 -226.5q0 -285 -392 -285zM442 85q137 0 201.5 40.5t64.5 128.5
t-68.5 132.5t-196.5 44.5q-264 0 -264 -177q0 -88 64.5 -128.5t198.5 -40.5z" />
    <glyph glyph-name="ntilde" unicode="&#xf1;" horiz-adv-x="860" 
d="M182 673q-1 70 32 111t103 41q53 0 112 -35q58 -36 92 -36q57 0 58 68h77q0 -74 -31 -113t-104 -39q-53 0 -112 35t-93 35q-29 0 -42.5 -16.5t-15.5 -50.5h-76zM210 0h-126v571h109l11 -144q34 78 105.5 122t173.5 44q97 0 163 -36q134 -73 134 -252v-305h-125v278
q0 68 -21 113q-43 101 -189 101q-115 0 -175 -62t-60 -178v-252z" />
    <glyph glyph-name="ograve" unicode="&#xf2;" horiz-adv-x="863" 
d="M163 896h141l181 -209h-104zM427 -19q-375 0 -375 302q0 98 48 167q100 143 331 143q112 0 199 -36q182 -76 182 -274q0 -143 -97.5 -222.5t-287.5 -79.5zM430 85q255 0 255 198q0 102 -66 155.5t-186 53.5q-119 0 -186.5 -53t-67.5 -156q0 -198 251 -198z" />
    <glyph glyph-name="oacute" unicode="&#xf3;" horiz-adv-x="863" 
d="M561 901h138l-218 -223h-103zM427 -19q-375 0 -375 302q0 98 48 167q100 143 331 143q112 0 199 -36q182 -76 182 -274q0 -143 -97.5 -222.5t-287.5 -79.5zM430 85q255 0 255 198q0 102 -66 155.5t-186 53.5q-119 0 -186.5 -53t-67.5 -156q0 -198 251 -198z" />
    <glyph glyph-name="ocircumflex" unicode="&#xf4;" horiz-adv-x="863" 
d="M428 809l-112 -134h-114l178 209h95l179 -209h-113zM427 -19q-375 0 -375 302q0 98 48 167q100 143 331 143q112 0 199 -36q182 -76 182 -274q0 -143 -97.5 -222.5t-287.5 -79.5zM430 85q255 0 255 198q0 102 -66 155.5t-186 53.5q-119 0 -186.5 -53t-67.5 -156
q0 -198 251 -198z" />
    <glyph glyph-name="otilde" unicode="&#xf5;" horiz-adv-x="863" 
d="M190 670q-1 70 32 111t103 41q53 0 112 -35q58 -36 92 -36q57 0 58 68h77q0 -74 -31 -113t-104 -39q-53 0 -112 35t-93 35q-29 0 -42.5 -16.5t-15.5 -50.5h-76zM427 -19q-375 0 -375 302q0 98 48 167q100 143 331 143q112 0 199 -36q182 -76 182 -274
q0 -143 -97.5 -222.5t-287.5 -79.5zM430 85q255 0 255 198q0 102 -66 155.5t-186 53.5q-119 0 -186.5 -53t-67.5 -156q0 -198 251 -198z" />
    <glyph glyph-name="odieresis" unicode="&#xf6;" horiz-adv-x="863" 
d="M315 673q-44 0 -62.5 17t-18.5 58q0 40 20 58t61 18t60.5 -18t19.5 -58t-19.5 -57.5t-60.5 -17.5zM555 673q-44 0 -62 17t-18 58q0 40 20 58t61 18t60.5 -18t19.5 -58t-19.5 -57.5t-61.5 -17.5zM427 -19q-375 0 -375 302q0 98 48 167q100 143 331 143q112 0 199 -36
q182 -76 182 -274q0 -143 -97.5 -222.5t-287.5 -79.5zM430 85q255 0 255 198q0 102 -66 155.5t-186 53.5q-119 0 -186.5 -53t-67.5 -156q0 -198 251 -198z" />
    <glyph glyph-name="divide" unicode="&#xf7;" horiz-adv-x="682" 
d="M341 528q-38 0 -54 15.5t-16 53.5q0 37 17.5 53t53.5 16q68 0 68 -69q0 -37 -17 -53t-52 -16zM56 305v109h576v-109h-576zM340 53q-38 0 -54 16t-16 54q0 37 17.5 53t53.5 16q68 0 68 -69q0 -37 -16.5 -53.5t-52.5 -16.5z" />
    <glyph glyph-name="oslash" unicode="&#xf8;" horiz-adv-x="874" 
d="M433 -19q-71 0 -122 10l-52 -81h-115l72 108q-164 68 -164 265q0 97 49 167q100 143 336 143q79 0 136 -15l53 82h113l-75 -114q158 -80 158 -261q0 -144 -98.5 -224t-290.5 -80zM178 285q0 -125 101 -172l235 371q-34 6 -75 6q-123 0 -192 -51t-69 -154zM436 85
q262 0 262 200q0 120 -94 169l-232 -366q60 -3 64 -3z" />
    <glyph glyph-name="ugrave" unicode="&#xf9;" horiz-adv-x="840" 
d="M160 848h141l181 -209h-104zM638 150q-29 -80 -98.5 -124.5t-172.5 -44.5q-142 0 -215 74t-73 211v305h125v-282q0 -102 50 -153t160 -51q103 0 159.5 59t56.5 165v262h126v-571h-107z" />
    <glyph glyph-name="uacute" unicode="&#xfa;" horiz-adv-x="840" 
d="M550 865h138l-218 -223h-103zM638 150q-29 -80 -98.5 -124.5t-172.5 -44.5q-142 0 -215 74t-73 211v305h125v-282q0 -102 50 -153t160 -51q103 0 159.5 59t56.5 165v262h126v-571h-107z" />
    <glyph glyph-name="ucircumflex" unicode="&#xfb;" horiz-adv-x="840" 
d="M418 781l-112 -134h-114l178 209h95l179 -209h-113zM638 150q-29 -80 -98.5 -124.5t-172.5 -44.5q-142 0 -215 74t-73 211v305h125v-282q0 -102 50 -153t160 -51q103 0 159.5 59t56.5 165v262h126v-571h-107z" />
    <glyph glyph-name="udieresis" unicode="&#xfc;" horiz-adv-x="840" 
d="M300 643q-44 0 -62.5 17t-18.5 58q0 40 20 58t61 18t60.5 -18t19.5 -58t-19.5 -57.5t-60.5 -17.5zM540 643q-44 0 -62 17t-18 58q0 40 20 58t61 18t60.5 -18t19.5 -58t-19.5 -57.5t-61.5 -17.5zM638 150q-29 -80 -98.5 -124.5t-172.5 -44.5q-142 0 -215 74t-73 211v305
h125v-282q0 -102 50 -153t160 -51q103 0 159.5 59t56.5 165v262h126v-571h-107z" />
    <glyph glyph-name="yacute" unicode="&#xfd;" horiz-adv-x="792" 
d="M532 877h138l-218 -223h-103zM41 -255l-1 109h62q87 0 126 27q40 27 89 111l19 32l-324 547h137l250 -429l2 -6l3 6l247 429h135l-354 -603q-85 -145 -144 -185q-34 -22 -77 -30t-115 -8h-55z" />
    <glyph glyph-name="thorn" unicode="&#xfe;" horiz-adv-x="885" 
d="M489 -17q-207 0 -281 123v-310h-121v947h121v-295q39 69 113 106.5t174 37.5q103 0 179 -36q161 -76 161 -273q0 -97 -47 -167q-47 -65 -124.5 -99t-174.5 -34zM454 84q254 0 254 199q0 101 -65.5 155t-185.5 54q-116 0 -184.5 -56t-68.5 -153q0 -98 64 -148.5t186 -50.5
z" />
    <glyph glyph-name="ydieresis" unicode="&#xff;" horiz-adv-x="792" 
d="M282 649q-44 0 -62.5 17t-18.5 58q0 40 20 58t61 18t60.5 -18t19.5 -58t-19.5 -57.5t-60.5 -17.5zM522 649q-44 0 -62 17t-18 58q0 40 20 58t61 18t60.5 -18t19.5 -58t-19.5 -57.5t-61.5 -17.5zM41 -255l-1 109h62q87 0 126 27q40 27 89 111l19 32l-324 547h137l250 -429
l2 -6l3 6l247 429h135l-354 -603q-85 -145 -144 -185q-34 -22 -77 -30t-115 -8h-55z" />
    <glyph glyph-name="Amacron" unicode="&#x100;" horiz-adv-x="895" 
d="M248 900h397v-92h-397v92zM660 178h-426l-89 -178h-134l369 711h129l375 -711h-132zM444 598l-159 -318h323z" />
    <glyph glyph-name="amacron" unicode="&#x101;" horiz-adv-x="831" 
d="M233 783h397v-92h-397v92zM637 157q-24 -49 -70 -89q-101 -87 -279 -87q-237 0 -237 159v1q0 92 81 136q29 17 64 27q71 22 243 32q67 4 116 11q42 6 59.5 19t17.5 37v1q0 24 -18 46q-40 51 -178 51q-124 0 -179.5 -31.5t-64.5 -101.5h-128q14 115 104 170t258 55
q167 0 246 -51.5t79 -165.5v-376h-102zM322 71q138 0 227 68q85 65 85 143v24q-29 -38 -184 -47q-179 -10 -227 -41q-40 -24 -40 -67v-1q0 -79 139 -79z" />
    <glyph glyph-name="Abreve" unicode="&#x102;" horiz-adv-x="895" 
d="M440 799q-93 0 -144 29q-91 51 -96 192h92q5 -133 149 -134q73 1 111 36t39 98h94q-1 -63 -27 -114q-53 -107 -218 -107zM660 178h-426l-89 -178h-134l369 711h129l375 -711h-132zM444 598l-159 -318h323z" />
    <glyph glyph-name="abreve" unicode="&#x103;" horiz-adv-x="831" 
d="M424 682q-93 0 -144 29q-91 51 -96 192h92q5 -133 149 -134q73 1 111 36t39 98h94q-1 -63 -27 -114q-53 -107 -218 -107zM637 157q-24 -49 -70 -89q-101 -87 -279 -87q-237 0 -237 159v1q0 92 81 136q29 17 64 27q71 22 243 32q67 4 116 11q42 6 59.5 19t17.5 37v1
q0 24 -18 46q-40 51 -178 51q-124 0 -179.5 -31.5t-64.5 -101.5h-128q14 115 104 170t258 55q167 0 246 -51.5t79 -165.5v-376h-102zM322 71q138 0 227 68q85 65 85 143v24q-29 -38 -184 -47q-179 -10 -227 -41q-40 -24 -40 -67v-1q0 -79 139 -79z" />
    <glyph glyph-name="Aogonek" unicode="&#x104;" horiz-adv-x="895" 
d="M1008 -139q-58 -127 -205 -127q-77 0 -121 31.5t-44 90.5q0 42 24 78.5t86 72.5l-88 171h-426l-89 -178h-134l369 711h129l375 -711h-1q-44 -23 -93 -55q-59 -39 -59 -80q0 -26 22 -42t57 -16q64 0 92 54h106zM444 598l-159 -318h323z" />
    <glyph glyph-name="aogonek" unicode="&#x105;" horiz-adv-x="831" 
d="M874 -139q-58 -127 -205 -127q-77 0 -121 31.5t-44 90.5q0 27 12 56q23 59 131 113l-10 132q-24 -49 -70 -89q-101 -87 -279 -87q-237 0 -237 159v1q0 92 81 136q29 17 64 27q71 22 243 32q67 4 116 11q42 6 59.5 19t17.5 37v1q0 24 -18 46q-40 51 -178 51
q-124 0 -179.5 -31.5t-64.5 -101.5h-128q14 115 104 170t258 55q167 0 246 -51.5t79 -165.5v-376h-2q-44 -23 -93 -55q-59 -39 -59 -80q0 -26 22 -42t57 -16q64 0 92 54h106zM322 71q138 0 227 68q85 65 85 143v24q-29 -38 -184 -47q-179 -10 -227 -41q-40 -24 -40 -67v-1
q0 -79 139 -79z" />
    <glyph glyph-name="Cacute" unicode="&#x106;" horiz-adv-x="937" 
d="M611 1042h138l-218 -223h-103zM900 282q-16 -90 -67 -158q-107 -143 -357 -143q-131 0 -224 40q-196 81 -196 326v3q0 119 56 202q55 85 152.5 130t224.5 45q100 0 190 -31q181 -67 217 -251h-132q-39 170 -274 170q-145 0 -225.5 -67t-80.5 -199v-1q0 -127 76.5 -191
t222.5 -64q249 0 284 189h133z" />
    <glyph glyph-name="cacute" unicode="&#x107;" horiz-adv-x="853" 
d="M569 911h138l-218 -223h-103zM807 243q-16 -126 -113 -194t-265 -68q-377 0 -377 302q0 99 49 167q48 70 133 106.5t198 36.5q162 0 259 -66.5t116 -192.5h-134q-31 158 -240 158q-119 0 -186.5 -53t-67.5 -156q0 -198 254 -198q106 0 165 38.5t76 119.5h133z" />
    <glyph glyph-name="Ccircumflex" unicode="&#x108;" horiz-adv-x="937" 
d="M478 952l-112 -134h-114l178 209h95l179 -209h-113zM900 282q-16 -90 -67 -158q-107 -143 -357 -143q-131 0 -224 40q-196 81 -196 326v3q0 119 56 202q55 85 152.5 130t224.5 45q100 0 190 -31q181 -67 217 -251h-132q-39 170 -274 170q-145 0 -225.5 -67t-80.5 -199v-1
q0 -127 76.5 -191t222.5 -64q249 0 284 189h133z" />
    <glyph glyph-name="ccircumflex" unicode="&#x109;" horiz-adv-x="853" 
d="M436 821l-112 -134h-114l178 209h95l179 -209h-113zM807 243q-16 -126 -113 -194t-265 -68q-377 0 -377 302q0 99 49 167q48 70 133 106.5t198 36.5q162 0 259 -66.5t116 -192.5h-134q-31 158 -240 158q-119 0 -186.5 -53t-67.5 -156q0 -198 254 -198q106 0 165 38.5
t76 119.5h133z" />
    <glyph glyph-name="Cdotaccent" unicode="&#x10a;" horiz-adv-x="937" 
d="M480 817q-48 0 -68 18t-20 64q0 43 21.5 62.5t66.5 19.5t66.5 -19.5t21.5 -62.5q0 -82 -88 -82zM900 282q-16 -90 -67 -158q-107 -143 -357 -143q-131 0 -224 40q-196 81 -196 326v3q0 119 56 202q55 85 152.5 130t224.5 45q100 0 190 -31q181 -67 217 -251h-132
q-39 170 -274 170q-145 0 -225.5 -67t-80.5 -199v-1q0 -127 76.5 -191t222.5 -64q249 0 284 189h133z" />
    <glyph glyph-name="cdotaccent" unicode="&#x10b;" horiz-adv-x="853" 
d="M437 686q-48 0 -68 18t-20 64q0 43 21.5 62.5t66.5 19.5t66.5 -19.5t21.5 -62.5q0 -82 -88 -82zM807 243q-16 -126 -113 -194t-265 -68q-377 0 -377 302q0 99 49 167q48 70 133 106.5t198 36.5q162 0 259 -66.5t116 -192.5h-134q-31 158 -240 158q-119 0 -186.5 -53
t-67.5 -156q0 -198 254 -198q106 0 165 38.5t76 119.5h133z" />
    <glyph glyph-name="Ccaron" unicode="&#x10c;" horiz-adv-x="937" 
d="M431 817l-179 214h115l109 -133l113 133h114l-181 -214h-91zM900 282q-16 -90 -67 -158q-107 -143 -357 -143q-131 0 -224 40q-196 81 -196 326v3q0 119 56 202q55 85 152.5 130t224.5 45q100 0 190 -31q181 -67 217 -251h-132q-39 170 -274 170q-145 0 -225.5 -67
t-80.5 -199v-1q0 -127 76.5 -191t222.5 -64q249 0 284 189h133z" />
    <glyph glyph-name="ccaron" unicode="&#x10d;" horiz-adv-x="853" 
d="M389 686l-179 214h115l109 -133l113 133h114l-181 -214h-91zM807 243q-16 -126 -113 -194t-265 -68q-377 0 -377 302q0 99 49 167q48 70 133 106.5t198 36.5q162 0 259 -66.5t116 -192.5h-134q-31 158 -240 158q-119 0 -186.5 -53t-67.5 -156q0 -198 254 -198
q106 0 165 38.5t76 119.5h133z" />
    <glyph glyph-name="Dcaron" unicode="&#x10e;" horiz-adv-x="908" 
d="M407 803l-179 214h115l109 -133l113 133h114l-181 -214h-91zM96 711h322q131 0 230 -36q206 -75 206 -319v-3q0 -127 -52 -204q-99 -149 -372 -149h-334v711zM218 603v-494h206q101 0 167 23q137 47 137 223v2q0 132 -78.5 189t-236.5 57h-195z" />
    <glyph glyph-name="dcaron" unicode="&#x10f;" horiz-adv-x="882" 
d="M941 823h114l-87 -202h-87zM681 123q-72 -140 -286 -140q-97 0 -178 31q-165 69 -165 268q0 97 43 168q89 142 303 142q199 0 278 -132v298h122v-758h-107zM429 84q123 0 188.5 51.5t65.5 148.5q0 99 -69 153.5t-186 54.5q-120 0 -185 -54.5t-65 -155.5q0 -198 251 -198z
" />
    <glyph glyph-name="Dcroat" unicode="&#x110;" horiz-adv-x="937" 
d="M121 0v295h-133v109h133v307h321q131 0 230 -36q206 -75 206 -319v-3q0 -127 -52 -204q-96 -149 -371 -149h-334zM243 295v-187h206q96 0 167 23q136 47 136 224v2q0 132 -78 189t-236 57h-195v-199h193v-109h-193z" />
    <glyph glyph-name="dcroat" unicode="&#x111;" horiz-adv-x="886" 
d="M681 123q-72 -140 -286 -140q-97 0 -178 31q-165 69 -165 268q0 97 43 168q89 142 303 142q199 0 278 -132v160h-140v64h140v74h122v-74h88v-64h-88v-620h-107zM429 84q123 0 188.5 51.5t65.5 148.5q0 99 -69 153.5t-186 54.5q-120 0 -185 -54.5t-65 -155.5
q0 -198 251 -198z" />
    <glyph glyph-name="Emacron" unicode="&#x112;" 
d="M244 900h397v-92h-397v92zM786 0h-690v711h670v-105h-551v-202h466v-104h-466v-191h571v-109z" />
    <glyph glyph-name="emacron" unicode="&#x113;" horiz-adv-x="853" 
d="M248 783h397v-92h-397v92zM793 162q-45 -97 -136.5 -139t-234.5 -42q-128 0 -211 36q-159 72 -159 261q0 89 45 163q46 72 131.5 112t203.5 40q117 0 200 -37q171 -77 171 -266v-50h-633q24 -161 262 -161q171 0 223 83h138zM435 496q-112 0 -179.5 -42t-83.5 -123h509
q-24 165 -246 165z" />
    <glyph glyph-name="Ebreve" unicode="&#x114;" 
d="M435 799q-93 0 -144 29q-91 51 -96 192h92q5 -133 149 -134q73 1 111 36t39 98h94q-1 -63 -27 -114q-53 -107 -218 -107zM786 0h-690v711h670v-105h-551v-202h466v-104h-466v-191h571v-109z" />
    <glyph glyph-name="ebreve" unicode="&#x115;" horiz-adv-x="853" 
d="M439 682q-93 0 -144 29q-91 51 -96 192h92q5 -133 149 -134q73 1 111 36t39 98h94q-1 -63 -27 -114q-53 -107 -218 -107zM793 162q-45 -97 -136.5 -139t-234.5 -42q-128 0 -211 36q-159 72 -159 261q0 89 45 163q46 72 131.5 112t203.5 40q117 0 200 -37
q171 -77 171 -266v-50h-633q24 -161 262 -161q171 0 223 83h138zM435 496q-112 0 -179.5 -42t-83.5 -123h509q-24 165 -246 165z" />
    <glyph glyph-name="Edotaccent" unicode="&#x116;" 
d="M438 803q-48 0 -68 18t-20 64q0 43 21.5 62.5t66.5 19.5t66.5 -19.5t21.5 -62.5q0 -82 -88 -82zM786 0h-690v711h670v-105h-551v-202h466v-104h-466v-191h571v-109z" />
    <glyph glyph-name="edotaccent" unicode="&#x117;" horiz-adv-x="853" 
d="M442 686q-48 0 -68 18t-20 64q0 43 21.5 62.5t66.5 19.5t66.5 -19.5t21.5 -62.5q0 -82 -88 -82zM793 162q-45 -97 -136.5 -139t-234.5 -42q-128 0 -211 36q-159 72 -159 261q0 89 45 163q46 72 131.5 112t203.5 40q117 0 200 -37q171 -77 171 -266v-50h-633
q24 -161 262 -161q171 0 223 83h138zM435 496q-112 0 -179.5 -42t-83.5 -123h509q-24 165 -246 165z" />
    <glyph glyph-name="Eogonek" unicode="&#x118;" 
d="M910 -139q-58 -127 -205 -127q-77 0 -121 31.5t-44 90.5q0 81 98 144h-542v711h670v-105h-551v-202h466v-104h-466v-191h571v-109h-1q-44 -23 -93 -55q-59 -39 -59 -80q0 -26 22 -42t57 -16q64 0 92 54h106z" />
    <glyph glyph-name="eogonek" unicode="&#x119;" horiz-adv-x="853" 
d="M561 -245q-77 0 -121 31.5t-44 90.5q0 58 46 104h-20q-128 0 -211 36q-159 72 -159 261q0 89 45 163q46 72 131.5 112t203.5 40q117 0 200 -37q171 -77 171 -266v-50h-633q24 -161 262 -161q171 0 223 83h138q-52 -114 -177 -155q-52 -30 -77 -47q-50 -36 -50 -74
q0 -26 22 -42t57 -16q64 0 92 54h106q-58 -127 -205 -127zM435 496q-112 0 -179.5 -42t-83.5 -123h509q-24 165 -246 165z" />
    <glyph glyph-name="Ecaron" unicode="&#x11a;" 
d="M389 803l-179 214h115l109 -133l113 133h114l-181 -214h-91zM786 0h-690v711h670v-105h-551v-202h466v-104h-466v-191h571v-109z" />
    <glyph glyph-name="ecaron" unicode="&#x11b;" horiz-adv-x="853" 
d="M393 686l-179 214h115l109 -133l113 133h114l-181 -214h-91zM793 162q-45 -97 -136.5 -139t-234.5 -42q-128 0 -211 36q-159 72 -159 261q0 89 45 163q46 72 131.5 112t203.5 40q117 0 200 -37q171 -77 171 -266v-50h-633q24 -161 262 -161q171 0 223 83h138zM435 496
q-112 0 -179.5 -42t-83.5 -123h509q-24 165 -246 165z" />
    <glyph glyph-name="Gcircumflex" unicode="&#x11c;" horiz-adv-x="971" 
d="M491 946l-112 -134h-114l178 209h95l179 -209h-113zM786 194q-11 -59 -51 -110q-84 -103 -280 -103q-116 0 -210 39q-189 86 -189 325v4q0 124 55 205q55 84 151 128.5t221 44.5q104 0 196 -27q179 -56 214 -237h-140q-18 79 -84 115.5t-183 36.5q-145 0 -223.5 -66.5
t-78.5 -201.5v-1q0 -129 74.5 -193.5t217.5 -64.5q100 0 165 24q123 46 136 151h-312v103h431v-366h-103z" />
    <glyph glyph-name="gcircumflex" unicode="&#x11d;" horiz-adv-x="786" 
d="M401 825l-112 -134h-114l178 209h95l179 -209h-113zM367 -262q-129 0 -200 17q-140 29 -140 126q0 58 46 89t142 41q-89 3 -131 26.5t-42 75.5t49 84.5t149 36.5q-92 12 -137 49.5t-45 109.5q0 85 74 134.5t216 53.5q13 3 85 5q123 2 147 12q16 6 21.5 17t5.5 34v7h135
v-6q0 -31 -9 -47t-32 -24q-37 -10 -182 -12q114 -8 170 -50.5t56 -124.5q0 -95 -82 -138.5t-249 -43.5h-70q-71 0 -120 -7q-41 -8 -57.5 -20.5t-16.5 -32.5q0 -47 163 -46h191q146 0 213 -38.5t67 -126.5v-3q0 -57 -37 -105q-80 -93 -341 -93h-39zM402 294q116 0 169.5 22.5
t53.5 76.5q0 55 -50.5 80.5t-163.5 25.5q-42 0 -62 -4q-88 -4 -128 -28.5t-40 -74.5q0 -56 53.5 -77t167.5 -21zM420 -163q98 0 152 12q96 21 96 82v3q0 28 -15 43q-30 34 -162 34h-157q-181 -2 -181 -89q0 -45 54.5 -65t178.5 -20h34z" />
    <glyph glyph-name="Gbreve" unicode="&#x11e;" horiz-adv-x="971" 
d="M490 813q-93 0 -144 29q-91 51 -96 192h92q5 -133 149 -134q73 1 111 36t39 98h94q-1 -63 -27 -114q-53 -107 -218 -107zM786 194q-11 -59 -51 -110q-84 -103 -280 -103q-116 0 -210 39q-189 86 -189 325v4q0 124 55 205q55 84 151 128.5t221 44.5q104 0 196 -27
q179 -56 214 -237h-140q-18 79 -84 115.5t-183 36.5q-145 0 -223.5 -66.5t-78.5 -201.5v-1q0 -129 74.5 -193.5t217.5 -64.5q100 0 165 24q123 46 136 151h-312v103h431v-366h-103z" />
    <glyph glyph-name="gbreve" unicode="&#x11f;" horiz-adv-x="786" 
d="M407 681q-93 0 -144 29q-91 51 -96 192h92q5 -133 149 -134q73 1 111 36t39 98h94q-1 -63 -27 -114q-53 -107 -218 -107zM367 -262q-129 0 -200 17q-140 29 -140 126q0 58 46 89t142 41q-89 3 -131 26.5t-42 75.5t49 84.5t149 36.5q-92 12 -137 49.5t-45 109.5
q0 85 74 134.5t216 53.5q13 3 85 5q123 2 147 12q16 6 21.5 17t5.5 34v7h135v-6q0 -31 -9 -47t-32 -24q-37 -10 -182 -12q114 -8 170 -50.5t56 -124.5q0 -95 -82 -138.5t-249 -43.5h-70q-71 0 -120 -7q-41 -8 -57.5 -20.5t-16.5 -32.5q0 -47 163 -46h191q146 0 213 -38.5
t67 -126.5v-3q0 -57 -37 -105q-80 -93 -341 -93h-39zM402 294q116 0 169.5 22.5t53.5 76.5q0 55 -50.5 80.5t-163.5 25.5q-42 0 -62 -4q-88 -4 -128 -28.5t-40 -74.5q0 -56 53.5 -77t167.5 -21zM420 -163q98 0 152 12q96 21 96 82v3q0 28 -15 43q-30 34 -162 34h-157
q-181 -2 -181 -89q0 -45 54.5 -65t178.5 -20h34z" />
    <glyph glyph-name="Gdotaccent" unicode="&#x120;" horiz-adv-x="971" 
d="M493 817q-48 0 -68 18t-20 64q0 43 21.5 62.5t66.5 19.5t66.5 -19.5t21.5 -62.5q0 -82 -88 -82zM786 194q-11 -59 -51 -110q-84 -103 -280 -103q-116 0 -210 39q-189 86 -189 325v4q0 124 55 205q55 84 151 128.5t221 44.5q104 0 196 -27q179 -56 214 -237h-140
q-18 79 -84 115.5t-183 36.5q-145 0 -223.5 -66.5t-78.5 -201.5v-1q0 -129 74.5 -193.5t217.5 -64.5q100 0 165 24q123 46 136 151h-312v103h431v-366h-103z" />
    <glyph glyph-name="gdotaccent" unicode="&#x121;" horiz-adv-x="786" 
d="M407 687q-48 0 -68 18t-20 64q0 43 21.5 62.5t66.5 19.5t66.5 -19.5t21.5 -62.5q0 -82 -88 -82zM367 -262q-129 0 -200 17q-140 29 -140 126q0 58 46 89t142 41q-89 3 -131 26.5t-42 75.5t49 84.5t149 36.5q-92 12 -137 49.5t-45 109.5q0 85 74 134.5t216 53.5q13 3 85 5
q123 2 147 12q16 6 21.5 17t5.5 34v7h135v-6q0 -31 -9 -47t-32 -24q-37 -10 -182 -12q114 -8 170 -50.5t56 -124.5q0 -95 -82 -138.5t-249 -43.5h-70q-71 0 -120 -7q-41 -8 -57.5 -20.5t-16.5 -32.5q0 -47 163 -46h191q146 0 213 -38.5t67 -126.5v-3q0 -57 -37 -105
q-80 -93 -341 -93h-39zM402 294q116 0 169.5 22.5t53.5 76.5q0 55 -50.5 80.5t-163.5 25.5q-42 0 -62 -4q-88 -4 -128 -28.5t-40 -74.5q0 -56 53.5 -77t167.5 -21zM420 -163q98 0 152 12q96 21 96 82v3q0 28 -15 43q-30 34 -162 34h-157q-181 -2 -181 -89q0 -45 54.5 -65
t178.5 -20h34z" />
    <glyph glyph-name="uni0122" unicode="&#x122;" horiz-adv-x="971" 
d="M786 194q-11 -59 -51 -110q-84 -103 -280 -103q-116 0 -210 39q-189 86 -189 325v4q0 124 55 205q55 84 151 128.5t221 44.5q104 0 196 -27q179 -56 214 -237h-140q-18 79 -84 115.5t-183 36.5q-145 0 -223.5 -66.5t-78.5 -201.5v-1q0 -129 74.5 -193.5t217.5 -64.5
q100 0 165 24q123 46 136 151h-312v103h431v-366h-103zM407 -276q99 12 111 73q-18 -6 -39 -6q-44 0 -61.5 12t-17.5 47q0 34 22 48t71 14q50 0 71.5 -19.5t21.5 -66.5q0 -66 -40 -105.5t-135 -48.5z" />
    <glyph glyph-name="uni0123" unicode="&#x123;" horiz-adv-x="786" 
d="M403 679q-50 0 -72 19t-22 66q0 137 175 154l5 -52q-100 -12 -112 -73q19 6 40 6q44 0 61 -12t17 -46t-22 -48t-70 -14zM367 -262q-129 0 -200 17q-140 29 -140 126q0 58 46 89t142 41q-89 3 -131 26.5t-42 75.5t49 84.5t149 36.5q-92 12 -137 49.5t-45 109.5
q0 85 74 134.5t216 53.5q13 3 85 5q123 2 147 12q16 6 21.5 17t5.5 34v7h135v-6q0 -31 -9 -47t-32 -24q-37 -10 -182 -12q114 -8 170 -50.5t56 -124.5q0 -95 -82 -138.5t-249 -43.5h-70q-71 0 -120 -7q-41 -8 -57.5 -20.5t-16.5 -32.5q0 -47 163 -46h191q146 0 213 -38.5
t67 -126.5v-3q0 -57 -37 -105q-80 -93 -341 -93h-39zM402 294q116 0 169.5 22.5t53.5 76.5q0 55 -50.5 80.5t-163.5 25.5q-42 0 -62 -4q-88 -4 -128 -28.5t-40 -74.5q0 -56 53.5 -77t167.5 -21zM420 -163q98 0 152 12q96 21 96 82v3q0 28 -15 43q-30 34 -162 34h-157
q-181 -2 -181 -89q0 -45 54.5 -65t178.5 -20h34z" />
    <glyph glyph-name="Hcircumflex" unicode="&#x124;" horiz-adv-x="926" 
d="M464 919l-112 -134h-114l178 209h95l179 -209h-113zM707 296h-487v-296h-124v711h124v-297h487v297h122v-711h-122v296z" />
    <glyph glyph-name="hcircumflex" unicode="&#x125;" horiz-adv-x="855" 
d="M144 965l-112 -134h-114l178 209h95l179 -209h-113zM204 0h-119v758h120v-327q34 76 104 119t170 43q97 0 163 -36q133 -73 133 -252v-305h-125v272q0 63 -20 114q-43 106 -189 106q-114 0 -175.5 -61t-61.5 -177v-254z" />
    <glyph glyph-name="Hbar" unicode="&#x126;" horiz-adv-x="951" 
d="M719 246h-487v-246h-123v475h-119v101h119v135h123v-135h487v135h123v-135h120v-101h-120v-475h-123v246zM719 475h-487v-127h487v127z" />
    <glyph glyph-name="hbar" unicode="&#x127;" horiz-adv-x="855" 
d="M204 0h-119v618h-76v62h76v78h120v-78h155v-62h-155v-187q34 76 104 119t170 43q97 0 163 -36q133 -73 133 -252v-305h-125v272q0 63 -20 114q-43 106 -189 106q-114 0 -175.5 -61t-61.5 -177v-254z" />
    <glyph glyph-name="Itilde" unicode="&#x128;" horiz-adv-x="614" 
d="M65 798q-1 70 32 111t103 41q53 0 112 -35q58 -36 92 -36q57 0 58 68h77q0 -74 -31 -113t-104 -39q-53 0 -112 35t-93 35q-29 0 -42.5 -16.5t-15.5 -50.5h-76zM56 0v115h192v485h-192v111h502v-111h-192v-485h192v-115h-502z" />
    <glyph glyph-name="itilde" unicode="&#x129;" horiz-adv-x="304" 
d="M-89 658q-1 70 32 111t103 41q53 0 112 -35q58 -36 92 -36q57 0 58 68h77q0 -74 -31 -113t-104 -39q-53 0 -112 35t-93 35q-29 0 -42.5 -16.5t-15.5 -50.5h-76zM88 0v571h128v-571h-128z" />
    <glyph glyph-name="Imacron" unicode="&#x12a;" horiz-adv-x="614" 
d="M116 900h397v-92h-397v92zM56 0v115h192v485h-192v111h502v-111h-192v-485h192v-115h-502z" />
    <glyph glyph-name="imacron" unicode="&#x12b;" horiz-adv-x="304" 
d="M-41 760h397v-92h-397v92zM88 0v571h128v-571h-128z" />
    <glyph glyph-name="Ibreve" unicode="&#x12c;" horiz-adv-x="614" 
d="M308 799q-93 0 -144 29q-91 51 -96 192h92q5 -133 149 -134q73 1 111 36t39 98h94q-1 -63 -27 -114q-53 -107 -218 -107zM56 0v115h192v485h-192v111h502v-111h-192v-485h192v-115h-502z" />
    <glyph glyph-name="ibreve" unicode="&#x12d;" horiz-adv-x="304" 
d="M151 659q-93 0 -144 29q-91 51 -96 192h92q5 -133 149 -134q73 1 111 36t39 98h94q-1 -63 -27 -114q-53 -107 -218 -107zM88 0v571h128v-571h-128z" />
    <glyph glyph-name="Iogonek" unicode="&#x12e;" horiz-adv-x="614" 
d="M681 -139q-58 -127 -205 -127q-77 0 -121 31.5t-44 90.5q0 81 98 144h-353v115h192v485h-192v111h502v-111h-192v-485h192v-115h-2q-44 -23 -93 -55q-59 -39 -59 -80q0 -26 22 -42t57 -16q64 0 92 54h106z" />
    <glyph glyph-name="iogonek" unicode="&#x12f;" horiz-adv-x="300" 
d="M153 667q-44 0 -63.5 18.5t-19.5 61.5q0 42 20 60.5t62 18.5t62.5 -18.5t20.5 -60.5q0 -80 -82 -80zM338 -139q-58 -127 -205 -127q-77 0 -121 31.5t-44 90.5q0 43 25.5 80.5t92.5 75.5v559h128v-571h-1q-44 -23 -93 -55q-59 -39 -59 -80q0 -26 22 -42t57 -16q64 0 92 54
h106z" />
    <glyph glyph-name="Idotaccent" unicode="&#x130;" horiz-adv-x="614" 
d="M310 803q-48 0 -68 18t-20 64q0 43 21.5 62.5t66.5 19.5t66.5 -19.5t21.5 -62.5q0 -82 -88 -82zM56 0v115h192v485h-192v111h502v-111h-192v-485h192v-115h-502z" />
    <glyph glyph-name="dotlessi" unicode="&#x131;" horiz-adv-x="304" 
d="M88 0v571h128v-571h-128z" />
    <glyph glyph-name="IJ" unicode="&#x132;" horiz-adv-x="998" 
d="M56 0v115h180v485h-180v111h478v-111h-181v-485h194v-115h-491zM637 115h7q54 0 80.5 5.5t40.5 21.5q21 26 21 136v433h128v-436q0 -93 -10 -146t-36 -80q-27 -28 -78.5 -38.5t-145.5 -10.5h-7v115z" />
    <glyph glyph-name="ij" unicode="&#x133;" horiz-adv-x="628" 
d="M153 667q-44 0 -63.5 18.5t-19.5 61.5q0 42 20 60.5t62 18.5t62.5 -18.5t20.5 -60.5q0 -80 -82 -80zM476 667q-44 0 -63.5 18.5t-19.5 61.5q0 42 20 60.5t62 18.5t62.5 -18.5t20.5 -60.5q0 -80 -82 -80zM88 0v571h128v-571h-128zM235 -273v111h31q92 0 119 27
q26 30 26 140v566h124v-580q0 -164 -50 -214t-207 -50h-43z" />
    <glyph glyph-name="Jcircumflex" unicode="&#x134;" horiz-adv-x="735" 
d="M587 930l-112 -134h-114l178 209h95l179 -209h-113zM335 -20q-154 0 -229.5 73t-80.5 216v12h128v-10q6 -90 47.5 -134.5t135.5 -44.5q98 0 144 50.5t46 171.5v397h128v-399q0 -332 -319 -332z" />
    <glyph glyph-name="jcircumflex" unicode="&#x135;" horiz-adv-x="301" 
d="M149 799l-112 -134h-114l178 209h95l179 -209h-113zM-87 -162h31q92 0 119 27q26 30 26 140v566h124v-580q0 -164 -50 -214t-207 -50h-43v111z" />
    <glyph glyph-name="uni0136" unicode="&#x136;" horiz-adv-x="879" 
d="M440 379l-220 -175v-204h-124v711h124v-380l466 380h168l-323 -266l342 -445h-150zM387 -233q99 12 111 73q-18 -6 -39 -6q-44 0 -61.5 12t-17.5 47q0 34 22 48t71 14q50 0 71.5 -19.5t21.5 -66.5q0 -66 -40 -105.5t-135 -48.5z" />
    <glyph glyph-name="uni0137" unicode="&#x137;" horiz-adv-x="800" 
d="M411 281l-205 -162v-119h-121v758h121v-522l408 335h170l-278 -226l294 -345h-151zM351 -246q99 12 111 73q-18 -6 -39 -6q-44 0 -61.5 12t-17.5 47q0 34 22 48t71 14q50 0 71.5 -19.5t21.5 -66.5q0 -66 -40 -105.5t-135 -48.5z" />
    <glyph glyph-name="kgreenlandic" unicode="&#x138;" horiz-adv-x="800" 
d="M413 281l-205 -162v-119h-120v571h120v-335l408 335h170l-278 -226l294 -345h-150z" />
    <glyph glyph-name="Lacute" unicode="&#x139;" horiz-adv-x="746" 
d="M295 1028h138l-218 -223h-103zM96 0v711h125v-594h499v-117h-624z" />
    <glyph glyph-name="lacute" unicode="&#x13a;" horiz-adv-x="296" 
d="M282 1060h138l-218 -223h-103zM86 0v758h125v-758h-125z" />
    <glyph glyph-name="uni013B" unicode="&#x13b;" horiz-adv-x="746" 
d="M96 0v711h125v-594h499v-117h-624zM325 -267q99 12 111 73q-18 -6 -39 -6q-44 0 -61.5 12t-17.5 47q0 34 22 48t71 14q50 0 71.5 -19.5t21.5 -66.5q0 -66 -40 -105.5t-135 -48.5z" />
    <glyph glyph-name="uni013C" unicode="&#x13c;" horiz-adv-x="296" 
d="M86 0v758h125v-758h-125zM58 -258q99 12 111 73q-18 -6 -39 -6q-44 0 -61.5 12t-17.5 47q0 34 22 48t71 14q50 0 71.5 -19.5t21.5 -66.5q0 -66 -40 -105.5t-135 -48.5z" />
    <glyph glyph-name="Lcaron" unicode="&#x13d;" horiz-adv-x="746" 
d="M554 735h114l-87 -202h-87zM96 0v711h125v-594h499v-117h-624z" />
    <glyph glyph-name="lcaron" unicode="&#x13e;" horiz-adv-x="296" 
d="M361 826h114l-87 -202h-87zM86 0v758h125v-758h-125z" />
    <glyph glyph-name="Ldot" unicode="&#x13f;" horiz-adv-x="746" 
d="M96 0v711h125v-595h499v-116h-624zM631 284q-48 0 -68 18t-20 64q0 43 21.5 62.5t66.5 19.5t66.5 -19.5t21.5 -62.5q0 -82 -88 -82z" />
    <glyph glyph-name="ldot" unicode="&#x140;" horiz-adv-x="544" 
d="M86 0v758h125v-758h-125zM427 207q-48 0 -68 18t-20 64q0 43 21.5 62.5t66.5 19.5t66.5 -19.5t21.5 -62.5q0 -82 -88 -82z" />
    <glyph glyph-name="Lslash" unicode="&#x141;" horiz-adv-x="769" 
d="M116 0v300l-105 -34l-30 95l135 44v306h125v-266l205 66l36 -93l-241 -78v-223h499v-117h-624z" />
    <glyph glyph-name="lslash" unicode="&#x142;" horiz-adv-x="340" 
d="M105 0v290l-92 -30l-20 64l112 37v397h125v-356l97 32l20 -64l-117 -39v-331h-125z" />
    <glyph glyph-name="Nacute" unicode="&#x143;" horiz-adv-x="936" 
d="M617 1005h138l-218 -223h-103zM216 557v-557h-120v711h126l473 -514l28 -35v549h119v-711h-117l-482 524z" />
    <glyph glyph-name="nacute" unicode="&#x144;" horiz-adv-x="860" 
d="M559 903h138l-218 -223h-103zM210 0h-126v571h109l11 -144q34 78 105.5 122t173.5 44q97 0 163 -36q134 -73 134 -252v-305h-125v278q0 68 -21 113q-43 101 -189 101q-115 0 -175 -62t-60 -178v-252z" />
    <glyph glyph-name="uni0145" unicode="&#x145;" horiz-adv-x="936" 
d="M216 557v-557h-120v711h126l473 -514l28 -35v549h119v-711h-117l-482 524zM387 -243q99 12 111 73q-18 -6 -39 -6q-44 0 -61.5 12t-17.5 47q0 34 22 48t71 14q50 0 71.5 -19.5t21.5 -66.5q0 -66 -40 -105.5t-135 -48.5z" />
    <glyph glyph-name="uni0146" unicode="&#x146;" horiz-adv-x="860" 
d="M210 0h-126v571h109l11 -144q34 78 105.5 122t173.5 44q97 0 163 -36q134 -73 134 -252v-305h-125v278q0 68 -21 113q-43 101 -189 101q-115 0 -175 -62t-60 -178v-252zM367 -249q99 12 111 73q-18 -6 -39 -6q-44 0 -61.5 12t-17.5 47q0 34 22 48t71 14q50 0 71.5 -19.5
t21.5 -66.5q0 -66 -40 -105.5t-135 -48.5z" />
    <glyph glyph-name="Ncaron" unicode="&#x147;" horiz-adv-x="936" 
d="M437 780l-179 214h115l109 -133l113 133h114l-181 -214h-91zM216 557v-557h-120v711h126l473 -514l28 -35v549h119v-711h-117l-482 524z" />
    <glyph glyph-name="ncaron" unicode="&#x148;" horiz-adv-x="860" 
d="M379 678l-179 214h115l109 -133l113 133h114l-181 -214h-91zM210 0h-126v571h109l11 -144q34 78 105.5 122t173.5 44q97 0 163 -36q134 -73 134 -252v-305h-125v278q0 68 -21 113q-43 101 -189 101q-115 0 -175 -62t-60 -178v-252z" />
    <glyph glyph-name="Eng" unicode="&#x14a;" horiz-adv-x="936" 
d="M543 -274v116h31q97 0 123 25q26 26 26 125v9l-467 507l-41 50v-558h-120v711h126l453 -492l49 -59v551h119v-719q0 -165 -50 -216q-50 -50 -208 -50h-41z" />
    <glyph glyph-name="eng" unicode="&#x14b;" horiz-adv-x="862" 
d="M476 -275v113h31q93 0 120 27q28 31 28 140v268q0 63 -20 114q-45 105 -190 105q-114 0 -175 -62t-61 -178v-252h-125v571h109l11 -144q34 78 105.5 122t173.5 44q97 0 163 -36q134 -76 134 -253v-313q0 -162 -52 -214t-209 -52h-43z" />
    <glyph glyph-name="Omacron" unicode="&#x14c;" horiz-adv-x="955" 
d="M282 915h397v-92h-397v92zM476 -19q-118 0 -218 39q-203 86 -203 328v3q0 123 55 204q55 84 149.5 128t216.5 44q118 0 216 -43q208 -94 208 -332v-5q0 -124 -56 -205q-109 -161 -368 -161zM475 93q88 0 155 26q143 54 143 229q0 94 -37 152q-73 115 -260 115
q-140 0 -217 -66t-77 -200v-1q0 -87 37 -143q74 -112 256 -112z" />
    <glyph glyph-name="omacron" unicode="&#x14d;" horiz-adv-x="863" 
d="M235 784h397v-92h-397v92zM427 -19q-375 0 -375 302q0 98 48 167q100 143 331 143q112 0 199 -36q182 -76 182 -274q0 -143 -97.5 -222.5t-287.5 -79.5zM430 85q255 0 255 198q0 102 -66 155.5t-186 53.5q-119 0 -186.5 -53t-67.5 -156q0 -198 251 -198z" />
    <glyph glyph-name="Obreve" unicode="&#x14e;" horiz-adv-x="955" 
d="M473 814q-93 0 -144 29q-91 51 -96 192h92q5 -133 149 -134q73 1 111 36t39 98h94q-1 -63 -27 -114q-53 -107 -218 -107zM476 -19q-118 0 -218 39q-203 86 -203 328v3q0 123 55 204q55 84 149.5 128t216.5 44q118 0 216 -43q208 -94 208 -332v-5q0 -124 -56 -205
q-109 -161 -368 -161zM475 93q88 0 155 26q143 54 143 229q0 94 -37 152q-73 115 -260 115q-140 0 -217 -66t-77 -200v-1q0 -87 37 -143q74 -112 256 -112z" />
    <glyph glyph-name="obreve" unicode="&#x14f;" horiz-adv-x="863" 
d="M424 671q-93 0 -144 29q-91 51 -96 192h92q5 -133 149 -134q73 1 111 36t39 98h94q-1 -63 -27 -114q-53 -107 -218 -107zM427 -19q-375 0 -375 302q0 98 48 167q100 143 331 143q112 0 199 -36q182 -76 182 -274q0 -143 -97.5 -222.5t-287.5 -79.5zM430 85q255 0 255 198
q0 102 -66 155.5t-186 53.5q-119 0 -186.5 -53t-67.5 -156q0 -198 251 -198z" />
    <glyph glyph-name="Ohungarumlaut" unicode="&#x150;" horiz-adv-x="955" 
d="M414 820h-94l179 209h135zM631 820h-96l186 209h134zM476 -19q-118 0 -218 39q-203 86 -203 328v3q0 123 55 204q55 84 149.5 128t216.5 44q118 0 216 -43q208 -94 208 -332v-5q0 -124 -56 -205q-109 -161 -368 -161zM475 93q88 0 155 26q143 54 143 229q0 94 -37 152
q-73 115 -260 115q-140 0 -217 -66t-77 -200v-1q0 -87 37 -143q74 -112 256 -112z" />
    <glyph glyph-name="ohungarumlaut" unicode="&#x151;" horiz-adv-x="863" 
d="M365 684h-94l179 209h135zM582 684h-96l186 209h134zM427 -19q-375 0 -375 302q0 98 48 167q100 143 331 143q112 0 199 -36q182 -76 182 -274q0 -143 -97.5 -222.5t-287.5 -79.5zM430 85q255 0 255 198q0 102 -66 155.5t-186 53.5q-119 0 -186.5 -53t-67.5 -156
q0 -198 251 -198z" />
    <glyph glyph-name="OE" unicode="&#x152;" horiz-adv-x="1479" 
d="M763 75q-98 -94 -287 -94q-118 0 -218 39q-203 86 -203 328v3q0 123 55 204q55 84 149.5 128t216.5 44q187 0 287 -100v84h653v-106h-533v-201h448v-104h-448v-192h555v-108h-675v75zM475 93q88 0 155 26q143 56 143 230q0 93 -37 152q-72 114 -260 114q-140 0 -217 -66
t-77 -200v-1q0 -87 37 -143q74 -112 256 -112z" />
    <glyph glyph-name="oe" unicode="&#x153;" horiz-adv-x="1494" 
d="M1431 163q-29 -68 -85 -110q-98 -72 -286 -72q-225 0 -312 115q-96 -115 -321 -115q-375 0 -375 302q0 98 48 167q100 143 331 143q222 0 320 -127q98 127 319 127q118 0 199 -37q171 -77 171 -266v-50h-634q12 -81 75 -120t189 -39q89 0 141 19.5t79 62.5h141zM1073 495
q-236 0 -266 -163h512q-12 84 -72 123.5t-174 39.5zM430 85q255 0 255 198q0 102 -66 155.5t-186 53.5q-119 0 -186.5 -53t-67.5 -156q0 -198 251 -198z" />
    <glyph glyph-name="Racute" unicode="&#x154;" horiz-adv-x="886" 
d="M581 1028h138l-218 -223h-103zM219 252v-252h-123v711h376q183 0 264 -52t81 -166q0 -81 -40.5 -126.5t-126.5 -63.5q83 -17 118.5 -66t35.5 -147v-45q0 -35 17 -45h-131q-16 9 -16 46v44q0 62 -18 97t-61.5 50t-122.5 15h-253zM466 358q64 0 117 8q107 19 107 112v8
q0 69 -50.5 94t-168.5 25h-252v-247h247z" />
    <glyph glyph-name="racute" unicode="&#x155;" horiz-adv-x="569" 
d="M438 873h138l-218 -223h-103zM84 0v571h108l15 -178q52 182 261 182h62v-122h-66q-96 0 -152 -28q-54 -26 -78 -82.5t-24 -150.5v-192h-126z" />
    <glyph glyph-name="uni0156" unicode="&#x156;" horiz-adv-x="886" 
d="M219 252v-252h-123v711h376q183 0 264 -52t81 -166q0 -81 -40.5 -126.5t-126.5 -63.5q83 -17 118.5 -66t35.5 -147v-45q0 -35 17 -45h-131q-16 9 -16 46v44q0 62 -18 97t-61.5 50t-122.5 15h-253zM466 358q64 0 117 8q107 19 107 112v8q0 69 -50.5 94t-168.5 25h-252
v-247h247zM380 -234q99 12 111 73q-18 -6 -39 -6q-44 0 -61.5 12t-17.5 47q0 34 22 48t71 14q50 0 71.5 -19.5t21.5 -66.5q0 -66 -40 -105.5t-135 -48.5z" />
    <glyph glyph-name="uni0157" unicode="&#x157;" horiz-adv-x="569" 
d="M84 0v571h108l15 -178q52 182 261 182h62v-122h-66q-96 0 -152 -28q-54 -26 -78 -82.5t-24 -150.5v-192h-126zM64 -259q99 12 111 73q-18 -6 -39 -6q-44 0 -61.5 12t-17.5 47q0 34 22 48t71 14q50 0 71.5 -19.5t21.5 -66.5q0 -66 -40 -105.5t-135 -48.5z" />
    <glyph glyph-name="Rcaron" unicode="&#x158;" horiz-adv-x="886" 
d="M401 803l-179 214h115l109 -133l113 133h114l-181 -214h-91zM219 252v-252h-123v711h376q183 0 264 -52t81 -166q0 -81 -40.5 -126.5t-126.5 -63.5q83 -17 118.5 -66t35.5 -147v-45q0 -35 17 -45h-131q-16 9 -16 46v44q0 62 -18 97t-61.5 50t-122.5 15h-253zM466 358
q64 0 117 8q107 19 107 112v8q0 69 -50.5 94t-168.5 25h-252v-247h247z" />
    <glyph glyph-name="rcaron" unicode="&#x159;" horiz-adv-x="569" 
d="M260 647l-179 214h115l109 -133l113 133h114l-181 -214h-91zM84 0v571h108l15 -178q52 182 261 182h62v-122h-66q-96 0 -152 -28q-54 -26 -78 -82.5t-24 -150.5v-192h-126z" />
    <glyph glyph-name="Sacute" unicode="&#x15a;" horiz-adv-x="854" 
d="M545 1042h138l-218 -223h-103zM449 -20q-142 0 -228 29q-87 29 -134 88t-62 154h133q17 -90 86.5 -126.5t207.5 -36.5q120 0 176 28t56 84q0 43 -28 65q-27 19 -87 27.5t-182 15.5q-107 7 -183 27q-144 37 -144 174q0 102 87.5 160t256.5 58q181 0 280 -59.5t121 -182.5
h-131q-12 74 -80 105.5t-192 31.5q-218 0 -218 -110q0 -35 22 -54q20 -20 74.5 -30t161.5 -16q118 -6 207 -27q83 -20 121 -61.5t38 -114.5q0 -229 -359 -229z" />
    <glyph glyph-name="sacute" unicode="&#x15b;" horiz-adv-x="776" 
d="M519 903h138l-218 -223h-103zM404 -19q-336 0 -380 212h142q17 -64 76.5 -89t167.5 -25q78 0 121 12q81 22 81 79q0 27 -20 41q-37 27 -225 33q-117 5 -183 20q-70 17 -102 51t-32 90q0 85 78.5 136.5t228.5 51.5q157 0 247.5 -48t122.5 -151h-134q-34 107 -236 107
q-69 0 -111 -12q-75 -22 -75 -75q0 -24 18 -41q32 -27 219 -34q125 -5 195 -22q71 -17 101.5 -51t30.5 -94q0 -55 -36 -97q-76 -94 -295 -94z" />
    <glyph glyph-name="Scircumflex" unicode="&#x15c;" horiz-adv-x="854" 
d="M412 952l-112 -134h-114l178 209h95l179 -209h-113zM449 -20q-142 0 -228 29q-87 29 -134 88t-62 154h133q17 -90 86.5 -126.5t207.5 -36.5q120 0 176 28t56 84q0 43 -28 65q-27 19 -87 27.5t-182 15.5q-107 7 -183 27q-144 37 -144 174q0 102 87.5 160t256.5 58
q181 0 280 -59.5t121 -182.5h-131q-12 74 -80 105.5t-192 31.5q-218 0 -218 -110q0 -35 22 -54q20 -20 74.5 -30t161.5 -16q118 -6 207 -27q83 -20 121 -61.5t38 -114.5q0 -229 -359 -229z" />
    <glyph glyph-name="scircumflex" unicode="&#x15d;" horiz-adv-x="776" 
d="M373 821l-112 -134h-114l178 209h95l179 -209h-113zM404 -19q-336 0 -380 212h142q17 -64 76.5 -89t167.5 -25q78 0 121 12q81 22 81 79q0 27 -20 41q-37 27 -225 33q-117 5 -183 20q-70 17 -102 51t-32 90q0 85 78.5 136.5t228.5 51.5q157 0 247.5 -48t122.5 -151h-134
q-34 107 -236 107q-69 0 -111 -12q-75 -22 -75 -75q0 -24 18 -41q32 -27 219 -34q125 -5 195 -22q71 -17 101.5 -51t30.5 -94q0 -55 -36 -97q-76 -94 -295 -94z" />
    <glyph glyph-name="uni015E" unicode="&#x15e;" horiz-adv-x="854" 
d="M459 -309q-98 0 -146.5 36t-61.5 103h104q5 -32 32 -50t71 -18q93 0 93 61q0 26 -22 39t-76 13h-55v106q-121 5 -199 36q-145 56 -174 234h133q17 -90 86.5 -126.5t207.5 -36.5q120 0 176 28t56 84q0 43 -28 65q-27 19 -87 27.5t-182 15.5q-107 7 -183 27
q-144 37 -144 174q0 102 87.5 160t256.5 58q181 0 280 -59.5t121 -182.5h-131q-12 74 -80 105.5t-192 31.5q-218 0 -218 -110q0 -35 22 -54q20 -20 74.5 -30t161.5 -16q118 -6 207 -27q83 -20 121 -61.5t38 -114.5q0 -215 -319 -228v-41q151 -4 151 -114q0 -62 -47 -98.5
t-134 -36.5z" />
    <glyph glyph-name="uni015F" unicode="&#x15f;" horiz-adv-x="776" 
d="M387 -310q-98 0 -146.5 36t-61.5 103h104q5 -32 32 -50t71 -18q93 0 93 61q0 26 -22 39t-76 13h-55v110q-264 20 -302 209h142q17 -64 76.5 -89t167.5 -25q78 0 121 12q81 22 81 79q0 27 -20 41q-37 27 -225 33q-117 5 -183 20q-70 17 -102 51t-32 90q0 85 78.5 136.5
t228.5 51.5q157 0 247.5 -48t122.5 -151h-134q-34 107 -236 107q-69 0 -111 -12q-75 -22 -75 -75q0 -24 18 -41q32 -27 219 -34q125 -5 195 -22q71 -17 101.5 -51t30.5 -94q0 -53 -34 -96q-79 -94 -284 -95v-42q151 -4 151 -114q0 -62 -47 -98.5t-134 -36.5z" />
    <glyph glyph-name="Scaron" unicode="&#x160;" horiz-adv-x="854" 
d="M369 817l-179 214h115l109 -133l113 133h114l-181 -214h-91zM449 -20q-142 0 -228 29q-87 29 -134 88t-62 154h133q17 -90 86.5 -126.5t207.5 -36.5q120 0 176 28t56 84q0 43 -28 65q-27 19 -87 27.5t-182 15.5q-107 7 -183 27q-144 37 -144 174q0 102 87.5 160t256.5 58
q181 0 280 -59.5t121 -182.5h-131q-12 74 -80 105.5t-192 31.5q-218 0 -218 -110q0 -35 22 -54q20 -20 74.5 -30t161.5 -16q118 -6 207 -27q83 -20 121 -61.5t38 -114.5q0 -229 -359 -229z" />
    <glyph glyph-name="scaron" unicode="&#x161;" horiz-adv-x="776" 
d="M350 673l-179 214h115l109 -133l113 133h114l-181 -214h-91zM404 -19q-336 0 -380 212h142q17 -64 76.5 -89t167.5 -25q78 0 121 12q81 22 81 79q0 27 -20 41q-37 27 -225 33q-117 5 -183 20q-70 17 -102 51t-32 90q0 85 78.5 136.5t228.5 51.5q157 0 247.5 -48
t122.5 -151h-134q-34 107 -236 107q-69 0 -111 -12q-75 -22 -75 -75q0 -24 18 -41q32 -27 219 -34q125 -5 195 -22q71 -17 101.5 -51t30.5 -94q0 -55 -36 -97q-76 -94 -295 -94z" />
    <glyph glyph-name="uni0162" unicode="&#x162;" horiz-adv-x="765" 
d="M439 604v-604h-126v604h-276v107h691v-107h-289zM288 -258q99 12 111 73q-18 -6 -39 -6q-44 0 -61.5 12t-17.5 47q0 34 22 48t71 14q50 0 71.5 -19.5t21.5 -66.5q0 -66 -40 -105.5t-135 -48.5z" />
    <glyph glyph-name="uni0163" unicode="&#x163;" horiz-adv-x="568" 
d="M533 0h-109q-96 0 -155 25q-56 26 -80.5 84.5t-24.5 161.5v194h-155v100h32q56 2 68 3q34 4 45 14t17 39q8 35 8 109h103v-159h251v-106h-251v-175q0 -75 14 -117q14 -37 50 -50.5t108 -13.5h79v-109zM222 -257q99 12 111 73q-18 -6 -39 -6q-44 0 -61.5 12t-17.5 47
q0 34 22 48t71 14q50 0 71.5 -19.5t21.5 -66.5q0 -66 -40 -105.5t-135 -48.5z" />
    <glyph glyph-name="Tcaron" unicode="&#x164;" horiz-adv-x="765" 
d="M332 803l-179 214h115l109 -133l113 133h114l-181 -214h-91zM439 604v-604h-126v604h-276v107h691v-107h-289z" />
    <glyph glyph-name="tcaron" unicode="&#x165;" horiz-adv-x="568" 
d="M500 851h114l-87 -202h-87zM533 0h-109q-96 0 -155 25q-56 26 -80.5 84.5t-24.5 161.5v194h-155v100h32q56 2 68 3q34 4 45 14t17 39q8 35 8 109h103v-159h251v-106h-251v-175q0 -75 14 -117q14 -37 50 -50.5t108 -13.5h79v-109z" />
    <glyph glyph-name="Tbar" unicode="&#x166;" horiz-adv-x="765" 
d="M439 271v-271h-126v271h-152v98h152v235h-276v107h691v-107h-289v-235h166v-98h-166z" />
    <glyph glyph-name="tbar" unicode="&#x167;" horiz-adv-x="568" 
d="M533 0h-109q-96 0 -155 25q-56 25 -80 82t-24 157h-124v82h124v119h-156v100h32q58 2 70 3q32 4 43.5 14t18.5 39q7 31 7 113h102v-163h251v-106h-251v-119h183v-82h-183q1 -65 18 -100q14 -32 49.5 -43.5t104.5 -11.5h79v-109z" />
    <glyph glyph-name="Utilde" unicode="&#x168;" horiz-adv-x="910" 
d="M215 780q-1 70 32 111t103 41q53 0 112 -35q58 -36 92 -36q57 0 58 68h77q0 -74 -31 -113t-104 -39q-53 0 -112 35t-93 35q-29 0 -42.5 -16.5t-15.5 -50.5h-76zM456 -20q-192 0 -283.5 95.5t-91.5 306.5v329h129v-326q0 -152 59 -219t188 -67q128 0 185.5 66t57.5 221
v325h129v-328q0 -140 -43 -232q-85 -171 -330 -171z" />
    <glyph glyph-name="utilde" unicode="&#x169;" horiz-adv-x="840" 
d="M174 641q-1 70 32 111t103 41q53 0 112 -35q58 -36 92 -36q57 0 58 68h77q0 -74 -31 -113t-104 -39q-53 0 -112 35t-93 35q-29 0 -42.5 -16.5t-15.5 -50.5h-76zM638 150q-29 -80 -98.5 -124.5t-172.5 -44.5q-142 0 -215 74t-73 211v305h125v-282q0 -102 50 -153t160 -51
q103 0 159.5 59t56.5 165v262h126v-571h-107z" />
    <glyph glyph-name="Umacron" unicode="&#x16a;" horiz-adv-x="910" 
d="M266 883h397v-92h-397v92zM456 -20q-192 0 -283.5 95.5t-91.5 306.5v329h129v-326q0 -152 59 -219t188 -67q128 0 185.5 66t57.5 221v325h129v-328q0 -140 -43 -232q-85 -171 -330 -171z" />
    <glyph glyph-name="umacron" unicode="&#x16b;" horiz-adv-x="840" 
d="M225 743h397v-92h-397v92zM638 150q-29 -80 -98.5 -124.5t-172.5 -44.5q-142 0 -215 74t-73 211v305h125v-282q0 -102 50 -153t160 -51q103 0 159.5 59t56.5 165v262h126v-571h-107z" />
    <glyph glyph-name="Ubreve" unicode="&#x16c;" horiz-adv-x="910" 
d="M458 782q-93 0 -144 29q-91 51 -96 192h92q5 -133 149 -134q73 1 111 36t39 98h94q-1 -63 -27 -114q-53 -107 -218 -107zM456 -20q-192 0 -283.5 95.5t-91.5 306.5v329h129v-326q0 -152 59 -219t188 -67q128 0 185.5 66t57.5 221v325h129v-328q0 -140 -43 -232
q-85 -171 -330 -171z" />
    <glyph glyph-name="ubreve" unicode="&#x16d;" horiz-adv-x="840" 
d="M417 642q-93 0 -144 29q-91 51 -96 192h92q5 -133 149 -134q73 1 111 36t39 98h94q-1 -63 -27 -114q-53 -107 -218 -107zM638 150q-29 -80 -98.5 -124.5t-172.5 -44.5q-142 0 -215 74t-73 211v305h125v-282q0 -102 50 -153t160 -51q103 0 159.5 59t56.5 165v262h126v-571
h-107z" />
    <glyph glyph-name="Uring" unicode="&#x16e;" horiz-adv-x="910" 
d="M457 782q-65 0 -102.5 37t-37.5 101q0 65 38.5 103t101.5 38q66 0 104.5 -37t38.5 -104q0 -62 -39 -100t-104 -38zM457 859q26 0 45.5 15.5t19.5 45.5q0 32 -17.5 49t-47.5 17q-29 0 -46 -17t-17 -49q0 -61 63 -61zM456 -20q-192 0 -283.5 95.5t-91.5 306.5v329h129v-326
q0 -152 59 -219t188 -67q128 0 185.5 66t57.5 221v325h129v-328q0 -140 -43 -232q-85 -171 -330 -171z" />
    <glyph glyph-name="uring" unicode="&#x16f;" horiz-adv-x="840" 
d="M418 634q-66 0 -103 37t-37 101q0 65 38.5 103t101.5 38q66 0 104.5 -37t38.5 -104q0 -62 -39 -100t-104 -38zM418 711q26 0 45.5 15.5t19.5 45.5q0 32 -17.5 49t-47.5 17q-29 0 -46 -17t-17 -49q0 -61 63 -61zM638 150q-29 -80 -98.5 -124.5t-172.5 -44.5
q-142 0 -215 74t-73 211v305h125v-282q0 -102 50 -153t160 -51q103 0 159.5 59t56.5 165v262h126v-571h-107z" />
    <glyph glyph-name="Uhungarumlaut" unicode="&#x170;" horiz-adv-x="910" 
d="M399 788h-94l179 209h135zM616 788h-96l186 209h134zM456 -20q-192 0 -283.5 95.5t-91.5 306.5v329h129v-326q0 -152 59 -219t188 -67q128 0 185.5 66t57.5 221v325h129v-328q0 -140 -43 -232q-85 -171 -330 -171z" />
    <glyph glyph-name="uhungarumlaut" unicode="&#x171;" horiz-adv-x="840" 
d="M358 648h-94l179 209h135zM575 648h-96l186 209h134zM638 150q-29 -80 -98.5 -124.5t-172.5 -44.5q-142 0 -215 74t-73 211v305h125v-282q0 -102 50 -153t160 -51q103 0 159.5 59t56.5 165v262h126v-571h-107z" />
    <glyph glyph-name="Uogonek" unicode="&#x172;" horiz-adv-x="910" 
d="M562 -252q-77 0 -121 31.5t-44 90.5q0 61 52 110q-188 1 -278 96.5t-90 305.5v329h129v-326q0 -152 59 -219t188 -67q128 0 185.5 66t57.5 221v325h129v-328q0 -295 -196 -374q-58 -30 -88 -52q-55 -37 -55 -78q0 -26 22 -42t57 -16q64 0 92 54h106q-58 -127 -205 -127z
" />
    <glyph glyph-name="uogonek" unicode="&#x173;" horiz-adv-x="840" 
d="M881 -139q-58 -127 -205 -127q-77 0 -121 31.5t-44 90.5q0 25 11 55q24 58 125 111l-9 128q-29 -80 -98.5 -124.5t-172.5 -44.5q-142 0 -215 74t-73 211v305h125v-282q0 -102 50 -153t160 -51q103 0 159.5 59t56.5 165v262h126v-571q-44 -23 -93 -55q-59 -39 -59 -80
q0 -26 22 -42t57 -16q64 0 92 54h106z" />
    <glyph glyph-name="Wcircumflex" unicode="&#x174;" horiz-adv-x="1292" 
d="M642 938l-112 -134h-114l178 209h95l179 -209h-113zM638 560l-270 -560h-123l-229 711h128l178 -564l269 564h100l238 -566l220 566h127l-286 -711h-118z" />
    <glyph glyph-name="wcircumflex" unicode="&#x175;" horiz-adv-x="1133" 
d="M567 798l-112 -134h-114l178 209h95l179 -209h-113zM560 439l-227 -439h-109l-208 571h129l149 -428l219 428h101l202 -432l175 432h125l-241 -571h-108z" />
    <glyph glyph-name="Ycircumflex" unicode="&#x176;" horiz-adv-x="811" 
d="M395 928l-112 -134h-114l178 209h95l179 -209h-113zM322 0v295l-326 416h152l241 -315l261 315h151l-350 -418v-293h-129z" />
    <glyph glyph-name="ycircumflex" unicode="&#x177;" horiz-adv-x="792" 
d="M399 787l-112 -134h-114l178 209h95l179 -209h-113zM41 -255l-1 109h62q87 0 126 27q40 27 89 111l19 32l-324 547h137l250 -429l2 -6l3 6l247 429h135l-354 -603q-85 -145 -144 -185q-34 -22 -77 -30t-115 -8h-55z" />
    <glyph glyph-name="Ydieresis" unicode="&#x178;" horiz-adv-x="811" 
d="M278 790q-44 0 -62.5 17t-18.5 58q0 40 20 58t61 18t60.5 -18t19.5 -58t-19.5 -57.5t-60.5 -17.5zM518 790q-44 0 -62 17t-18 58q0 40 20 58t61 18t60.5 -18t19.5 -58t-19.5 -57.5t-61.5 -17.5zM322 0v295l-326 416h152l241 -315l261 315h151l-350 -418v-293h-129z" />
    <glyph glyph-name="Zacute" unicode="&#x179;" horiz-adv-x="795" 
d="M544 1027h138l-218 -223h-103zM40 0v104l554 501h-527v106h688v-114l-539 -486h536v-111h-712z" />
    <glyph glyph-name="zacute" unicode="&#x17a;" horiz-adv-x="747" 
d="M520 888h138l-218 -223h-103zM33 94l511 383h-484v94h652v-92l-506 -381h511v-98l-684 -1v95z" />
    <glyph glyph-name="Zdotaccent" unicode="&#x17b;" horiz-adv-x="795" 
d="M412 802q-48 0 -68 18t-20 64q0 43 21.5 62.5t66.5 19.5t66.5 -19.5t21.5 -62.5q0 -82 -88 -82zM40 0v104l554 501h-527v106h688v-114l-539 -486h536v-111h-712z" />
    <glyph glyph-name="zdotaccent" unicode="&#x17c;" horiz-adv-x="747" 
d="M388 663q-48 0 -68 18t-20 64q0 43 21.5 62.5t66.5 19.5t66.5 -19.5t21.5 -62.5q0 -82 -88 -82zM33 94l511 383h-484v94h652v-92l-506 -381h511v-98l-684 -1v95z" />
    <glyph glyph-name="Zcaron" unicode="&#x17d;" horiz-adv-x="795" 
d="M363 802l-179 214h115l109 -133l113 133h114l-181 -214h-91zM40 0v104l554 501h-527v106h688v-114l-539 -486h536v-111h-712z" />
    <glyph glyph-name="zcaron" unicode="&#x17e;" horiz-adv-x="747" 
d="M340 663l-179 214h115l109 -133l113 133h114l-181 -214h-91zM33 94l511 383h-484v94h652v-92l-506 -381h511v-98l-684 -1v95z" />
    <glyph glyph-name="uni0192" unicode="&#x192;" horiz-adv-x="622" 
d="M366 102q0 -160 -48 -208q-28 -28 -75.5 -38.5t-129.5 -10.5h-87v103h77q92 0 118 25q27 28 27 133v193h-195v107h195v172q0 91 24 144q24 52 76 75t140 23h87v-100h-71q-56 0 -87 -11q-29 -11 -39.5 -43.5t-10.5 -102.5v-157h209v-107h-210v-197z" />
    <glyph glyph-name="Aringacute" unicode="&#x1fa;" horiz-adv-x="895" 
d="M583 1194h138l-218 -223h-103zM145 0h-134l343 660q-45 39 -45 108q0 65 38.5 103t101.5 38q66 0 104.5 -37t38.5 -104q0 -76 -54 -112l346 -656h-132l-92 178h-426zM386 768q0 -45 36 -57h51q41 14 41 57q0 32 -17.5 49t-47.5 17q-29 0 -46 -17t-17 -49zM444 598
l-159 -318h323z" />
    <glyph glyph-name="aringacute" unicode="&#x1fb;" horiz-adv-x="831" 
d="M565 1228h138l-218 -223h-103zM422 658q-66 0 -103 37t-37 101q0 65 38.5 103t101.5 38q66 0 104.5 -37t38.5 -104q0 -62 -39 -100t-104 -38zM422 735q26 0 45.5 15.5t19.5 45.5q0 32 -17.5 49t-47.5 17q-29 0 -46 -17t-17 -49q0 -61 63 -61zM637 157q-24 -49 -70 -89
q-101 -87 -279 -87q-237 0 -237 159v1q0 92 81 136q29 17 64 27q71 22 243 32q67 4 116 11q42 6 59.5 19t17.5 37v1q0 24 -18 46q-40 51 -178 51q-124 0 -179.5 -31.5t-64.5 -101.5h-128q14 115 104 170t258 55q167 0 246 -51.5t79 -165.5v-376h-102zM322 71q138 0 227 68
q85 65 85 143v24q-29 -38 -184 -47q-179 -10 -227 -41q-40 -24 -40 -67v-1q0 -79 139 -79z" />
    <glyph glyph-name="AEacute" unicode="&#x1fc;" horiz-adv-x="1324" 
d="M711 1028h138l-218 -223h-103zM649 214h-371l-155 -214h-138l529 711h750v-106h-589l43 -195h461v-105h-437l43 -196h501v-109h-590zM562 606l-208 -287h272z" />
    <glyph glyph-name="aeacute" unicode="&#x1fd;" horiz-adv-x="1431" 
d="M870 866h138l-218 -223h-103zM1372 163q-29 -67 -84 -110q-100 -72 -287 -72q-273 0 -340 171q-43 -77 -137.5 -124t-229.5 -47q-239 0 -239 159v1q0 94 80 136q29 17 64 27q71 22 243 32q67 4 116 11q43 6 61 19t18 37v1q0 24 -18 46q-40 51 -178 51q-82 0 -136 -14
q-97 -26 -110 -119h-127q28 225 363 225q216 0 286 -102q99 102 294 102q117 0 200 -37q171 -77 171 -266v-50h-635q12 -81 75.5 -120t188.5 -39q89 0 140.5 19t80.5 63h140zM1014 495q-236 0 -266 -163h512q-12 84 -72 123.5t-174 39.5zM325 72q138 0 227 68q83 64 85 142
q0 12 1 21q-30 -34 -185 -44q-182 -11 -227 -41q-39 -25 -39 -67v-1q0 -39 32 -58.5t106 -19.5z" />
    <glyph glyph-name="Oslashacute" unicode="&#x1fe;" horiz-adv-x="955" 
d="M624 1052h138l-218 -223h-103zM476 -19q-96 0 -175 23l-63 -94h-108l88 130q-163 93 -163 308v3q0 123 55 204q55 84 149.5 128t216.5 44q90 0 171 -25l59 90h108l-83 -128q169 -100 169 -312v-5q0 -124 -56 -205q-109 -161 -368 -161zM182 348q0 -143 104 -209l299 464
q-50 12 -109 12q-140 0 -217 -66t-77 -200v-1zM475 93q88 0 155 26q143 54 143 229q0 155 -106 221l-300 -464q51 -12 108 -12z" />
    <glyph glyph-name="oslashacute" unicode="&#x1ff;" horiz-adv-x="874" 
d="M568 896h138l-218 -223h-103zM433 -19q-71 0 -122 10l-52 -81h-115l72 108q-164 68 -164 265q0 97 49 167q100 143 336 143q79 0 136 -15l53 82h113l-75 -114q158 -80 158 -261q0 -144 -98.5 -224t-290.5 -80zM178 285q0 -125 101 -172l235 371q-34 6 -75 6
q-123 0 -192 -51t-69 -154zM436 85q262 0 262 200q0 120 -94 169l-232 -366q60 -3 64 -3z" />
    <glyph glyph-name="uni0218" unicode="&#x218;" horiz-adv-x="854" 
d="M449 -20q-142 0 -228 29q-87 29 -134 88t-62 154h133q17 -90 86.5 -126.5t207.5 -36.5q120 0 176 28t56 84q0 43 -28 65q-27 19 -87 27.5t-182 15.5q-107 7 -183 27q-144 37 -144 174q0 102 87.5 160t256.5 58q181 0 280 -59.5t121 -182.5h-131q-12 74 -80 105.5
t-192 31.5q-218 0 -218 -110q0 -35 22 -54q20 -20 74.5 -30t161.5 -16q118 -6 207 -27q83 -20 121 -61.5t38 -114.5q0 -229 -359 -229zM369 -276q99 12 111 73q-18 -6 -39 -6q-44 0 -61.5 12t-17.5 47q0 34 22 48t71 14q50 0 71.5 -19.5t21.5 -66.5q0 -66 -40 -105.5
t-135 -48.5z" />
    <glyph glyph-name="uni0219" unicode="&#x219;" horiz-adv-x="776" 
d="M404 -19q-336 0 -380 212h142q17 -64 76.5 -89t167.5 -25q78 0 121 12q81 22 81 79q0 27 -20 41q-37 27 -225 33q-117 5 -183 20q-70 17 -102 51t-32 90q0 85 78.5 136.5t228.5 51.5q157 0 247.5 -48t122.5 -151h-134q-34 107 -236 107q-69 0 -111 -12q-75 -22 -75 -75
q0 -24 18 -41q32 -27 219 -34q125 -5 195 -22q71 -17 101.5 -51t30.5 -94q0 -55 -36 -97q-76 -94 -295 -94zM319 -276q99 12 111 73q-18 -6 -39 -6q-44 0 -61.5 12t-17.5 47q0 34 22 48t71 14q50 0 71.5 -19.5t21.5 -66.5q0 -66 -40 -105.5t-135 -48.5z" />
    <glyph glyph-name="uni0237" unicode="&#x237;" horiz-adv-x="301" 
d="M-87 -162h31q92 0 119 27q26 30 26 140v566h124v-580q0 -164 -50 -214t-207 -50h-43v111z" />
    <glyph glyph-name="uni0245" unicode="&#x245;" horiz-adv-x="895" 
d="M445 599l-300 -599h-134l369 711h129l375 -711h-132z" />
    <glyph glyph-name="circumflex" unicode="&#x2c6;" horiz-adv-x="691" 
d="M345 809l-112 -134h-114l178 209h95l179 -209h-113z" />
    <glyph glyph-name="caron" unicode="&#x2c7;" horiz-adv-x="691" 
d="M298 674l-179 214h115l109 -133l113 133h114l-181 -214h-91z" />
    <glyph glyph-name="breve" unicode="&#x2d8;" horiz-adv-x="691" 
d="M342 670q-93 0 -144 29q-91 51 -96 192h92q5 -133 149 -134q73 1 111 36t39 98h94q-1 -63 -27 -114q-53 -107 -218 -107z" />
    <glyph glyph-name="dotaccent" unicode="&#x2d9;" horiz-adv-x="695" 
d="M334 674q-48 0 -68 18t-20 64q0 43 21.5 62.5t66.5 19.5t66.5 -19.5t21.5 -62.5q0 -82 -88 -82z" />
    <glyph glyph-name="ring" unicode="&#x2da;" horiz-adv-x="691" 
d="M340 670q-66 0 -103 37t-37 101q0 65 38.5 103t101.5 38q66 0 104.5 -37t38.5 -104q0 -62 -39 -100t-104 -38zM340 747q26 0 45.5 15.5t19.5 45.5q0 32 -17.5 49t-47.5 17q-29 0 -46 -17t-17 -49q0 -61 63 -61z" />
    <glyph glyph-name="ogonek" unicode="&#x2db;" horiz-adv-x="691" 
d="M337 -266q-77 0 -121 31.5t-44 90.5q0 30 14 61q31 65 159 122l72 -39q-44 -23 -93 -55q-59 -39 -59 -80q0 -26 22 -42t57 -16q64 0 92 54h106q-58 -127 -205 -127z" />
    <glyph glyph-name="tilde" unicode="&#x2dc;" horiz-adv-x="691" 
d="M98 669q-1 70 32 111t103 41q53 0 112 -35q58 -36 92 -36q57 0 58 68h77q0 -74 -31 -113t-104 -39q-53 0 -112 35t-93 35q-29 0 -42.5 -16.5t-15.5 -50.5h-76z" />
    <glyph glyph-name="hungarumlaut" unicode="&#x2dd;" horiz-adv-x="691" 
d="M184 676h-94l179 209h135zM401 676h-96l186 209h134z" />
    <glyph glyph-name="uni03BC" unicode="&#x3bc;" horiz-adv-x="837" 
d="M386 -17q-130 0 -187 85v-272h-122v775h125v-254q0 -57 21 -114q48 -110 183 -110q69 0 119 33q100 70 100 220v225h125v-571h-108l-10 149q-30 -77 -93 -121.5t-153 -44.5z" />
    <glyph glyph-name="pi" unicode="&#x3c0;" horiz-adv-x="908" 
d="M575 593h-255v-593h-124v593h-170v118h858v-118h-186v-313q0 -75 13 -108q11 -34 42 -45.5t95 -11.5h25v-115h-35q-159 0 -210 50q-53 50 -53 215v328z" />
    <glyph glyph-name="uni0E3F" unicode="&#xe3f;" horiz-adv-x="876" 
d="M411 -120v120h-315v711h315v124h95v-124q166 -3 241 -45t75 -140v-4q0 -70 -37.5 -106.5t-118.5 -51.5q92 -12 133.5 -49t41.5 -112v-3q0 -106 -82 -151.5t-253 -48.5v-120h-95zM411 411v201h-195v-201h195zM701 514q0 57 -44 77t-151 21v-201q56 0 102 8q93 17 93 92v3z
M411 104v210h-195v-210h195zM716 210q0 43 -22 65q-37 37 -188 39v-210q77 1 124 12q46 9 66 30.5t20 60.5v3z" />
    <glyph glyph-name="Wgrave" unicode="&#x1e80;" horiz-adv-x="1292" 
d="M380 1013h141l181 -209h-104zM638 560l-270 -560h-123l-229 711h128l178 -564l269 564h100l238 -566l220 566h127l-286 -711h-118z" />
    <glyph glyph-name="wgrave" unicode="&#x1e81;" horiz-adv-x="1133" 
d="M305 873h141l181 -209h-104zM560 439l-227 -439h-109l-208 571h129l149 -428l219 428h101l202 -432l175 432h125l-241 -571h-108z" />
    <glyph glyph-name="Wacute" unicode="&#x1e82;" horiz-adv-x="1292" 
d="M776 1028h138l-218 -223h-103zM638 560l-270 -560h-123l-229 711h128l178 -564l269 564h100l238 -566l220 566h127l-286 -711h-118z" />
    <glyph glyph-name="wacute" unicode="&#x1e83;" horiz-adv-x="1133" 
d="M701 888h138l-218 -223h-103zM560 439l-227 -439h-109l-208 571h129l149 -428l219 428h101l202 -432l175 432h125l-241 -571h-108z" />
    <glyph glyph-name="Wdieresis" unicode="&#x1e84;" horiz-adv-x="1292" 
d="M525 800q-44 0 -62.5 17t-18.5 58q0 40 20 58t61 18t60.5 -18t19.5 -58t-19.5 -57.5t-60.5 -17.5zM765 800q-44 0 -62 17t-18 58q0 40 20 58t61 18t60.5 -18t19.5 -58t-19.5 -57.5t-61.5 -17.5zM638 560l-270 -560h-123l-229 711h128l178 -564l269 564h100l238 -566
l220 566h127l-286 -711h-118z" />
    <glyph glyph-name="wdieresis" unicode="&#x1e85;" horiz-adv-x="1133" 
d="M450 660q-44 0 -62.5 17t-18.5 58q0 40 20 58t61 18t60.5 -18t19.5 -58t-19.5 -57.5t-60.5 -17.5zM690 660q-44 0 -62 17t-18 58q0 40 20 58t61 18t60.5 -18t19.5 -58t-19.5 -57.5t-61.5 -17.5zM560 439l-227 -439h-109l-208 571h129l149 -428l219 428h101l202 -432
l175 432h125l-241 -571h-108z" />
    <glyph glyph-name="Ygrave" unicode="&#x1ef2;" horiz-adv-x="811" 
d="M151 979h141l181 -209h-104zM322 0v295l-326 416h152l241 -315l261 315h151l-350 -418v-293h-129z" />
    <glyph glyph-name="ygrave" unicode="&#x1ef3;" horiz-adv-x="792" 
d="M137 861h141l181 -209h-104zM41 -255l-1 109h62q87 0 126 27q40 27 89 111l19 32l-324 547h137l250 -429l2 -6l3 6l247 429h135l-354 -603q-85 -145 -144 -185q-34 -22 -77 -30t-115 -8h-55z" />
    <glyph glyph-name="figuredash" unicode="&#x2012;" horiz-adv-x="836" 
d="M762 263h-688v123h688v-123z" />
    <glyph glyph-name="endash" unicode="&#x2013;" horiz-adv-x="656" 
d="M582 263h-508v123h508v-123z" />
    <glyph glyph-name="emdash" unicode="&#x2014;" horiz-adv-x="925" 
d="M850 263h-776v123h776v-123z" />
    <glyph glyph-name="uni2015" unicode="&#x2015;" horiz-adv-x="1361" 
d="M1287 263h-1213v123h1213v-123z" />
    <glyph glyph-name="uni2016" unicode="&#x2016;" horiz-adv-x="675" 
d="M107 -103v879h123v-879h-123zM445 -103v879h124v-879h-124z" />
    <glyph glyph-name="underscoredbl" unicode="&#x2017;" horiz-adv-x="845" 
d="M809 0h-773v86h773v-86zM809 -177h-773v86h773v-86z" />
    <glyph glyph-name="quoteleft" unicode="&#x2018;" horiz-adv-x="342" 
d="M176 422q-45 0 -64.5 24t-19.5 80q0 146 137 189l18 -50q-45 -19 -66.5 -44.5t-24.5 -66.5q11 5 29 5q39 0 54 -14t15 -52q0 -71 -78 -71z" />
    <glyph glyph-name="quoteright" unicode="&#x2019;" horiz-adv-x="342" 
d="M100 476q45 19 66.5 44.5t24.5 66.5q-15 -5 -29 -5q-38 0 -53.5 14t-15.5 52t19 54.5t59 16.5q45 0 64.5 -24t19.5 -80q0 -146 -137 -189z" />
    <glyph glyph-name="quotesinglbase" unicode="&#x201a;" horiz-adv-x="365" 
d="M100 -105q38 8 62.5 36t29.5 69q-10 -2 -18 -2q-39 0 -54.5 13.5t-15.5 52.5q0 38 19 54.5t59 16.5q44 0 63.5 -23.5t19.5 -78.5q0 -72 -37.5 -121t-110.5 -67z" />
    <glyph glyph-name="uni201B" unicode="&#x201b;" horiz-adv-x="342" 
d="M224 426q-136 43 -136 192q0 101 85 101q40 0 58.5 -16t18.5 -54t-16 -52.5t-54 -14.5l-21 3q8 -85 83 -109z" />
    <glyph glyph-name="quotedblleft" unicode="&#x201c;" horiz-adv-x="597" 
d="M176 422q-45 0 -64.5 24t-19.5 80q0 146 137 189l18 -50q-45 -19 -66.5 -44.5t-24.5 -66.5q11 5 29 5q39 0 54 -14t15 -52q0 -71 -78 -71zM431 422q-45 0 -64.5 24t-19.5 80q0 145 137 189l19 -50q-46 -19 -67.5 -44.5t-24.5 -66.5q11 5 29 5q39 0 54.5 -14t15.5 -52
q0 -37 -19 -54t-60 -17z" />
    <glyph glyph-name="quotedblright" unicode="&#x201d;" horiz-adv-x="597" 
d="M98 476q45 19 66.5 44.5t24.5 66.5q-15 -5 -29 -5q-38 0 -53.5 14t-15.5 52t19 54.5t59 16.5q45 0 64.5 -24t19.5 -80q0 -146 -137 -189zM353 476q46 19 67.5 44.5t24.5 66.5q-15 -5 -30 -5q-38 0 -53.5 14t-15.5 52t19 54.5t59 16.5q45 0 64.5 -24t19.5 -80
q0 -146 -136 -189z" />
    <glyph glyph-name="quotedblbase" unicode="&#x201e;" horiz-adv-x="600" 
d="M95 -107q46 19 67.5 44t24.5 66q-15 -5 -30 -5q-38 0 -53.5 14t-15.5 52t19 54.5t59 16.5q45 0 64.5 -23.5t19.5 -79.5q0 -147 -136 -189zM350 -107q46 19 67.5 44t24.5 66q-15 -5 -29 -5q-38 0 -54 14t-16 52t19 54.5t60 16.5q45 0 64.5 -23.5t19.5 -79.5
q0 -147 -137 -189z" />
    <glyph glyph-name="uni201F" unicode="&#x201f;" horiz-adv-x="597" 
d="M219 426q-133 41 -133 192q0 101 83 101q42 0 60.5 -16t18.5 -54t-16 -52.5t-55 -14.5q-6 0 -20 2q6 -84 81 -108zM474 426q-132 42 -132 192q0 101 83 101q41 0 59.5 -16t18.5 -54t-16 -52.5t-55 -14.5q-6 0 -20 2q6 -84 81 -108z" />
    <glyph glyph-name="dagger" unicode="&#x2020;" horiz-adv-x="708" 
d="M415 473v-516h-124v516h-217v117h217v171h124v-171h219v-117h-219z" />
    <glyph glyph-name="daggerdbl" unicode="&#x2021;" horiz-adv-x="708" 
d="M413 120v-163h-123v163h-216v117h216v235h-216v116h216v173h123v-173h221v-116h-221v-235h221v-117h-221z" />
    <glyph glyph-name="bullet" unicode="&#x2022;" horiz-adv-x="389" 
d="M194 184q-56 0 -80.5 25t-24.5 80t25.5 79.5t79.5 24.5q55 0 80 -23t25 -81q0 -55 -25.5 -80t-79.5 -25z" />
    <glyph glyph-name="ellipsis" unicode="&#x2026;" horiz-adv-x="916" 
d="M173 -11q-46 0 -65 16.5t-19 62.5q0 44 19.5 61.5t64.5 17.5t62.5 -17t17.5 -62q0 -44 -18 -61.5t-62 -17.5zM460 -11q-45 0 -64 16.5t-19 62.5q0 44 19 61.5t64 17.5t63.5 -17.5t18.5 -61.5t-18.5 -61.5t-63.5 -17.5zM745 -11q-45 0 -64 16.5t-19 62.5q0 44 19 61.5
t64 17.5t63 -17t18 -62t-18 -62t-63 -17z" />
    <glyph glyph-name="perthousand" unicode="&#x2030;" horiz-adv-x="1312" 
d="M211 389q-86 0 -133.5 43.5t-47.5 121.5q0 50 24 86q49 80 160 80q82 0 131.5 -45.5t49.5 -120.5q0 -76 -49 -120.5t-135 -44.5zM716 711h146l-691 -711h-154zM211 469q42 0 67 22.5t25 62.5q0 39 -24.5 61t-66.5 22q-43 0 -66.5 -21t-23.5 -62t23.5 -63t65.5 -22z
M664 -13q-87 0 -134 43t-47 122q0 49 23 86q50 80 161 80q81 0 130.5 -45.5t49.5 -120.5q0 -76 -48.5 -120.5t-134.5 -44.5zM1094 -13q-86 0 -133.5 43t-47.5 122q0 50 24 86q49 80 161 80q81 0 130.5 -45.5t49.5 -120.5q0 -76 -49 -120.5t-135 -44.5zM664 67
q42 0 66.5 22.5t24.5 62.5q0 39 -24.5 61t-66.5 22t-66 -21.5t-24 -61.5q0 -41 23.5 -63t66.5 -22zM1094 67q42 0 67 22.5t25 62.5q0 39 -24.5 61t-66.5 22t-66 -21.5t-24 -61.5q0 -41 23.5 -63t65.5 -22z" />
    <glyph glyph-name="uni2032" unicode="&#x2032;" horiz-adv-x="177" 
d="M14 506l35 205h114l-69 -205h-80z" />
    <glyph glyph-name="uni2033" unicode="&#x2033;" horiz-adv-x="340" 
d="M14 506l36 205h114l-70 -205h-80zM185 506l30 205h114l-65 -205h-79z" />
    <glyph glyph-name="uni2034" unicode="&#x2034;" horiz-adv-x="664" 
d="M178 711v-43q0 -3 -3 -90q-7 -99 -15 -121h-85q-3 8 -8 43q-10 88 -10 168v43h121zM392 711v-43q0 -3 -3 -90q-7 -99 -15 -121h-84q-5 11 -9 43q-9 79 -9 168v43h120zM607 711v-43q0 -3 -3 -90q-7 -99 -15 -121h-84q-5 11 -9 43q-10 88 -10 168v43h121z" />
    <glyph glyph-name="guilsinglleft" unicode="&#x2039;" horiz-adv-x="488" 
d="M300 79l-206 217v21l196 226h120l-198 -232l214 -232h-126z" />
    <glyph glyph-name="guilsinglright" unicode="&#x203a;" horiz-adv-x="488" 
d="M61 79l216 235l-198 229h120l194 -223v-21l-206 -220h-126z" />
    <glyph glyph-name="exclamdbl" unicode="&#x203c;" horiz-adv-x="688" 
d="M262 717v-115q0 -93 -6 -171q-11 -148 -24 -196q-18 2 -42 2q-27 0 -43 -2q-5 16 -11 66q-20 127 -20 300v116h146zM572 717v-115q0 -93 -6 -171q-11 -148 -24 -196q-18 2 -42 2q-25 0 -43 -2q-5 16 -11 66q-20 127 -20 300v116h146zM188 -14q-50 0 -71 19t-21 65
q0 45 23 65t69 20t68.5 -20t22.5 -65q0 -84 -91 -84zM497 -14q-49 0 -70 19t-21 65q0 45 22.5 65t68.5 20t68.5 -20t22.5 -65q0 -84 -91 -84z" />
    <glyph glyph-name="uni203D" unicode="&#x203d;" horiz-adv-x="887" 
d="M477 208q-18 2 -43 2q-32 0 -46 -2q-3 43 -4 92l-3 78q-2 118 -2 179v61q-89 -10 -129.5 -48.5t-40.5 -114.5h-124q0 269 363 269q350 0 350 -208q0 -94 -80 -135q-28 -14 -153 -54q-82 -26 -86 -82zM490 576q0 -83 -6 -209q10 9 21.5 16.5t26 14.5t23 11t27 11t23.5 9
q68 25 68 83q0 53 -43.5 78.5t-139.5 29.5v-44zM434 -14q-49 0 -70.5 19t-21.5 66q0 85 93 85q92 0 92 -86q0 -84 -93 -84z" />
    <glyph glyph-name="fraction" unicode="&#x2044;" horiz-adv-x="1129" 
d="M622 435l286 320l127 -107l-374 -248zM549 313l-301 -345l-129 116l394 263z" />
    <glyph glyph-name="uni2070" unicode="&#x2070;" horiz-adv-x="453" 
d="M222 340q-96 0 -147 49t-51 138q0 56 25 99q54 92 177 92q89 0 142.5 -52.5t53.5 -138.5q0 -85 -53.5 -136t-146.5 -51zM222 424q47 0 75.5 27.5t28.5 75.5q0 50 -27.5 77.5t-75.5 27.5q-49 0 -76 -27.5t-27 -77.5t26.5 -76.5t75.5 -26.5z" />
    <glyph glyph-name="uni2074" unicode="&#x2074;" horiz-adv-x="421" 
d="M334 426v-76h-79v76h-246v61l250 223h75v-216h76v-68h-76zM108 494h147v119l1 13l-3 -4z" />
    <glyph glyph-name="uni2075" unicode="&#x2075;" horiz-adv-x="432" 
d="M218 342q-168 0 -187 117h105q9 -47 86 -47q95 0 95 60q0 61 -85 61q-63 0 -104 -39l-5 -5l-77 14l25 207h308q-1 -41 -18.5 -55.5t-64.5 -14.5h-153l-15 -99q49 54 135 54q141 0 141 -121q0 -60 -48 -96t-138 -36z" />
    <glyph glyph-name="uni2076" unicode="&#x2076;" horiz-adv-x="451" 
d="M414 468q0 -60 -47 -94t-135 -34q-74 0 -118 24q-82 44 -82 162q0 88 52.5 140t145.5 52q151 0 177 -108h-99q-14 36 -78 36q-55 0 -85 -31.5t-30 -84.5q0 -10 2 -28q48 75 158 75q139 0 139 -109zM234 413q92 0 92 54q0 49 -79 49q-78 0 -118 -55q25 -48 105 -48z" />
    <glyph glyph-name="uni2077" unicode="&#x2077;" horiz-adv-x="376" 
d="M69 350q20 59 51 107q64 105 143 175h-249v78h346v-71q-33 -30 -72 -80q-82 -105 -116 -209h-103z" />
    <glyph glyph-name="uni2078" unicode="&#x2078;" horiz-adv-x="444" 
d="M216 342q-100 0 -144.5 24t-44.5 81q0 64 73 86q-56 18 -56 75q0 53 48 81t130 28q85 0 133 -26.5t48 -79.5q0 -56 -64 -77q73 -22 73 -85q0 -57 -49 -82t-147 -25zM234 559q83 0 83 44q0 25 -23 35.5t-72 10.5q-92 0 -92 -47q0 -43 77 -43h27zM219 408q55 0 80.5 11.5
t25.5 37.5q0 25 -21.5 35t-69.5 10h-28q-90 0 -90 -47q0 -26 24 -36.5t79 -10.5z" />
    <glyph glyph-name="uni2079" unicode="&#x2079;" horiz-adv-x="437" 
d="M203 340q-158 0 -183 104h102q17 -33 80 -33q122 0 122 116v15q-44 -69 -150 -69q-151 0 -151 110q0 62 48 98t133 36q201 0 201 -191q0 -88 -50.5 -137t-151.5 -49zM199 534q82 0 116 55q-22 57 -110 57q-93 0 -93 -61q0 -51 87 -51z" />
    <glyph glyph-name="uni207A" unicode="&#x207a;" horiz-adv-x="435" 
d="M249 482v-127h-76v127h-125v74h125v122h76v-122h128v-74h-128z" />
    <glyph glyph-name="uni207B" unicode="&#x207b;" horiz-adv-x="435" 
d="M47 480v78h331v-78h-331z" />
    <glyph glyph-name="uni207C" unicode="&#x207c;" horiz-adv-x="435" 
d="M52 567v74h321v-74h-321zM52 401v75h321v-75h-321z" />
    <glyph glyph-name="uni207D" unicode="&#x207d;" horiz-adv-x="327" 
d="M313 225q-130 10 -197 83.5t-67 205.5q0 89 33 157q69 130 231 142v-86q-169 -18 -169 -213q0 -183 169 -200v-89z" />
    <glyph glyph-name="uni207E" unicode="&#x207e;" horiz-adv-x="327" 
d="M8 314q168 17 168 201q0 194 -168 212v86q78 -6 138 -42q126 -75 126 -256q0 -133 -67 -206.5t-197 -83.5v89z" />
    <glyph glyph-name="uni2080" unicode="&#x2080;" horiz-adv-x="453" 
d="M225 -10q-96 0 -147 49t-51 138q0 56 25 99q54 92 177 92q89 0 142.5 -52.5t53.5 -138.5q0 -85 -53.5 -136t-146.5 -51zM225 74q47 0 75.5 27.5t28.5 75.5q0 50 -27.5 77.5t-75.5 27.5q-49 0 -76 -27.5t-27 -77.5t26.5 -76.5t75.5 -26.5z" />
    <glyph glyph-name="uni2081" unicode="&#x2081;" horiz-adv-x="304" 
d="M22 0v80h94v137h-75v67q72 4 87 76h70v-280h91v-80h-267z" />
    <glyph glyph-name="uni2082" unicode="&#x2082;" horiz-adv-x="411" 
d="M26 0v35q0 80 70 115q32 16 130 43q70 20 70 54q0 48 -80 48q-95 0 -95 -76h-89q4 148 185 148q84 0 125.5 -32.5t41.5 -85.5q0 -40 -22 -63q-34 -36 -128 -59q-94 -24 -115 -52h266v-75h-359z" />
    <glyph glyph-name="uni2083" unicode="&#x2083;" horiz-adv-x="427" 
d="M213 -8q-97 0 -141.5 33.5t-46.5 107.5h91q1 -38 25 -54.5t80 -16.5q88 0 88 47q0 21 -16 30t-54 9h-73v66h70q64 0 64 38q0 42 -78 42q-98 0 -98 -66h-90q0 66 48.5 102.5t140.5 36.5q83 0 125 -27.5t42 -73.5q0 -36 -20.5 -53.5t-60.5 -23.5q90 -13 90 -85
q0 -112 -186 -112z" />
    <glyph glyph-name="uni2084" unicode="&#x2084;" horiz-adv-x="421" 
d="M337 76v-76h-79v76h-246v61l250 223h75v-216h76v-68h-76zM111 144h147v119l1 13l-3 -4z" />
    <glyph glyph-name="uni2085" unicode="&#x2085;" horiz-adv-x="432" 
d="M221 -8q-168 0 -187 117h105q9 -47 86 -47q95 0 95 60q0 61 -85 61q-63 0 -104 -39l-5 -5l-77 14l25 207h308q-1 -41 -18.5 -55.5t-64.5 -14.5h-153l-15 -99q49 54 135 54q141 0 141 -121q0 -60 -48 -96t-138 -36z" />
    <glyph glyph-name="uni2086" unicode="&#x2086;" horiz-adv-x="451" 
d="M417 118q0 -60 -47 -94t-135 -34q-75 0 -118 24q-82 44 -82 162q0 88 52.5 140t145.5 52q151 0 177 -108h-99q-14 36 -78 36q-55 0 -85 -31.5t-30 -84.5q0 -10 2 -28q48 75 158 75q139 0 139 -109zM237 63q92 0 92 54q0 49 -79 49q-78 0 -118 -55q25 -48 105 -48z" />
    <glyph glyph-name="uni2087" unicode="&#x2087;" horiz-adv-x="376" 
d="M72 0q20 59 51 107q64 105 143 175h-249v78h346v-71q-33 -30 -72 -80q-82 -105 -116 -209h-103z" />
    <glyph glyph-name="uni2088" unicode="&#x2088;" horiz-adv-x="444" 
d="M219 -8q-100 0 -144.5 24t-44.5 81q0 64 73 86q-56 18 -56 75q0 53 48 81t130 28q85 0 133 -26.5t48 -79.5q0 -56 -64 -77q73 -22 73 -85q0 -57 -49 -82t-147 -25zM237 209q83 0 83 44q0 25 -23 35.5t-72 10.5q-92 0 -92 -47q0 -43 77 -43h27zM222 58q55 0 80.5 11.5
t25.5 37.5q0 25 -21.5 35t-69.5 10h-28q-90 0 -90 -47q0 -26 24 -36.5t79 -10.5z" />
    <glyph glyph-name="uni2089" unicode="&#x2089;" horiz-adv-x="437" 
d="M206 -10q-158 0 -183 104h102q17 -33 80 -33q122 0 122 116v15q-43 -69 -150 -69q-151 0 -151 110q0 62 48 98t133 36q201 0 201 -191q0 -88 -50.5 -137t-151.5 -49zM202 184q82 0 116 55q-22 57 -110 57q-93 0 -93 -61q0 -51 87 -51z" />
    <glyph glyph-name="uni208A" unicode="&#x208a;" horiz-adv-x="435" 
d="M252 132v-127h-76v127h-125v74h125v122h76v-122h128v-74h-128z" />
    <glyph glyph-name="uni208B" unicode="&#x208b;" horiz-adv-x="435" 
d="M50 130v78h331v-78h-331z" />
    <glyph glyph-name="uni208C" unicode="&#x208c;" horiz-adv-x="435" 
d="M55 215v74h321v-74h-321zM55 49v75h321v-75h-321z" />
    <glyph glyph-name="uni208D" unicode="&#x208d;" horiz-adv-x="327" 
d="M316 -120q-130 10 -197 83.5t-67 205.5q0 89 33 157q69 130 231 142v-86q-169 -18 -169 -213q0 -183 169 -200v-89z" />
    <glyph glyph-name="uni208E" unicode="&#x208e;" horiz-adv-x="327" 
d="M11 -31q168 17 168 201q0 194 -168 212v86q78 -6 138 -42q126 -75 126 -256q0 -133 -67 -206.5t-197 -83.5v89z" />
    <glyph glyph-name="colonmonetary" unicode="&#x20a1;" horiz-adv-x="924" 
d="M379 -13q-43 5 -95 21l-45 -118h-78l56 147q-161 92 -161 310v3q0 117 53 198q53 84 145.5 130t213.5 49l31 86h74l-30 -89q54 -5 97 -18l39 107h77l-49 -134q144 -73 174 -234h-130q-18 80 -84 123l-171 -475q225 10 258 189h132q-16 -88 -65 -158q-105 -143 -352 -143
h-15l-32 -91h-77zM602 599q-47 15 -98 16l-179 -497q39 -16 95 -22zM184 348q0 -127 77 -192l166 456q-116 -13 -179.5 -79t-63.5 -184v-1z" />
    <glyph glyph-name="uni20A2" unicode="&#x20a2;" horiz-adv-x="914" 
d="M880 251q-19 -79 -70 -142q-107 -128 -341 -128q-126 0 -219 40q-194 82 -194 326v3q0 121 55 202q55 85 151 130t221 45q93 0 179 -27q169 -60 210 -221h-135q-24 67 -89.5 101.5t-164.5 34.5q-142 0 -220.5 -67t-78.5 -199v-1q0 -213 209 -248v316h93l14 -118
q33 123 185 123h58v-113h-71q-67 0 -102 -16q-36 -15 -50.5 -49t-14.5 -95v-54q99 5 159 47t81 110h135z" />
    <glyph glyph-name="franc" unicode="&#x20a3;" horiz-adv-x="772" 
d="M217 142v-142h-121v711h636v-110h-515v-135h457v-110h-457v-103h457v-111h-457z" />
    <glyph glyph-name="lira" unicode="&#x20a4;" horiz-adv-x="859" 
d="M628 -13q-49 0 -97 14q-58 18 -168 79q-63 -94 -178 -94q-158 0 -158 120q0 50 38 83t106 33q66 0 149 -37v1q0 44 -34 92h-232v57h185q-44 50 -57 69h-128v57h97q-11 31 -11 61q0 57 33 109q71 106 247 106q133 0 215 -57t104 -167h-137q-24 117 -179 117
q-74 0 -113 -31.5t-39 -87.5q0 -21 9 -50h285v-57h-256q27 -38 44 -69h212v-57h-184q16 -36 16 -85q0 -18 -5 -43q41 -21 65 -31.5t61 -21t70 -10.5q65 0 89.5 26.5t24.5 96.5v17h127v-25q0 -115 -48 -165t-153 -50zM187 57q80 0 114 58q-71 39 -124 39q-30 0 -45.5 -13.5
t-15.5 -34.5t18 -35t53 -14z" />
    <glyph glyph-name="uni20A6" unicode="&#x20a6;" horiz-adv-x="1006" 
d="M565 210h-319v-210h-113v210h-123v79h123v142h-123v78h123v202h146l162 -202h321v202h112v-202h122v-78h-122v-142h122v-79h-122v-210h-140zM246 509h79l-60 74l-22 39l3 -35v-78zM387 431h-141v-142h256zM762 431h-258l114 -142h144v142zM765 96l-3 38v76h-81l61 -76z
" />
    <glyph glyph-name="peseta" unicode="&#x20a7;" horiz-adv-x="2104" 
d="M218 238v-238h-122v711h341q162 0 245 -39.5t105 -125.5h43q46 0 82 3q32 3 43.5 13t18.5 40q3 12 5 40q2 64 2 92h102v-183h226v-102h-226v-156q0 -116 32 -148q31 -32 135 -32h481q70 0 121 7q82 15 82 56q0 27 -20 41q-36 26 -225 27q-170 2 -243.5 39.5t-73.5 121.5
q0 85 79 136.5t229 51.5q157 0 247.5 -48t122.5 -151h-134q-34 107 -237 107q-69 0 -111 -12q-75 -22 -75 -75q0 -26 18 -42q34 -29 220 -33q127 -2 195 -19q70 -17 100.5 -52.5t30.5 -95.5q0 -52 -33 -91q-72 -81 -298 -81h-505q-98 0 -154 25q-55 26 -78 84t-23 162v178
h-172q-16 -212 -342 -211h-234zM445 343q122 -1 174 27.5t52 101.5q0 54 -25 85q-24 28 -73 38.5t-135 10.5h-220v-263h227z" />
    <glyph glyph-name="uni20A8" unicode="&#x20a8;" horiz-adv-x="1638" 
d="M1280 -19q-107 0 -175 15q-117 24 -246 97l-38 22q-147 84 -213 108q-77 29 -186 29h-203v-252h-123v711h376q183 0 264 -52t81 -166q0 -87 -46.5 -133t-146.5 -61q45 -7 73 -17q63 -20 170 -78l40 -22q100 -55 189.5 -79t190.5 -24q76 0 116 13q75 22 75 78q0 47 -87 60
q-23 3 -194 13q-127 7 -194 35q-87 37 -87 127q0 85 79 136.5t229 51.5q157 0 247.5 -48t122.5 -151h-134q-34 107 -237 107q-69 0 -111 -12q-75 -22 -75 -75q0 -51 88 -64q29 -5 194 -14q129 -7 194 -35q88 -37 88 -129q0 -53 -34 -96q-75 -95 -287 -95zM466 358
q64 0 117 8q107 19 107 112v8q0 69 -50.5 94t-168.5 25h-252v-247h247z" />
    <glyph glyph-name="uni20A9" unicode="&#x20a9;" horiz-adv-x="1371" 
d="M813 241h-302l-116 -241h-115l-76 241h-179v72h156l-30 96h-126v71h103l-73 231h113l72 -231h283l110 231h85l98 -231h293l90 231h112l-93 -231h124v-71h-152l-39 -96h191v-72h-220l-97 -241h-111zM673 576l-46 -96h86zM489 409h-227l29 -96h152zM743 409h-151l-46 -96
h237zM1082 409h-236l40 -96h159zM409 241h-95l37 -120zM1017 241h-100l52 -123z" />
    <glyph glyph-name="uni20AA" unicode="&#x20aa;" horiz-adv-x="958" 
d="M312 0v487q49 0 75 -13q23 -12 30.5 -47t7.5 -111v-207h152q104 0 148.5 63.5t44.5 211.5v332h116v-342q0 -120 -31 -203q-61 -171 -274 -171h-269zM194 605v-605h-114v711h270q120 0 185 -40q122 -73 122 -286v-35q0 -48 -9 -72q-9 -28 -33.5 -40.5t-72.5 -12.5v103
q0 145 -33 204q-41 73 -163 73h-152z" />
    <glyph glyph-name="Euro" unicode="&#x20ac;" horiz-adv-x="935" 
d="M925 213q-37 -110 -135.5 -171t-262.5 -61q-317 0 -392 226h-127v84h109q0 6 -1 17.5t-1.5 21t-0.5 17.5v3q0 33 4 56h-110v83h130q28 76 86 129q120 109 316 109q89 0 169 -26q79 -25 133 -75t75 -121h-151q-43 110 -225 110q-199 0 -268 -126h427l-41 -83h-414
q-4 -23 -4 -57v-1q0 -32 4 -57h369l-41 -84h-298q69 -114 259 -114q185 0 249 120h142z" />
    <glyph glyph-name="uni20AE" unicode="&#x20ae;" horiz-adv-x="778" 
d="M445 194v-194h-126v148l-153 -56v80l153 56v121l-153 -56v80l153 56v174h-280v108h702v-108h-296v-128l155 56v-78l-155 -57v-122l155 57v-80z" />
    <glyph glyph-name="uni20B1" unicode="&#x20b1;" horiz-adv-x="924" 
d="M262 140v-140h-121v316h-117v66h117v88h-117v65h117v176h310q269 0 338 -176h116v-65h-99q3 -15 3 -48q0 -14 -2 -40h98v-66h-114q-31 -83 -113 -130t-212 -46h-204zM262 610v-75h401q-51 75 -211 75h-190zM693 422q0 28 -4 48h-427v-88h428q3 13 3 40zM459 241
q158 -1 207 75h-404v-75h197z" />
    <glyph glyph-name="uni2105" unicode="&#x2105;" horiz-adv-x="884" 
d="M393 528q-8 -66 -55 -102.5t-127 -36.5q-86 0 -133.5 43.5t-47.5 121.5q0 50 24 86q49 80 160 80q76 0 123.5 -37.5t55.5 -103.5h-92q-11 58 -89 58q-43 0 -66.5 -21t-23.5 -62t23.5 -63t65.5 -22q76 0 89 59h93zM716 711h146l-691 -711h-154zM664 -13q-87 0 -134 43
t-47 122q0 49 23 86q50 80 161 80q81 0 130.5 -45.5t49.5 -120.5q0 -76 -48.5 -120.5t-134.5 -44.5zM664 67q42 0 66.5 22.5t24.5 62.5q0 39 -24.5 61t-66.5 22t-66 -21.5t-24 -61.5q0 -41 23.5 -63t66.5 -22z" />
    <glyph glyph-name="uni2116" unicode="&#x2116;" horiz-adv-x="1589" 
d="M1251 305q-265 0 -265 209q0 70 34 117q71 100 234 100q81 0 140 -25q128 -52 128 -190q0 -100 -68.5 -155.5t-202.5 -55.5zM215 552v-552h-120v711h126l502 -544v544h119v-711h-118zM1253 391q169 0 169 125q0 62 -44.5 96t-122.5 34q-77 0 -122.5 -33.5t-45.5 -96.5
q0 -125 166 -125zM1504 95h-500v100h500v-100z" />
    <glyph glyph-name="uni2117" unicode="&#x2117;" horiz-adv-x="982" 
d="M491 -19q-124 0 -229 39q-216 86 -216 334q0 174 127 280q124 104 317 104q192 0 317 -102q129 -104 129 -282q0 -129 -58 -211q-114 -162 -387 -162zM491 64q102 0 186 31q170 68 170 259q0 97 -46 165q-91 136 -311 136q-103 0 -185 -35q-170 -75 -170 -266
q0 -98 44 -163q89 -127 312 -127zM412 284v-91h-79v327h202q163 0 163 -117q0 -56 -39 -88t-120 -31h-127zM535 350q49 -1 67.5 12.5t18.5 41.5q0 24 -19 36t-67 12h-123v-102h123z" />
    <glyph glyph-name="uni2120" unicode="&#x2120;" horiz-adv-x="840" 
d="M177 395q-82 0 -120.5 27.5t-45.5 87.5h76q5 -59 93 -59q82 0 82 42q0 24 -21 30.5t-92 10.5q-68 3 -99 24.5t-31 66.5q0 43 36.5 70.5t111.5 27.5q73 0 110.5 -25t47.5 -79h-75q-9 47 -89 47q-72 0 -72 -38q0 -12 8 -20q16 -13 100 -17q71 -3 101 -24.5t31 -68.5
q0 -49 -39.5 -76t-112.5 -27zM480 616v-209h-72v304h67l120 -131l123 131h65v-304h-72v208l-112 -117h-9z" />
    <glyph glyph-name="trademark" unicode="&#x2122;" horiz-adv-x="798" 
d="M189 640v-233h-75v233h-104v71h286v-71h-107zM446 615v-208h-73v304h67l121 -132l123 132h65v-304h-72v209l-112 -118h-10z" />
    <glyph glyph-name="uni2126" unicode="&#x2126;" horiz-adv-x="975" 
d="M369 0h-365v109h241q-151 124 -151 277q0 141 102 238q107 102 282 102q124 0 212 -46q85 -45 130.5 -119.5t45.5 -167.5q0 -148 -159 -284h245v-109h-354l-52 90q191 153 191 293q0 65 -30 117q-68 110 -229 110q-78 0 -138 -29q-118 -61 -118 -198q0 -145 188 -293z
" />
    <glyph glyph-name="uni2153" unicode="&#x2153;" horiz-adv-x="1129" 
d="M619 435l286 320l127 -107l-374 -248zM144 350v80h94v137h-75v67q72 4 87 76h70v-280h91v-80h-267zM825 -8q-97 0 -141.5 33.5t-46.5 107.5h91q1 -38 25 -54.5t80 -16.5q88 0 88 47q0 21 -16 30t-54 9h-73v66h70q64 0 64 38q0 42 -78 42q-98 0 -98 -66h-90
q0 66 48.5 102.5t140.5 36.5q83 0 125 -27.5t42 -73.5q0 -36 -20.5 -53.5t-60.5 -23.5q90 -13 90 -85q0 -112 -186 -112zM546 313l-301 -345l-129 116l394 263z" />
    <glyph glyph-name="uni2154" unicode="&#x2154;" horiz-adv-x="1129" 
d="M619 435l286 320l127 -107l-374 -248zM94 350v35q0 80 70 115q32 16 130 43q70 20 70 54q0 48 -80 48q-95 0 -95 -76h-89q4 148 185 148q84 0 125.5 -32.5t41.5 -85.5q0 -40 -22 -63q-34 -36 -128 -59q-94 -24 -115 -52h266v-75h-359zM825 -8q-97 0 -141.5 33.5
t-46.5 107.5h91q1 -38 25 -54.5t80 -16.5q88 0 88 47q0 21 -16 30t-54 9h-73v66h70q64 0 64 38q0 42 -78 42q-98 0 -98 -66h-90q0 66 48.5 102.5t140.5 36.5q83 0 125 -27.5t42 -73.5q0 -36 -20.5 -53.5t-60.5 -23.5q90 -13 90 -85q0 -112 -186 -112zM546 313l-301 -345
l-129 116l394 263z" />
    <glyph glyph-name="uni2155" unicode="&#x2155;" horiz-adv-x="1129" 
d="M619 435l286 320l127 -107l-374 -248zM144 350v80h94v137h-75v67q72 4 87 76h70v-280h91v-80h-267zM835 -8q-168 0 -187 117h105q9 -47 86 -47q95 0 95 60q0 61 -85 61q-63 0 -104 -39l-5 -5l-77 14l25 207h308q-1 -41 -18.5 -55.5t-64.5 -14.5h-153l-15 -99
q49 54 135 54q141 0 141 -121q0 -60 -48 -96t-138 -36zM546 313l-301 -345l-129 116l394 263z" />
    <glyph glyph-name="uni2156" unicode="&#x2156;" horiz-adv-x="1129" 
d="M619 435l286 320l127 -107l-374 -248zM93 350v35q0 80 70 115q32 16 130 43q70 20 70 54q0 48 -80 48q-95 0 -95 -76h-89q4 148 185 148q84 0 125.5 -32.5t41.5 -85.5q0 -40 -22 -63q-34 -36 -128 -59q-94 -24 -115 -52h266v-75h-359zM835 -8q-168 0 -187 117h105
q9 -47 86 -47q95 0 95 60q0 61 -85 61q-63 0 -104 -39l-5 -5l-77 14l25 207h308q-1 -41 -18.5 -55.5t-64.5 -14.5h-153l-15 -99q49 54 135 54q141 0 141 -121q0 -60 -48 -96t-138 -36zM546 313l-301 -345l-129 116l394 263z" />
    <glyph glyph-name="uni2157" unicode="&#x2157;" horiz-adv-x="1129" 
d="M619 435l286 320l127 -107l-374 -248zM276 342q-97 0 -141.5 33.5t-46.5 107.5h91q1 -38 25 -54.5t80 -16.5q88 0 88 47q0 21 -16 30t-54 9h-73v66h70q64 0 64 38q0 42 -78 42q-98 0 -98 -66h-90q0 66 48.5 102.5t140.5 36.5q83 0 125 -27.5t42 -73.5q0 -36 -20.5 -53.5
t-60.5 -23.5q90 -13 90 -85q0 -112 -186 -112zM835 -8q-168 0 -187 117h105q9 -47 86 -47q95 0 95 60q0 61 -85 61q-63 0 -104 -39l-5 -5l-77 14l25 207h308q-1 -41 -18.5 -55.5t-64.5 -14.5h-153l-15 -99q49 54 135 54q141 0 141 -121q0 -60 -48 -96t-138 -36zM546 313
l-301 -345l-129 116l394 263z" />
    <glyph glyph-name="uni2158" unicode="&#x2158;" horiz-adv-x="1129" 
d="M619 435l286 320l127 -107l-374 -248zM407 426v-76h-79v76h-246v61l250 223h75v-216h76v-68h-76zM181 494h147v119l1 13l-3 -4zM835 -8q-168 0 -187 117h105q9 -47 86 -47q95 0 95 60q0 61 -85 61q-63 0 -104 -39l-5 -5l-77 14l25 207h308q-1 -41 -18.5 -55.5
t-64.5 -14.5h-153l-15 -99q49 54 135 54q141 0 141 -121q0 -60 -48 -96t-138 -36zM546 313l-301 -345l-129 116l394 263z" />
    <glyph glyph-name="uni2159" unicode="&#x2159;" horiz-adv-x="1129" 
d="M619 435l286 320l127 -107l-374 -248zM144 350v80h94v137h-75v67q72 4 87 76h70v-280h91v-80h-267zM1019 118q0 -60 -47 -94t-135 -34q-75 0 -118 24q-82 44 -82 162q0 88 52.5 140t145.5 52q151 0 177 -108h-99q-14 36 -78 36q-55 0 -85 -31.5t-30 -84.5q0 -10 2 -28
q48 75 158 75q139 0 139 -109zM546 313l-301 -345l-129 116l394 263zM839 63q92 0 92 54q0 49 -79 49q-78 0 -118 -55q25 -48 105 -48z" />
    <glyph glyph-name="uni215A" unicode="&#x215a;" horiz-adv-x="1129" 
d="M619 435l286 320l127 -107l-374 -248zM279 342q-168 0 -187 117h105q9 -47 86 -47q95 0 95 60q0 61 -85 61q-63 0 -104 -39l-5 -5l-77 14l25 207h308q-1 -41 -18.5 -55.5t-64.5 -14.5h-153l-15 -99q49 54 135 54q141 0 141 -121q0 -60 -48 -96t-138 -36zM1019 118
q0 -60 -47 -94t-135 -34q-75 0 -118 24q-82 44 -82 162q0 88 52.5 140t145.5 52q151 0 177 -108h-99q-14 36 -78 36q-55 0 -85 -31.5t-30 -84.5q0 -10 2 -28q48 75 158 75q139 0 139 -109zM546 313l-301 -345l-129 116l394 263zM839 63q92 0 92 54q0 49 -79 49
q-78 0 -118 -55q25 -48 105 -48z" />
    <glyph glyph-name="uni215B" unicode="&#x215b;" horiz-adv-x="1129" 
d="M619 435l286 320l127 -107l-374 -248zM143 350v80h94v137h-75v67q72 4 87 76h70v-280h91v-80h-267zM826 -8q-100 0 -144.5 24t-44.5 81q0 64 73 86q-56 18 -56 75q0 53 48 81t130 28q85 0 133 -26.5t48 -79.5q0 -56 -64 -77q73 -22 73 -85q0 -57 -49 -82t-147 -25z
M546 313l-301 -345l-129 116l394 263zM844 209q83 0 83 44q0 25 -23 35.5t-72 10.5q-92 0 -92 -47q0 -43 77 -43h27zM829 58q55 0 80.5 11.5t25.5 37.5q0 25 -21.5 35t-69.5 10h-28q-90 0 -90 -47q0 -26 24 -36.5t79 -10.5z" />
    <glyph glyph-name="uni215C" unicode="&#x215c;" horiz-adv-x="1129" 
d="M619 435l286 320l127 -107l-374 -248zM276 342q-97 0 -141.5 33.5t-46.5 107.5h91q1 -38 25 -54.5t80 -16.5q88 0 88 47q0 21 -16 30t-54 9h-73v66h70q64 0 64 38q0 42 -78 42q-98 0 -98 -66h-90q0 66 48.5 102.5t140.5 36.5q83 0 125 -27.5t42 -73.5q0 -36 -20.5 -53.5
t-60.5 -23.5q90 -13 90 -85q0 -112 -186 -112zM826 -8q-100 0 -144.5 24t-44.5 81q0 64 73 86q-56 18 -56 75q0 53 48 81t130 28q85 0 133 -26.5t48 -79.5q0 -56 -64 -77q73 -22 73 -85q0 -57 -49 -82t-147 -25zM546 313l-301 -345l-129 116l394 263zM844 209q83 0 83 44
q0 25 -23 35.5t-72 10.5q-92 0 -92 -47q0 -43 77 -43h27zM829 58q55 0 80.5 11.5t25.5 37.5q0 25 -21.5 35t-69.5 10h-28q-90 0 -90 -47q0 -26 24 -36.5t79 -10.5z" />
    <glyph glyph-name="uni215D" unicode="&#x215d;" horiz-adv-x="1129" 
d="M619 435l286 320l127 -107l-374 -248zM279 342q-168 0 -187 117h105q9 -47 86 -47q95 0 95 60q0 61 -85 61q-63 0 -104 -39l-5 -5l-77 14l25 207h308q-1 -41 -18.5 -55.5t-64.5 -14.5h-153l-15 -99q49 54 135 54q141 0 141 -121q0 -60 -48 -96t-138 -36zM826 -8
q-100 0 -144.5 24t-44.5 81q0 64 73 86q-56 18 -56 75q0 53 48 81t130 28q85 0 133 -26.5t48 -79.5q0 -56 -64 -77q73 -22 73 -85q0 -57 -49 -82t-147 -25zM546 313l-301 -345l-129 116l394 263zM844 209q83 0 83 44q0 25 -23 35.5t-72 10.5q-92 0 -92 -47q0 -43 77 -43h27z
M829 58q55 0 80.5 11.5t25.5 37.5q0 25 -21.5 35t-69.5 10h-28q-90 0 -90 -47q0 -26 24 -36.5t79 -10.5z" />
    <glyph glyph-name="uni215E" unicode="&#x215e;" horiz-adv-x="1129" 
d="M619 435l286 320l127 -107l-374 -248zM219 350q20 59 51 107q64 105 143 175h-249v78h346v-71q-33 -30 -72 -80q-82 -105 -116 -209h-103zM826 -8q-100 0 -144.5 24t-44.5 81q0 64 73 86q-56 18 -56 75q0 53 48 81t130 28q85 0 133 -26.5t48 -79.5q0 -56 -64 -77
q73 -22 73 -85q0 -57 -49 -82t-147 -25zM546 313l-301 -345l-129 116l394 263zM844 209q83 0 83 44q0 25 -23 35.5t-72 10.5q-92 0 -92 -47q0 -43 77 -43h27zM829 58q55 0 80.5 11.5t25.5 37.5q0 25 -21.5 35t-69.5 10h-28q-90 0 -90 -47q0 -26 24 -36.5t79 -10.5z" />
    <glyph glyph-name="uni215F" unicode="&#x215f;" horiz-adv-x="1129" 
d="M619 435l286 320l127 -107l-374 -248zM144 350v80h94v137h-75v67q72 4 87 76h70v-280h91v-80h-267zM546 313l-301 -345l-129 116l394 263z" />
    <glyph glyph-name="arrowleft" unicode="&#x2190;" horiz-adv-x="986" 
d="M238 313q38 -30 76 -71q92 -99 125 -187h-135q-11 41 -50 97q-79 117 -193 190v55q53 34 104 86q104 108 130 200h135q-19 -51 -47 -93q-61 -96 -138 -160h669v-117h-676z" />
    <glyph glyph-name="arrowup" unicode="&#x2191;" horiz-adv-x="986" 
d="M802 399q-47 17 -93 47q-95 62 -160 139v-635h-117v636q-28 -34 -72 -72q-98 -84 -186 -117v136q45 14 97 48q120 80 190 187h55q36 -54 87 -104q104 -103 199 -130v-135z" />
    <glyph glyph-name="arrowright" unicode="&#x2192;" horiz-adv-x="986" 
d="M543 55q17 51 50 96q70 101 150 163h-676v116h669q-29 24 -71 71q-82 95 -115 182h136q13 -43 48 -97q76 -118 186 -189v-55q-52 -33 -106 -87q-111 -110 -137 -200h-134z" />
    <glyph glyph-name="arrowdown" unicode="&#x2193;" horiz-adv-x="986" 
d="M459 -59q-36 57 -86 104q-109 104 -199 130v134q45 -16 93 -46q103 -69 160 -139v635h117v-637q27 34 72 73q95 82 186 117v-136q-45 -14 -97 -48q-115 -74 -191 -187h-55z" />
    <glyph glyph-name="uni2196" unicode="&#x2196;" horiz-adv-x="986" 
d="M748 24l-474 473q4 -38 -1 -101q-8 -127 -48 -214l-96 97q22 39 34 103q29 143 2 266l39 38q66 -12 135 -12q143 2 233 50l95 -95q-50 -23 -100 -33q-109 -24 -212 -15l476 -474z" />
    <glyph glyph-name="uni2197" unicode="&#x2197;" horiz-adv-x="986" 
d="M739 187q-22 43 -34 99q-23 106 -14 212l-474 -476l-83 83l474 475q-44 -5 -101 0q-134 12 -214 49l96 96q39 -21 102 -35q136 -28 266 -2l39 -39q-12 -66 -12 -135q5 -148 50 -232z" />
    <glyph glyph-name="uni2198" unicode="&#x2198;" horiz-adv-x="986" 
d="M760 56q-59 12 -135 12q-144 -2 -232 -49l-95 95q38 20 98 33q119 26 212 15l-474 474l82 83l475 -474q-4 45 0 102q12 133 49 213l96 -97q-21 -39 -35 -102q-28 -137 -3 -266z" />
    <glyph glyph-name="uni2199" unicode="&#x2199;" horiz-adv-x="986" 
d="M574 17q-39 21 -102 35q-143 29 -266 2l-39 39q12 59 12 135q-2 148 -50 232l95 95q22 -43 34 -99q25 -118 14 -213l474 476l83 -82l-473 -475q44 5 101 0q134 -12 214 -49z" />
    <glyph glyph-name="partialdiff" unicode="&#x2202;" horiz-adv-x="875" 
d="M439 -19q-387 0 -387 271q0 89 43 151q89 129 308 129q224 0 295 -141q-23 67 -85 134q-117 126 -417 261h193q142 -65 242 -150q200 -170 200 -370q0 -285 -392 -285zM442 85q137 0 201.5 40.5t64.5 128.5t-68.5 132.5t-196.5 44.5q-264 0 -264 -177q0 -88 64.5 -128.5
t198.5 -40.5z" />
    <glyph glyph-name="uni2206" unicode="&#x2206;" horiz-adv-x="1124" 
d="M5 0l557 723l555 -723h-1112zM561 551l-342 -446h681z" />
    <glyph glyph-name="product" unicode="&#x220f;" horiz-adv-x="908" 
d="M585 593h-264v-593h-124v593h-171v118h857v-118h-174v-593h-124v593z" />
    <glyph glyph-name="summation" unicode="&#x2211;" horiz-adv-x="704" 
d="M666 0h-628v126l287 234l-277 228v123h595v-106h-442l290 -245l-299 -251h474v-109z" />
    <glyph glyph-name="minus" unicode="&#x2212;" horiz-adv-x="682" 
d="M44 303v111h599v-111h-599z" />
    <glyph glyph-name="radical" unicode="&#x221a;" horiz-adv-x="920" 
d="M338 0l-189 397h-121v113h196l181 -391l354 592h136l-433 -711h-124z" />
    <glyph glyph-name="infinity" unicode="&#x221e;" horiz-adv-x="979" 
d="M258 175q-91 0 -142 52t-51 141q0 53 25 98q55 96 170 96q46 0 86 -18q61 -28 145 -104q25 23 67 57q82 65 160 65q90 0 141 -52.5t51 -139.5q0 -57 -23 -101q-49 -94 -169 -94q-44 0 -85 18q-58 26 -142 102q-19 -17 -68 -56q-85 -64 -165 -64zM259 282q63 0 156 85
q-35 30 -49 41q-61 47 -107 47q-37 0 -61 -25t-24 -61q0 -38 24 -62.5t61 -24.5zM720 282q36 0 59.5 24.5t23.5 62.5q0 37 -22.5 61.5t-60.5 24.5q-58 0 -155 -87q32 -28 48 -40q60 -46 107 -46z" />
    <glyph glyph-name="integral" unicode="&#x222b;" horiz-adv-x="480" 
d="M-46 -92h68q92 0 118 26q27 28 27 133v557q0 92 24 145q24 52 76 75t140 23h78v-100h-63q-56 0 -87 -11q-28 -12 -38.5 -44.5t-10.5 -102.5l-1 -545q0 -85 -10.5 -134t-37.5 -75q-46 -49 -205 -49h-78v102z" />
    <glyph glyph-name="approxequal" unicode="&#x2248;" horiz-adv-x="714" 
d="M214 597q52 0 151 -37q97 -38 138 -38q81 0 123 66v-120q-15 -24 -50 -40t-73 -16q-61 0 -156 38q-97 37 -133 37q-80 0 -124 -66v120q15 24 49.5 40t74.5 16zM90 223q14 24 49 40.5t74 16.5q51 0 152 -37q97 -38 138 -38q78 0 123 64v-118q-15 -25 -49 -40.5t-74 -15.5
q-63 0 -156 37q-92 37 -134 37q-36 0 -69 -17t-54 -49v120z" />
    <glyph glyph-name="notequal" unicode="&#x2260;" horiz-adv-x="714" 
d="M329 145l-41 -146h-77l41 146h-171v106h201l64 229h-265v104h294l36 127h76l-35 -127h183v-104h-213l-64 -229h277v-106h-306z" />
    <glyph glyph-name="equivalence" unicode="&#x2261;" horiz-adv-x="714" 
d="M81 521v104h554v-104h-554zM81 312v105h554v-105h-554zM81 104v106h554v-106h-554z" />
    <glyph glyph-name="lessequal" unicode="&#x2264;" horiz-adv-x="714" 
d="M90 424v100l527 212v-116l-396 -145l396 -145v-121zM94 6v105h525v-105h-525z" />
    <glyph glyph-name="greaterequal" unicode="&#x2265;" horiz-adv-x="714" 
d="M96 330l396 145l-396 145v116l527 -212v-100l-527 -215v121zM94 6v105h526v-105h-526z" />
    <glyph glyph-name="uni22A0" unicode="&#x22a0;" horiz-adv-x="850" 
d="M73 711h705v-711h-705v711zM169 90h513v530h-513v-530zM425 301l-137 -142l-57 56l139 143l-138 142l58 55l136 -139l135 140l57 -56l-137 -141l139 -142l-58 -57z" />
    <glyph glyph-name="house" unicode="&#x2302;" horiz-adv-x="791" 
d="M74 0v401l322 309l321 -309v-401h-643z" />
    <glyph glyph-name="filledbox" unicode="&#x25a0;" horiz-adv-x="850" 
d="M73 711h705v-711h-705v711z" />
    <glyph glyph-name="uni25A1" unicode="&#x25a1;" horiz-adv-x="850" 
d="M73 0v711h705v-711h-705zM169 620v-530h513v530h-513z" />
    <glyph glyph-name="uni25AA" unicode="&#x25aa;" horiz-adv-x="710" 
d="M74 562h562v-562h-562v562z" />
    <glyph glyph-name="uni25AB" unicode="&#x25ab;" horiz-adv-x="710" 
d="M74 562h562v-562h-562v562zM170 90h371v383h-371v-383z" />
    <glyph glyph-name="triagup" unicode="&#x25b2;" 
d="M-5 0l419 725l416 -725h-835z" />
    <glyph glyph-name="triagrt" unicode="&#x25ba;" 
d="M73 781l724 -418l-724 -418v836z" />
    <glyph glyph-name="triagdn" unicode="&#x25bc;" 
d="M830 713l-416 -725l-419 725h835z" />
    <glyph glyph-name="triaglf" unicode="&#x25c4;" 
d="M753 -55l-725 418l725 418v-836z" />
    <glyph glyph-name="lozenge" unicode="&#x25ca;" horiz-adv-x="985" 
d="M15 356l474 473l475 -475l-473 -474zM492 34l317 318l-322 322l-317 -317z" />
    <glyph glyph-name="circle" unicode="&#x25cb;" horiz-adv-x="848" 
d="M423 -10q-106 0 -186 46q-83 48 -128.5 129t-45.5 186q0 160 102 259q100 103 258 103q155 0 260 -102q102 -105 102 -260q0 -157 -102 -259t-260 -102zM423 85q75 0 136 35q61 36 95 96.5t34 134.5q0 77 -34 136q-36 63 -95.5 98t-135.5 35q-73 0 -134 -35
q-61 -36 -95 -97t-34 -137q0 -77 34 -136q36 -61 95.5 -95.5t133.5 -34.5z" />
    <glyph glyph-name="uni25CE" unicode="&#x25ce;" horiz-adv-x="838" 
d="M417 -10q-104 0 -184 46q-81 47 -126 127.5t-45 183.5q0 155 100 258q100 102 255 102q154 0 258 -101q101 -104 101 -259t-100 -255q-99 -102 -259 -102zM417 117q67 0 119 30q53 32 82.5 83.5t29.5 116.5t-30 119q-31 54 -83 85t-118 31q-65 0 -115 -31
q-53 -32 -82.5 -84.5t-29.5 -119.5q0 -65 30 -117q30 -53 81.5 -83t115.5 -30zM418 182q-46 0 -85 21q-38 21 -59.5 58.5t-21.5 84.5q0 49 22 86q47 82 144 82q49 0 86 -22q82 -47 82 -146q0 -47 -22 -84q-46 -80 -146 -80zM418 291q23 0 38.5 16.5t15.5 38.5q0 26 -15 42
t-39 16q-22 0 -36.5 -16t-14.5 -42q0 -22 15 -38.5t36 -16.5z" />
    <glyph glyph-name="uni25CF" unicode="&#x25cf;" horiz-adv-x="848" 
d="M423 -10q-106 0 -186 46q-83 48 -128.5 129t-45.5 186q0 160 102 259q100 103 258 103q155 0 260 -102q102 -105 102 -260q0 -157 -102 -259t-260 -102z" />
    <glyph glyph-name="uni25E2" unicode="&#x25e2;" 
d="M235 -71l-215 808l806 -217z" />
    <glyph glyph-name="uni25E3" unicode="&#x25e3;" 
d="M1 520l807 217l-216 -808z" />
    <glyph glyph-name="uni25E4" unicode="&#x25e4;" 
d="M4 163l591 592l216 -807z" />
    <glyph glyph-name="uni25E5" unicode="&#x25e5;" 
d="M19 -56l216 807l590 -592z" />
    <glyph glyph-name="uni2605" unicode="&#x2605;" horiz-adv-x="838" 
d="M601 84l-184 133l-185 -133l72 216l-183 134l225 -1l72 214l69 -214l228 -1l-186 -133z" />
    <glyph glyph-name="sun" unicode="&#x263c;" horiz-adv-x="866" 
d="M404 701h52l-17 -141h-19zM232 641l47 28l54 -131l-14 -10zM581 669l46 -28l-86 -113l-15 10zM114 503l26 46l114 -86l-10 -15zM717 549l29 -45l-130 -56l-10 16zM258 351q0 48 23 86q24 40 63 63t85 23q48 0 86 -23q87 -52 87 -149q0 -49 -24 -86q-24 -40 -63 -63
t-86 -23t-85 23q-40 25 -63 64t-23 85zM82 326v53l140 -17v-19zM778 379v-53l-140 17v19zM142 154l-28 46l130 55l10 -15zM746 201l-27 -47l-113 87l10 14zM279 36l-47 27l87 113l14 -10zM627 63l-46 -27l-55 130l15 10zM456 4h-52l16 141h19z" />
    <glyph glyph-name="uni263E" unicode="&#x263e;" horiz-adv-x="726" 
d="M502 597q-66 0 -119 -34q-54 -33 -85.5 -90t-31.5 -124q0 -66 32 -124q33 -57 86.5 -90t117.5 -33q31 0 70 12q-79 -57 -175 -57q-123 0 -207 86q-85 85 -85 206t85 206q84 86 207 86q98 0 175 -56q-39 12 -70 12z" />
    <glyph glyph-name="spade" unicode="&#x2660;" horiz-adv-x="840" 
d="M451 280q0 -72 39 -165q10 -23 21.5 -45.5t22 -42.5t14.5 -27h-250q4 7 9 17l12.5 25t13.5 26q57 116 57 212q-11 -33 -34 -63q-48 -68 -131 -68q-48 0 -82 21q-83 46 -83 132q0 54 23 102q23 45 70.5 92.5t134.5 117.5l135 108l136 -108q83 -66 128 -114
q49 -49 70.5 -95.5t21.5 -102.5q0 -40 -20 -77q-46 -76 -132 -76q-48 0 -82 19q-64 34 -94 112z" />
    <glyph glyph-name="club" unicode="&#x2663;" horiz-adv-x="840" 
d="M614 127q-55 0 -96.5 31.5t-62.5 83.5q5 -47 25 -99q14 -36 69 -143h-250q24 45 31 59q49 100 59 184q-21 -52 -64.5 -84t-98.5 -32q-48 0 -86 23q-85 51 -85 149q0 50 23 86q23 39 62 61.5t86 22.5q17 0 41 -6q-20 45 -20 85q0 47 23 85q24 39 63 61.5t86 22.5
q49 0 85 -23q84 -51 84 -146q0 -46 -19 -87q24 8 46 8q50 0 86 -23q39 -22 61 -60.5t22 -86.5t-23 -87q-22 -39 -61 -62t-86 -23z" />
    <glyph glyph-name="heart" unicode="&#x2665;" horiz-adv-x="840" 
d="M281 136q-84 93 -128 158q-92 128 -92 240q0 49 23 92q53 91 154 91q45 0 89 -21q83 -45 91 -139q7 70 54.5 115t122.5 45q51 0 92 -25q42 -25 66.5 -67t24.5 -91q0 -57 -22 -114q-46 -112 -203 -284l-135 -153z" />
    <glyph glyph-name="diamond" unicode="&#x2666;" horiz-adv-x="840" 
d="M420 725l315 -366l-315 -369l-316 369z" />
    <glyph glyph-name="uni267B" unicode="&#x267b;" horiz-adv-x="768" 
d="M320 672h162q20 -1 29.5 -2t23 -10t23.5 -27l24 -41l36 21l-52 -141l-143 27l33 20l-59 105q-11 20 -31 32q-11 6 -22.5 9.5t-17.5 4.5l-6 1v1zM206 620q10 18 28 25q23 15 54 13q29 -2 52.5 -14t31.5 -28l-97 -168l-126 72zM715 363q7 -16 7 -36q0 -30 -16 -53
q-15 -23 -37 -37.5t-41 -14.5l-97 168l125 70zM136 124l-79 139q-9 16 -12.5 26.5t-2.5 26t11 32.5l24 42l-36 21l146 26l49 -140l-34 21l-30 -51q-30 -50 -31 -54q-11 -21 -11 -42q0 -12 2 -23.5t4 -17.5l2 -6h-2zM706 242l-82 -140q-11 -17 -17 -24.5t-20.5 -15
t-35.5 -7.5h-48v-41l-93 114l93 113v-42h121q24 0 43 11q11 7 20.5 15t13.5 13l4 5zM243 55q-19 0 -37 11q-27 17 -38 41q-12 25 -13.5 51.5t7.5 40.5h194v-144h-113z" />
    <glyph glyph-name="uni267C" unicode="&#x267c;" horiz-adv-x="768" 
d="M718 349q0 -138 -97 -235t-235 -97q-141 0 -238 97q-98 95 -98 235t98 238t238 98q137 0 235 -98q97 -100 97 -238zM329 603l11 -2q36 -10 49 -35l46 -81l-25 -16l111 -21l39 109l-28 -15l-18 31q-12 20 -25 25.5t-35 5.5h-125v-1zM201 486l98 -55l74 129q-5 10 -25 22
q-45 23 -82 1q-16 -9 -21 -21zM594 441l-98 -57l76 -131q14 0 31 11q42 29 42 73q0 14 -8 28zM192 178q-2 3 -3 11q-11 29 5 60l47 81l27 -17l-39 108l-111 -19l26 -17l-19 -32q-3 -6 -5 -11.5t-2.5 -11t-1 -9t1.5 -9t2.5 -8t3.5 -9.5t4 -9l63 -108h1zM630 270l-7 -8
q-20 -24 -55 -24h-93v30l-73 -87l73 -87v33h37q16 0 28 6t15.5 10.5t12.5 17.5l63 108zM358 127v111h-151q-8 -12 -6 -33q2 -47 40 -70q18 -8 29 -8h88z" />
    <glyph glyph-name="uni267D" unicode="&#x267d;" horiz-adv-x="768" 
d="M718 349q0 -138 -97 -235t-235 -97q-141 0 -238 97q-98 95 -98 235t98 238t238 98q137 0 235 -98q97 -100 97 -238zM702 349q0 133 -93 226q-91 93 -223 93q-133 0 -226 -93t-93 -226t93 -224q94 -92 226 -92q131 0 223 92q93 91 93 224zM329 604h125q22 0 35 -5.5
t25 -25.5l18 -31l28 15l-39 -109l-111 21l25 16l-46 81q-11 16 -24 24q-8 5 -17 8t-14 4l-5 1v1zM245 562q5 12 21 21q19 12 42 10q52 -5 65 -33l-74 -129l-98 55zM637 365q8 -14 8 -28q0 -24 -12 -42q-29 -42 -61 -42l-76 131l98 57zM191 178l-63 108q-1 2 -4 9t-3.5 9.5
t-2.5 8t-1.5 9t1 9t2.5 11t5 11.5l19 32l-26 17l111 19l39 -108l-27 17l-47 -81q-9 -14 -9 -33q0 -10 1.5 -19.5t3.5 -14.5l2 -4h-1zM631 269l-63 -108q-9 -13 -12.5 -17.5t-15.5 -10.5t-28 -6h-37v-33l-73 87l73 87v-30h93q20 0 34 8q8 5 15 11t10 9l3 4zM270 127
q-11 0 -29 8q-18 10 -29 30q-21 44 -5 73h151v-111h-88z" />
    <glyph glyph-name="uni26AC" unicode="&#x26ac;" horiz-adv-x="711" 
d="M355 -10q-84 0 -151 38q-68 38 -105.5 104.5t-37.5 149.5q0 79 39 151q39 67 106 105t149 38q80 0 150 -38q68 -40 106 -106t38 -150q0 -82 -38 -149q-40 -67 -106.5 -105t-149.5 -38zM355 78q61 0 102 27q46 27 71.5 73t25.5 104q0 60 -26 107q-56 99 -173 99
q-61 0 -102 -27q-95 -55 -95 -179q0 -56 25 -104q55 -100 172 -100z" />
    <glyph glyph-name="uni2E18" unicode="&#x2e18;" horiz-adv-x="869" 
d="M441 534q50 0 71.5 -19t21.5 -66q0 -86 -93 -86t-93 86q0 85 93 85zM427 -205q-349 0 -349 208q0 94 80 135q22 11 46.5 20t59 19.5t46.5 14.5q82 27 86 82l2 38q22 -2 44 -2q31 0 45 2q3 -16 5 -92q2 -46 2 -78q3 -177 3 -180v-60q89 10 129 48t40 114h125
q0 -269 -364 -269zM203 8q0 -53 43.5 -78.5t139.5 -29.5v43q0 118 6 211q-32 -29 -121 -62q-33 -13 -50.5 -32t-17.5 -52z" />
    <glyph glyph-name="uni3008" unicode="&#x3008;" horiz-adv-x="469" 
d="M312 -200l-264 482l257 487h134l-253 -483l267 -486h-141z" />
    <glyph glyph-name="uni3009" unicode="&#x3009;" horiz-adv-x="469" 
d="M16 -200l266 486l-252 483h136l255 -487l-262 -482h-143z" />
    <glyph glyph-name="I.alt" horiz-adv-x="320" 
d="M98 0v711h124v-711h-124z" />
    <glyph glyph-name="Iacute.alt" horiz-adv-x="320" 
d="M293 1041h138l-218 -223h-103zM98 0v711h124v-711h-124z" />
    <glyph glyph-name="Ibreve.alt" horiz-adv-x="320" 
d="M159 812q-93 0 -144 29q-91 51 -96 192h92q5 -133 149 -134q73 1 111 36t39 98h94q-1 -63 -27 -114q-53 -107 -218 -107zM98 0v711h124v-711h-124z" />
    <glyph glyph-name="Icircumflex.alt" horiz-adv-x="320" 
d="M160 951l-112 -134h-114l178 209h95l179 -209h-113zM98 0v711h124v-711h-124z" />
    <glyph glyph-name="Idieresis.alt" horiz-adv-x="320" 
d="M43 813q-44 0 -62.5 17t-18.5 58q0 40 20 58t61 18t60.5 -18t19.5 -58t-19.5 -57.5t-60.5 -17.5zM283 813q-44 0 -62 17t-18 58q0 40 20 58t61 18t60.5 -18t19.5 -58t-19.5 -57.5t-61.5 -17.5zM98 0v711h124v-711h-124z" />
    <glyph glyph-name="Idotaccent.alt" horiz-adv-x="320" 
d="M162 816q-48 0 -68 18t-20 64q0 43 21.5 62.5t66.5 19.5t66.5 -19.5t21.5 -62.5q0 -82 -88 -82zM98 0v711h124v-711h-124z" />
    <glyph glyph-name="Igrave.alt" horiz-adv-x="320" 
d="M-102 1026h141l181 -209h-104zM98 0v711h124v-711h-124z" />
    <glyph glyph-name="Imacron.alt" horiz-adv-x="320" 
d="M-32 913h397v-92h-397v92zM98 0v711h124v-711h-124z" />
    <glyph glyph-name="Iogonek.alt" horiz-adv-x="320" 
d="M346 -139q-58 -127 -205 -127q-77 0 -121 31.5t-44 90.5q0 44 26.5 81.5t95.5 76.5v697h124v-711h-1q-44 -23 -93 -55q-59 -39 -59 -80q0 -26 22 -42t57 -16q64 0 92 54h106z" />
    <glyph glyph-name="Itilde.alt" horiz-adv-x="320" 
d="M-84 811q-1 70 32 111t103 41q53 0 112 -35q58 -36 92 -36q57 0 58 68h77q0 -74 -31 -113t-104 -39q-53 0 -112 35t-93 35q-29 0 -42.5 -16.5t-15.5 -50.5h-76zM98 0v711h124v-711h-124z" />
    <glyph glyph-name="g.alt" horiz-adv-x="786" 
d="M367 -262q-129 0 -200 17q-140 29 -140 126q0 58 46 89t142 41q-89 3 -131 26.5t-42 75.5t49 84.5t149 36.5q-92 12 -137 49.5t-45 109.5q0 85 74 134.5t216 53.5q13 3 85 5q123 2 147 12q16 6 21.5 17t5.5 34v7h135v-6q0 -31 -9 -47t-32 -24q-37 -10 -182 -12
q114 -8 170 -50.5t56 -124.5q0 -95 -82 -138.5t-249 -43.5h-70q-71 0 -120 -7q-41 -8 -57.5 -20.5t-16.5 -32.5q0 -47 163 -46h191q146 0 213 -38.5t67 -126.5v-3q0 -57 -37 -105q-80 -93 -341 -93h-39zM402 294q116 0 169.5 22.5t53.5 76.5q0 55 -50.5 80.5t-163.5 25.5
q-42 0 -62 -4q-88 -4 -128 -28.5t-40 -74.5q0 -56 53.5 -77t167.5 -21zM420 -163q98 0 152 12q96 21 96 82v3q0 28 -15 43q-30 34 -162 34h-157q-181 -2 -181 -89q0 -45 54.5 -65t178.5 -20h34z" />
    <glyph glyph-name="gbreve.alt" horiz-adv-x="887" 
d="M434 678q-93 0 -144 29q-91 51 -96 192h92q5 -133 149 -134q73 1 111 36t39 98h94q-1 -63 -27 -114q-53 -107 -218 -107zM421 -243q-168 0 -251.5 46.5t-105.5 148.5h137q13 -34 40 -58q49 -43 189 -43q248 0 248 158v104q-77 -122 -284 -122q-98 0 -175 31
q-167 65 -167 264q0 95 43 165q90 141 299 141q101 0 175.5 -36t112.5 -102l11 117h107v-563q0 -118 -98 -184.5t-281 -66.5zM430 88q123 0 188 50t65 147t-68 153t-187 56t-184.5 -54.5t-65.5 -153.5q0 -101 61.5 -149.5t190.5 -48.5z" />
    <glyph glyph-name="gcircumflex.alt" horiz-adv-x="887" 
d="M435 817l-112 -134h-114l178 209h95l179 -209h-113zM421 -243q-168 0 -251.5 46.5t-105.5 148.5h137q13 -34 40 -58q49 -43 189 -43q248 0 248 158v104q-77 -122 -284 -122q-98 0 -175 31q-167 65 -167 264q0 95 43 165q90 141 299 141q101 0 175.5 -36t112.5 -102
l11 117h107v-563q0 -118 -98 -184.5t-281 -66.5zM430 88q123 0 188 50t65 147t-68 153t-187 56t-184.5 -54.5t-65.5 -153.5q0 -101 61.5 -149.5t190.5 -48.5z" />
    <glyph glyph-name="gcommaaccent.alt" horiz-adv-x="887" 
d="M434 677q-50 0 -72 19t-22 66q0 137 175 154l5 -52q-100 -12 -112 -73q20 6 40 6q44 0 61 -12t17 -46t-22 -48t-70 -14zM421 -243q-168 0 -251.5 46.5t-105.5 148.5h137q13 -34 40 -58q49 -43 189 -43q248 0 248 158v104q-77 -122 -284 -122q-98 0 -175 31
q-167 65 -167 264q0 95 43 165q90 141 299 141q101 0 175.5 -36t112.5 -102l11 117h107v-563q0 -118 -98 -184.5t-281 -66.5zM430 88q123 0 188 50t65 147t-68 153t-187 56t-184.5 -54.5t-65.5 -153.5q0 -101 61.5 -149.5t190.5 -48.5z" />
    <glyph glyph-name="gdotaccent.alt" horiz-adv-x="887" 
d="M437 682q-48 0 -68 18t-20 64q0 43 21.5 62.5t66.5 19.5t66.5 -19.5t21.5 -62.5q0 -82 -88 -82zM421 -243q-168 0 -251.5 46.5t-105.5 148.5h137q13 -34 40 -58q49 -43 189 -43q248 0 248 158v104q-77 -122 -284 -122q-98 0 -175 31q-167 65 -167 264q0 95 43 165
q90 141 299 141q101 0 175.5 -36t112.5 -102l11 117h107v-563q0 -118 -98 -184.5t-281 -66.5zM430 88q123 0 188 50t65 147t-68 153t-187 56t-184.5 -54.5t-65.5 -153.5q0 -101 61.5 -149.5t190.5 -48.5z" />
    <glyph glyph-name="g.alt2" horiz-adv-x="887" 
d="M421 -243q-168 0 -251.5 46.5t-105.5 148.5h137q13 -34 40 -58q49 -43 189 -43q248 0 248 158v104q-77 -122 -284 -122q-98 0 -175 31q-167 65 -167 264q0 95 43 165q90 141 299 141q101 0 175.5 -36t112.5 -102l11 117h107v-563q0 -118 -98 -184.5t-281 -66.5zM430 88
q123 0 188 50t65 147t-68 153t-187 56t-184.5 -54.5t-65.5 -153.5q0 -101 61.5 -149.5t190.5 -48.5z" />
    <glyph glyph-name="i.dot" horiz-adv-x="300" 
d="M153 667q-44 0 -63.5 18.5t-19.5 61.5q0 42 20 60.5t62 18.5t62.5 -18.5t20.5 -60.5q0 -80 -82 -80zM86 0v571h128v-571h-128z" />
    <glyph glyph-name="zero.inf" horiz-adv-x="453" 
d="M222 -177q-96 0 -147 49t-51 138q0 56 25 99q54 92 177 92q89 0 142.5 -52.5t53.5 -138.5q0 -85 -53.5 -136t-146.5 -51zM222 -93q47 0 75.5 27.5t28.5 75.5q0 50 -27.5 77.5t-75.5 27.5q-49 0 -76 -27.5t-27 -77.5t26.5 -76.5t75.5 -26.5z" />
    <glyph glyph-name="one.inf" horiz-adv-x="304" 
d="M19 -167v80h94v137h-75v67q72 4 87 76h70v-280h91v-80h-267z" />
    <glyph glyph-name="two.inf" horiz-adv-x="411" 
d="M23 -167v35q0 80 70 115q32 16 130 43q70 20 70 54q0 48 -80 48q-95 0 -95 -76h-89q4 148 185 148q84 0 125.5 -32.5t41.5 -85.5q0 -40 -22 -63q-34 -36 -128 -59q-94 -24 -115 -52h266v-75h-359z" />
    <glyph glyph-name="three.inf" horiz-adv-x="427" 
d="M210 -175q-97 0 -141.5 33.5t-46.5 107.5h91q1 -38 25 -54.5t80 -16.5q88 0 88 47q0 21 -16 30t-54 9h-73v66h70q64 0 64 38q0 42 -78 42q-98 0 -98 -66h-90q0 66 48.5 102.5t140.5 36.5q83 0 125 -27.5t42 -73.5q0 -36 -20.5 -53.5t-60.5 -23.5q90 -13 90 -85
q0 -112 -186 -112z" />
    <glyph glyph-name="four.inf" horiz-adv-x="421" 
d="M334 -91v-76h-79v76h-246v61l250 223h75v-216h76v-68h-76zM108 -23h147v119l1 13l-3 -4z" />
    <glyph glyph-name="five.inf" horiz-adv-x="432" 
d="M218 -175q-168 0 -187 117h105q9 -47 86 -47q95 0 95 60q0 61 -85 61q-63 0 -104 -39l-5 -5l-77 14l25 207h308q-1 -41 -18.5 -55.5t-64.5 -14.5h-153l-15 -99q49 54 135 54q141 0 141 -121q0 -60 -48 -96t-138 -36z" />
    <glyph glyph-name="six.inf" horiz-adv-x="451" 
d="M414 -49q0 -60 -47 -94t-135 -34q-74 0 -118 24q-82 44 -82 162q0 88 52.5 140t145.5 52q151 0 177 -108h-99q-14 36 -78 36q-55 0 -85 -31.5t-30 -84.5q0 -10 2 -28q48 75 158 75q139 0 139 -109zM234 -104q92 0 92 54q0 49 -79 49q-78 0 -118 -55q25 -48 105 -48z" />
    <glyph glyph-name="seven.inf" horiz-adv-x="376" 
d="M69 -167q20 59 51 107q64 105 143 175h-249v78h346v-71q-33 -30 -72 -80q-82 -105 -116 -209h-103z" />
    <glyph glyph-name="eight.inf" horiz-adv-x="444" 
d="M216 -175q-100 0 -144.5 24t-44.5 81q0 64 73 86q-56 18 -56 75q0 53 48 81t130 28q85 0 133 -26.5t48 -79.5q0 -56 -64 -77q73 -22 73 -85q0 -57 -49 -82t-147 -25zM234 42q83 0 83 44q0 25 -23 35.5t-72 10.5q-92 0 -92 -47q0 -43 77 -43h27zM219 -109q55 0 80.5 11.5
t25.5 37.5q0 24 -22 34.5t-69 10.5h-28q-90 0 -90 -47q0 -26 24 -36.5t79 -10.5z" />
    <glyph glyph-name="nine.inf" horiz-adv-x="437" 
d="M203 -176q-158 0 -183 104h102q17 -33 80 -33q122 0 122 116v15q-44 -69 -150 -69q-151 0 -151 110q0 62 48 98t133 36q201 0 201 -191q0 -88 -50.5 -137t-151.5 -49zM199 18q82 0 116 55q-22 57 -110 57q-93 0 -93 -61q0 -51 87 -51z" />
    <glyph glyph-name="underscore" horiz-adv-x="832" 
d="M796 0h-760v126h760v-126z" />
    <glyph glyph-name="backslash.cap" horiz-adv-x="409" 
d="M142 711l261 -711h-138l-261 711h138z" />
    <glyph glyph-name="periodcentered.cap" horiz-adv-x="355" 
d="M177 269q-50 0 -71.5 19.5t-21.5 65.5q0 86 93 86q92 0 92 -86q0 -85 -92 -85z" />
    <glyph glyph-name="bullet.cap" horiz-adv-x="389" 
d="M194 123q-56 0 -80.5 24.5t-24.5 80.5q0 55 25.5 79.5t79.5 24.5q55 0 80 -23.5t25 -80.5q0 -55 -25.5 -80t-79.5 -25z" />
    <glyph glyph-name="uni2016.cap" horiz-adv-x="675" 
d="M107 -103v879h123v-879h-123zM445 -103v879h124v-879h-124z" />
    <glyph glyph-name="exclamdown.cap" horiz-adv-x="389" 
d="M190 731q50 0 71 -18.5t21 -65.5q0 -45 -23 -65t-69 -20t-68.5 20t-22.5 65q0 84 91 84zM116 0v115q0 93 6 171q10 129 24 196q18 -2 42 -2q27 0 43 2q5 -16 11 -66q20 -127 20 -300v-116h-146z" />
    <glyph glyph-name="uni2E18.cap" horiz-adv-x="869" 
d="M441 721q50 0 71.5 -19t21.5 -66q0 -86 -93 -86t-93 86q0 85 93 85zM427 -18q-349 0 -349 208q0 94 80 135q22 11 46.5 20t59 19.5t46.5 14.5q82 27 86 82l2 38q22 -2 44 -2q31 0 45 2q3 -16 5 -92q2 -46 2 -78q3 -177 3 -180v-60q89 10 129 48.5t40 113.5h125
q0 -269 -364 -269zM203 195q0 -53 43.5 -78.5t139.5 -29.5v43q0 118 6 211q-32 -29 -121 -62q-33 -13 -50.5 -32t-17.5 -52z" />
    <glyph glyph-name="questiondown.cap" horiz-adv-x="887" 
d="M495 724q50 0 71 -19t21 -66q0 -85 -92 -85q-46 0 -69 20.5t-23 65.5q0 84 92 84zM438 510q13 -11 59 -11q49 0 62 11q0 -2 0.5 -16.5t0.5 -23.5v-21q0 -45 -25 -75q-38 -41 -145 -74q-40 -13 -68 -24q-74 -27 -74 -80q0 -33 19 -58q38 -49 198 -49q127 0 187 38.5
t60 127.5h124q0 -271 -371 -271q-124 0 -200 26q-142 50 -142 182q0 86 56 128q35 28 119 54q52 16 65 21q69 25 73 77z" />
    <glyph glyph-name="slash.cap" horiz-adv-x="409" 
d="M7 0l255 711h141l-255 -711h-141z" />
    <glyph glyph-name="uni3008.cap" horiz-adv-x="469" 
d="M312 -142l-264 481l257 488h134l-253 -484l267 -485h-141z" />
    <glyph glyph-name="uni3009.cap" horiz-adv-x="469" 
d="M16 -142l266 485l-252 484h136l255 -488l-262 -481h-143z" />
    <glyph glyph-name="braceleft.cap" horiz-adv-x="524" 
d="M314 -144q-98 0 -140.5 36.5t-42.5 105.5q0 34 39 120q39 84 39 109q0 71 -87 71h-98v108h93q82 0 82 68q0 27 -30 98q-31 69 -31 107q0 70 43 106t140 36h154v-97h-90q-64 0 -90.5 -21.5t-26.5 -62.5q0 -21 31 -83q30 -62 30 -101q0 -50 -33 -75.5t-112 -25.5v-5
q60 0 89 -15q62 -27 62 -90q0 -39 -35 -113t-35 -102q0 -77 115 -77h95v-97h-161z" />
    <glyph glyph-name="braceright.cap" horiz-adv-x="524" 
d="M48 -47h94q117 0 117 83q0 19 -33 97q-34 72 -34 114q0 27 13 51q31 51 134 50v6q-78 0 -110.5 27t-32.5 77q0 35 15 66q4 9 15 33t15.5 35t9 27t4.5 27q0 38 -25.5 58t-89.5 20h-92v97h158q184 0 184 -142q0 -38 -36 -106q-37 -70 -37 -97q0 -70 81 -70h102v-108h-93
q-43 0 -66.5 -18t-23.5 -51q0 -28 36 -111t36 -121q0 -69 -42.5 -105t-139.5 -36h-159v97z" />
    <glyph glyph-name="bracketleft.cap" horiz-adv-x="503" 
d="M453 -145h-344v967h344v-98h-220v-770h220v-99z" />
    <glyph glyph-name="bracketright.cap" horiz-adv-x="503" 
d="M50 -145v99h220v769h-220v97h344v-965h-344z" />
    <glyph glyph-name="parenleft.cap" horiz-adv-x="534" 
d="M485 -148q-194 20 -290 116q-115 112 -115 366q0 161 51 269q95 193 354 220v-116q-81 -11 -148 -51q-127 -78 -127 -325q0 -127 34 -201q60 -136 241 -157v-121z" />
    <glyph glyph-name="parenright.cap" horiz-adv-x="534" 
d="M49 -28q84 10 146 46q128 75 128 313q0 130 -32 209q-32 76 -91.5 115.5t-150.5 51.5v116q120 -12 211 -65q193 -111 193 -424q0 -252 -114 -366q-99 -97 -290 -116v120z" />
    <glyph glyph-name="parenleft.inf" horiz-adv-x="327" 
d="M313 -291q-130 10 -197 83.5t-67 205.5q0 89 33 157q69 130 231 142v-86q-169 -18 -169 -213q0 -183 169 -200v-89z" />
    <glyph glyph-name="parenright.inf" horiz-adv-x="327" 
d="M8 -202q168 17 168 201q0 194 -168 212v86q78 -6 138 -42q126 -75 126 -256q0 -133 -67 -206.5t-197 -83.5v89z" />
    <glyph glyph-name="emdash.cap" horiz-adv-x="790" 
d="M716 298h-642v122h642v-122z" />
    <glyph glyph-name="endash.cap" horiz-adv-x="551" 
d="M477 298h-403v122h403v-122z" />
    <glyph glyph-name="figuredash.cap" horiz-adv-x="925" 
d="M850 298h-776v122h776v-122z" />
    <glyph glyph-name="uni2015.cap" horiz-adv-x="836" 
d="M762 298h-688v122h688v-122z" />
    <glyph glyph-name="hyphen.cap" horiz-adv-x="719" 
d="M644 298h-570v122h570v-122z" />
    <glyph glyph-name="guillemotleft.cap" horiz-adv-x="803" 
d="M311 123l-207 221v19l197 224h116l-198 -226l217 -238h-125zM618 123l-215 224v21l196 219h117l-197 -223l224 -241h-125z" />
    <glyph glyph-name="guillemotright.cap" horiz-adv-x="803" 
d="M70 123l224 240l-197 224h116l197 -219v-21l-215 -224h-125zM377 123l217 238l-197 226h114l199 -224v-19l-207 -221h-126z" />
    <glyph glyph-name="guilsinglleft.cap" horiz-adv-x="508" 
d="M310 123l-206 216v22l196 226h120l-199 -232l215 -232h-126z" />
    <glyph glyph-name="guilsinglright.cap" horiz-adv-x="508" 
d="M71 123l216 235l-198 229h120l194 -223v-22l-206 -219h-126z" />
    <glyph glyph-name="periodcentered.smcp" horiz-adv-x="1361" 
d="M1287 298h-1213v122h1213v-122z" />
    <glyph glyph-name="space_dotbelowcomb" horiz-adv-x="695" 
d="M334 -270q-50 0 -70 18t-20 65q0 45 22 64.5t68 19.5q45 0 67 -20t22 -64t-22 -63.5t-67 -19.5z" />
    <glyph glyph-name="uni00200326" horiz-adv-x="695" 
d="M259 -258q99 12 111 73q-18 -6 -39 -6q-44 0 -61.5 12t-17.5 47q0 34 22 48t71 14q50 0 71.5 -19.5t21.5 -66.5q0 -66 -40 -105.5t-135 -48.5z" />
    <glyph glyph-name="uni00200326.alt" horiz-adv-x="695" 
d="M337 669q-50 0 -72 19t-22 66q0 137 175 154l5 -52q-100 -12 -112 -73q20 6 40 6q44 0 61 -12t17 -46t-22 -48t-70 -14z" />
    <glyph glyph-name="plus.inf" horiz-adv-x="435" 
d="M249 -34v-127h-76v127h-125v74h125v122h76v-122h128v-74h-128z" />
    <glyph glyph-name="minus.inf" horiz-adv-x="435" 
d="M47 -36v78h331v-78h-331z" />
    <glyph glyph-name="equal.inf" horiz-adv-x="435" 
d="M52 51v74h321v-74h-321zM52 -115v75h321v-75h-321z" />
    <glyph glyph-name="at.cap" horiz-adv-x="1021" 
d="M520 -65q-204 0 -327 98q-131 106 -131 303q0 187 127 305q128 119 338 119q213 0 329 -111q104 -100 104 -246q0 -104 -49.5 -161.5t-131.5 -57.5q-112 0 -144 77q-38 -83 -160 -83q-64 0 -103 23q-79 45 -79 145q0 47 21 87q48 86 166 86q105 0 148 -68l15 63h67v-150
q0 -51 15.5 -71.5t53.5 -20.5q85 0 85 131q0 114 -76 186q-84 82 -262 82q-114 0 -196 -42q-172 -90 -172 -293q0 -94 43 -166q90 -146 319 -146q164 0 251 93l93 -50q-120 -132 -344 -132zM499 265q57 0 87 23t30 60q0 40 -29.5 62.5t-80.5 22.5q-115 0 -115 -87
q0 -38 27.5 -59.5t80.5 -21.5z" />
    <glyph glyph-name="registered.cap" horiz-adv-x="982" 
d="M491 -19q-124 0 -229 39q-216 86 -216 334q0 174 127 280q124 104 317 104q192 0 317 -102q129 -104 129 -282q0 -129 -58 -211q-114 -162 -387 -162zM491 64q102 0 186 31q170 68 170 259q0 97 -46 165q-91 136 -311 136q-103 0 -185 -35q-170 -75 -170 -266
q0 -98 44 -163q89 -127 312 -127zM395 293v-105h-78v336h200q91 0 132.5 -27t41.5 -84q0 -39 -20 -59.5t-62 -29.5q38 -5 52.5 -25t14.5 -69v-30q0 -7 7 -12h-82q-7 5 -7 13v32q0 28 -8 41q-12 19 -79 19h-112zM512 360q55 -1 76.5 11.5t21.5 39.5q0 26 -20 35t-74 9h-121
v-95h117z" />
    <glyph glyph-name="bar.cap" horiz-adv-x="337" 
d="M107 -103v879h123v-879h-123z" />
    <glyph glyph-name="brokenbar.cap" horiz-adv-x="337" 
d="M107 776h123v-376h-123v376zM230 -103h-123v399h123v-399z" />
    <glyph glyph-name="Aumlaut" horiz-adv-x="895" 
d="M140 570q-44 0 -63 17t-19 60q0 40 20 58t62 18t61.5 -18t19.5 -59q0 -40 -19.5 -58t-61.5 -18zM753 570q-44 0 -62.5 17t-18.5 60q0 40 20 58t62 18q41 0 61 -18t20 -59q0 -40 -20 -58t-62 -18zM660 178h-426l-89 -178h-134l369 711h129l375 -711h-132zM444 598
l-159 -318h323z" />
    <glyph glyph-name="Oumlaut" horiz-adv-x="955" 
d="M103 635q-29 0 -41.5 12t-12.5 41q0 52 55 52q54 0 54 -52q0 -24 -15.5 -38.5t-39.5 -14.5zM852 635q-55 0 -55 53q0 52 55 52t55 -52q0 -53 -55 -53zM476 -19q-118 0 -218 39q-203 86 -203 328v3q0 123 55 204q55 84 149.5 128t216.5 44q118 0 216 -43q208 -94 208 -332
v-5q0 -124 -56 -205q-109 -161 -368 -161zM475 93q88 0 155 26q143 54 143 229q0 94 -37 152q-73 115 -260 115q-140 0 -217 -66t-77 -200v-1q0 -87 37 -143q74 -112 256 -112z" />
    <glyph glyph-name="Uumlaut" horiz-adv-x="910" 
d="M361 558q-35 0 -50 18t-15 61q0 81 65 81q64 0 64 -81q0 -79 -64 -79zM553 558q-35 0 -50 18t-15 61t16 62t50 19q64 0 64 -81q0 -79 -65 -79zM456 -20q-192 0 -283.5 95.5t-91.5 306.5v329h129v-326q0 -152 59 -219t188 -67q128 0 185.5 66t57.5 221v325h129v-328
q0 -140 -43 -232q-85 -171 -330 -171z" />
    <glyph glyph-name="cordinal" horiz-adv-x="598" 
d="M574 487q-24 -182 -274 -182q-266 0 -266 209q0 70 35 117q70 100 233 100q117 0 188.5 -48t81.5 -135h-104q-17 98 -164 98q-77 0 -123 -33.5t-46 -96.5q0 -126 167 -126q153 0 167 97h105z" />
    <glyph glyph-name="caronSlovak" horiz-adv-x="691" 
d="M339 889h114l-87 -202h-87z" />
    <glyph glyph-name="altcedilla" horiz-adv-x="691" 
d="M345 -323q-74 0 -121 19q-85 34 -104 131h115q5 -34 33.5 -53t75.5 -19q50 0 75 17.5t25 47.5q0 66 -104 66h-59v74h81q91 0 135.5 -37t44.5 -99q0 -68 -50 -107.5t-147 -39.5z" />
    <glyph glyph-name="doublegrave" horiz-adv-x="691" 
d="M77 884h136l171 -209h-97zM295 884h137l167 -209h-96z" />
    <glyph glyph-name="invertedbreve" horiz-adv-x="691" 
d="M346 894q88 0 142 -26q95 -49 97 -195h-92q-3 73 -36.5 103t-111.5 31q-75 -1 -111.5 -31.5t-39.5 -102.5h-94q6 221 246 221z" />
    <glyph glyph-name="onethirdemdash" horiz-adv-x="551" 
d="M477 263h-403v123h403v-123z" />
    <glyph glyph-name="threequarteremdash" horiz-adv-x="790" 
d="M716 263h-642v123h642v-123z" />
    <glyph glyph-name="onethirdemdash.cap" horiz-adv-x="719" 
d="M644 298h-570v122h570v-122z" />
    <glyph glyph-name="threequarteremdash.cap" horiz-adv-x="656" 
d="M582 298h-508v122h508v-122z" />
    <glyph glyph-name="onesixteenth" horiz-adv-x="1491" 
d="M620 435l286 320l127 -107l-374 -248zM147 350v80h94v137h-75v67q72 4 87 76h70v-280h91v-80h-267zM1377 118q0 -60 -47 -94t-135 -34q-75 0 -118 24q-82 44 -82 162q0 88 52.5 140t145.5 52q151 0 177 -108h-99q-14 36 -78 36q-55 0 -85 -31.5t-30 -84.5q0 -10 2 -28
q48 75 158 75q139 0 139 -109zM661 0v80h94v137h-75v67q72 4 87 76h70v-280h91v-80h-267zM547 313l-301 -345l-129 116l394 263zM1197 63q92 0 92 54q0 49 -79 49q-78 0 -118 -55q25 -48 105 -48z" />
    <glyph glyph-name="threesixteenths" horiz-adv-x="1491" 
d="M619 435l286 320l127 -107l-374 -248zM276 342q-97 0 -141.5 33.5t-46.5 107.5h91q1 -38 25 -54.5t80 -16.5q88 0 88 47q0 21 -16 30t-54 9h-73v66h70q64 0 64 38q0 42 -78 42q-98 0 -98 -66h-90q0 66 48.5 102.5t140.5 36.5q83 0 125 -27.5t42 -73.5q0 -36 -20.5 -53.5
t-60.5 -23.5q90 -13 90 -85q0 -112 -186 -112zM1377 118q0 -60 -47 -94t-135 -34q-75 0 -118 24q-82 44 -82 162q0 88 52.5 140t145.5 52q151 0 177 -108h-99q-14 36 -78 36q-55 0 -85 -31.5t-30 -84.5q0 -10 2 -28q48 75 158 75q139 0 139 -109zM661 1v80h94v137h-75v67
q72 4 87 76h70v-280h91v-80h-267zM546 313l-301 -345l-129 116l394 263zM1197 63q92 0 92 54q0 49 -79 49q-78 0 -118 -55q25 -48 105 -48z" />
    <glyph glyph-name="fivesixteenths" horiz-adv-x="1491" 
d="M619 435l286 320l127 -107l-374 -248zM278 342q-168 0 -187 117h105q9 -47 86 -47q95 0 95 60q0 61 -85 61q-63 0 -104 -39l-5 -5l-77 14l25 207h308q-1 -41 -18.5 -55.5t-64.5 -14.5h-153l-15 -99q49 54 135 54q141 0 141 -121q0 -60 -48 -96t-138 -36zM1377 118
q0 -60 -47 -94t-135 -34q-75 0 -118 24q-82 44 -82 162q0 88 52.5 140t145.5 52q151 0 177 -108h-99q-14 36 -78 36q-55 0 -85 -31.5t-30 -84.5q0 -10 2 -28q48 75 158 75q139 0 139 -109zM661 1v80h94v137h-75v67q72 4 87 76h70v-280h91v-80h-267zM546 313l-301 -345
l-129 116l394 263zM1197 63q92 0 92 54q0 49 -79 49q-78 0 -118 -55q25 -48 105 -48z" />
    <glyph glyph-name="sevensixteenths" horiz-adv-x="1491" 
d="M619 435l286 320l127 -107l-374 -248zM225 350q20 59 51 107q64 105 143 175h-249v78h346v-71q-33 -30 -72 -80q-82 -105 -116 -209h-103zM1377 118q0 -60 -47 -94t-135 -34q-75 0 -118 24q-82 44 -82 162q0 88 52.5 140t145.5 52q151 0 177 -108h-99q-14 36 -78 36
q-55 0 -85 -31.5t-30 -84.5q0 -10 2 -28q48 75 158 75q139 0 139 -109zM661 1v80h94v137h-75v67q72 4 87 76h70v-280h91v-80h-267zM546 313l-301 -345l-129 116l394 263zM1197 63q92 0 92 54q0 49 -79 49q-78 0 -118 -55q25 -48 105 -48z" />
    <glyph glyph-name="ninesixteenths" horiz-adv-x="1491" 
d="M619 435l286 320l127 -107l-374 -248zM290 340q-158 0 -183 104h102q17 -33 80 -33q122 0 122 116v15q-43 -69 -150 -69q-151 0 -151 110q0 62 48 98t133 36q201 0 201 -191q0 -88 -50.5 -137t-151.5 -49zM286 534q82 0 116 55q-22 57 -110 57q-93 0 -93 -61
q0 -51 87 -51zM1377 118q0 -60 -47 -94t-135 -34q-75 0 -118 24q-82 44 -82 162q0 88 52.5 140t145.5 52q151 0 177 -108h-99q-14 36 -78 36q-55 0 -85 -31.5t-30 -84.5q0 -10 2 -28q48 75 158 75q139 0 139 -109zM661 1v80h94v137h-75v67q72 4 87 76h70v-280h91v-80h-267z
M546 313l-301 -345l-129 116l394 263zM1197 63q92 0 92 54q0 49 -79 49q-78 0 -118 -55q25 -48 105 -48z" />
    <glyph glyph-name="elevensixteenths" horiz-adv-x="1832" 
d="M959 435l286 320l127 -107l-374 -248zM488 351v80h94v148q-59 -11 -74 -11v67q72 4 86 76h70v-280h91v-80h-267zM147 350v80h93v148q-59 -11 -74 -11v67q72 4 86 76h70v-280h92v-80h-267zM1717 118q0 -60 -47 -94t-135 -34q-75 0 -118 24q-82 44 -82 162q0 88 52.5 140
t145.5 52q151 0 177 -108h-99q-14 36 -78 36q-55 0 -85 -31.5t-30 -84.5q0 -10 2 -28q48 75 158 75q139 0 139 -109zM1001 0v80h94v137h-75v67q72 4 87 76h70v-280h91v-80h-267zM886 313l-301 -345l-129 116l394 263zM1537 63q92 0 92 54q0 49 -79 49q-78 0 -118 -55
q25 -48 105 -48z" />
    <glyph glyph-name="thirteensixteenths" horiz-adv-x="1881" 
d="M1007 435l286 320l127 -107l-374 -248zM672 342q-97 0 -141.5 33.5t-46.5 107.5h91q1 -38 25 -54.5t80 -16.5q88 0 88 47q0 21 -16 30t-54 9h-73v66h70q64 0 64 38q0 42 -78 42q-98 0 -98 -66h-90q0 66 48.5 102.5t140.5 36.5q83 0 125 -27.5t42 -73.5q0 -36 -20.5 -53.5
t-60.5 -23.5q90 -13 90 -85q0 -112 -186 -112zM144 350v80h94v148q-59 -11 -75 -11v67q72 4 87 76h70v-280h91v-80h-267zM1767 118q0 -60 -47 -94t-135 -34q-75 0 -118 24q-82 44 -82 162q0 88 52.5 140t145.5 52q151 0 177 -108h-99q-14 36 -78 36q-55 0 -85 -31.5
t-30 -84.5q0 -10 2 -28q48 75 158 75q139 0 139 -109zM1049 1v80h94v137h-75v67q72 4 87 76h70v-280h91v-80h-267zM934 313l-301 -345l-129 116l394 263zM1587 63q92 0 92 54q0 49 -79 49q-78 0 -118 -55q25 -48 105 -48z" />
    <glyph glyph-name="fifteensixteenths" horiz-adv-x="1881" 
d="M1007 435l286 320l127 -107l-374 -248zM144 350v80h94v148q-59 -11 -75 -11v67q72 4 87 76h70v-280h91v-80h-267zM675 342q-168 0 -187 117h105q9 -47 86 -47q95 0 95 60q0 61 -85 61q-63 0 -104 -39l-5 -5l-77 14l25 207h308q-1 -41 -18.5 -55.5t-64.5 -14.5h-153
l-15 -99q49 54 135 54q141 0 141 -121q0 -60 -48 -96t-138 -36zM1767 118q0 -60 -47 -94t-135 -34q-75 0 -118 24q-82 44 -82 162q0 88 52.5 140t145.5 52q151 0 177 -108h-99q-14 36 -78 36q-55 0 -85 -31.5t-30 -84.5q0 -10 2 -28q48 75 158 75q139 0 139 -109zM1049 1v80
h94v137h-75v67q72 4 87 76h70v-280h91v-80h-267zM934 313l-301 -345l-129 116l394 263zM1587 63q92 0 92 54q0 49 -79 49q-78 0 -118 -55q25 -48 105 -48z" />
    <glyph glyph-name="mediumblackcircle" horiz-adv-x="711" 
d="M355 -10q-84 0 -151 38q-68 38 -105.5 104.5t-37.5 149.5q0 79 39 151q39 67 106 105t149 38q80 0 150 -38q68 -40 106 -106t38 -150q0 -82 -38 -149q-40 -67 -106.5 -105t-149.5 -38z" />
    <glyph glyph-name="ballotboxwithx" horiz-adv-x="710" 
d="M74 562h562v-562h-562v562zM170 90h371v383h-371v-383zM356 229l-85 -87l-50 51l85 86l-85 85l49 50l85 -85l85 86l49 -51l-83 -85l84 -84l-50 -50z" />
    <glyph glyph-name="ttfautohint" horiz-adv-x="425" 
 />
    </font>
</defs>
</svg>
